{
.appVersion = "1032";
DisplayStrings = (
"Mit rund , Millionen Einwohnern () auf einer Fl\U00E4che von . km\U00B2 (ohne die abtr\U00FCnnigen Landesteile) ist Georgien eher d\U00FCnn besiedelt. Mehr als ein Viertel der Bev\U00F6lkerung lebt in der Hauptstadtregion um Tiflis, weitere gro\U00DFe St\U00E4dte sind Kutaissi, Batumi und Rustawi.\012         E.          ,        .    IV ;      .          ,  XV      .     -  - .       /emdash     (-)          .\012\012-",

glyphs = (
{
glyphname = exclam;
lastChange = "2017-06-04 10:41:35 +0000";
layers = (
{
layerId = "016D93B1-224C-4BB2-94F2-5498F6B5D728";
paths = (
{
closed = 1;
nodes = (
"97 100 OFFCURVE",
"75 70 OFFCURVE",
"75 40 CURVE SMOOTH",
"75 10 OFFCURVE",
"90 -15 OFFCURVE",
"118 -15 CURVE SMOOTH",
"145 -15 OFFCURVE",
"167 15 OFFCURVE",
"167 47 CURVE SMOOTH",
"167 78 OFFCURVE",
"152 100 OFFCURVE",
"125 100 CURVE SMOOTH"
);
},
{
closed = 1;
nodes = (
"154 507 OFFCURVE",
"155 557 OFFCURVE",
"158 616 CURVE SMOOTH",
"160 675 OFFCURVE",
"161 706 OFFCURVE",
"161 710 CURVE SMOOTH",
"161 743 OFFCURVE",
"148 760 OFFCURVE",
"121 760 CURVE SMOOTH",
"94 760 OFFCURVE",
"81 743 OFFCURVE",
"81 710 CURVE SMOOTH",
"81 706 OFFCURVE",
"82 675 OFFCURVE",
"85 616 CURVE SMOOTH",
"87 557 OFFCURVE",
"88 507 OFFCURVE",
"88 468 CURVE SMOOTH",
"85 256 LINE SMOOTH",
"85 223 OFFCURVE",
"97 206 OFFCURVE",
"121 206 CURVE SMOOTH",
"145 206 OFFCURVE",
"157 223 OFFCURVE",
"157 256 CURVE",
"154 468 LINE"
);
}
);
width = 242;
}
);
note = exclam;
unicode = 0021;
},
{
glyphname = quotedbl;
lastChange = "2017-06-04 10:41:35 +0000";
layers = (
{
layerId = "016D93B1-224C-4BB2-94F2-5498F6B5D728";
paths = (
{
closed = 1;
nodes = (
"222 725 OFFCURVE",
"207 703 OFFCURVE",
"207 684 CURVE SMOOTH",
"207 674 OFFCURVE",
"209 655 OFFCURVE",
"213 626 CURVE SMOOTH",
"217 597 OFFCURVE",
"220 572 OFFCURVE",
"221 552 CURVE SMOOTH",
"222 532 OFFCURVE",
"224 517 OFFCURVE",
"228 506 CURVE",
"231 495 OFFCURVE",
"238 490 OFFCURVE",
"248 490 CURVE SMOOTH",
"257 490 OFFCURVE",
"264 495 OFFCURVE",
"267 506 CURVE SMOOTH",
"270 516 OFFCURVE",
"273 531 OFFCURVE",
"274 552 CURVE SMOOTH",
"275 572 OFFCURVE",
"277 597 OFFCURVE",
"281 626 CURVE SMOOTH",
"285 655 OFFCURVE",
"287 675 OFFCURVE",
"287 684 CURVE SMOOTH",
"287 703 OFFCURVE",
"272 725 OFFCURVE",
"247 725 CURVE SMOOTH"
);
},
{
closed = 1;
nodes = (
"70 725 OFFCURVE",
"55 703 OFFCURVE",
"55 684 CURVE SMOOTH",
"55 674 OFFCURVE",
"57 655 OFFCURVE",
"61 626 CURVE SMOOTH",
"65 597 OFFCURVE",
"68 572 OFFCURVE",
"69 552 CURVE SMOOTH",
"70 532 OFFCURVE",
"72 517 OFFCURVE",
"76 506 CURVE",
"79 495 OFFCURVE",
"86 490 OFFCURVE",
"96 490 CURVE SMOOTH",
"105 490 OFFCURVE",
"112 495 OFFCURVE",
"115 506 CURVE SMOOTH",
"118 516 OFFCURVE",
"121 531 OFFCURVE",
"122 552 CURVE SMOOTH",
"123 572 OFFCURVE",
"125 597 OFFCURVE",
"129 626 CURVE SMOOTH",
"133 655 OFFCURVE",
"135 675 OFFCURVE",
"135 684 CURVE SMOOTH",
"135 703 OFFCURVE",
"120 725 OFFCURVE",
"95 725 CURVE SMOOTH"
);
}
);
width = 342;
}
);
note = quotedbl;
unicode = 0022;
},
{
glyphname = numbersign;
lastChange = "2017-06-04 10:41:35 +0000";
layers = (
{
layerId = "016D93B1-224C-4BB2-94F2-5498F6B5D728";
paths = (
{
closed = 1;
nodes = (
"328 441 LINE",
"504 441 LINE",
"472 274 LINE",
"296 274 LINE"
);
},
{
closed = 1;
nodes = (
"696 212 OFFCURVE",
"711 223 OFFCURVE",
"711 245 CURVE SMOOTH",
"711 267 OFFCURVE",
"696 278 OFFCURVE",
"665 278 CURVE SMOOTH",
"535 275 LINE",
"567 440 LINE",
"709 437 LINE SMOOTH",
"740 437 OFFCURVE",
"755 448 OFFCURVE",
"755 470 CURVE SMOOTH",
"755 492 OFFCURVE",
"740 503 OFFCURVE",
"709 503 CURVE SMOOTH",
"580 500 LINE",
"585 527 OFFCURVE",
"591 554 OFFCURVE",
"598 583 CURVE SMOOTH",
"604 611 OFFCURVE",
"609 633 OFFCURVE",
"612 648 CURVE SMOOTH",
"615 663 OFFCURVE",
"617 674 OFFCURVE",
"617 683 CURVE SMOOTH",
"617 699 OFFCURVE",
"605 714 OFFCURVE",
"588 714 CURVE SMOOTH",
"544 714 OFFCURVE",
"548 681 OFFCURVE",
"535 606 CURVE SMOOTH",
"528 569 OFFCURVE",
"521 533 OFFCURVE",
"514 499 CURVE",
"341 499 LINE",
"346 526 OFFCURVE",
"352 553 OFFCURVE",
"359 582 CURVE SMOOTH",
"365 610 OFFCURVE",
"370 632 OFFCURVE",
"373 647 CURVE SMOOTH",
"376 662 OFFCURVE",
"378 673 OFFCURVE",
"378 682 CURVE SMOOTH",
"378 698 OFFCURVE",
"366 713 OFFCURVE",
"349 713 CURVE SMOOTH",
"305 713 OFFCURVE",
"309 679 OFFCURVE",
"297 606 CURVE SMOOTH",
"290 569 OFFCURVE",
"283 534 OFFCURVE",
"276 500 CURVE",
"137 503 LINE SMOOTH",
"106 503 OFFCURVE",
"91 492 OFFCURVE",
"91 470 CURVE SMOOTH",
"91 448 OFFCURVE",
"106 437 OFFCURVE",
"137 437 CURVE SMOOTH",
"266 440 LINE",
"234 275 LINE",
"94 278 LINE SMOOTH",
"63 278 OFFCURVE",
"48 267 OFFCURVE",
"48 245 CURVE SMOOTH",
"48 223 OFFCURVE",
"63 212 OFFCURVE",
"94 212 CURVE SMOOTH",
"221 215 LINE",
"216 185 OFFCURVE",
"210 154 OFFCURVE",
"203 123 CURVE SMOOTH",
"196 92 OFFCURVE",
"190 68 OFFCURVE",
"187 53 CURVE SMOOTH",
"184 38 OFFCURVE",
"182 26 OFFCURVE",
"182 17 CURVE SMOOTH",
"182 -1 OFFCURVE",
"194 -15 OFFCURVE",
"211 -15 CURVE SMOOTH",
"255 -15 OFFCURVE",
"251 18 OFFCURVE",
"264 99 CURVE SMOOTH",
"271 139 OFFCURVE",
"278 178 OFFCURVE",
"285 216 CURVE",
"458 216 LINE",
"450 171 OFFCURVE",
"439 117 OFFCURVE",
"426 54 CURVE SMOOTH",
"423 39 OFFCURVE",
"421 27 OFFCURVE",
"421 18 CURVE SMOOTH",
"421 0 OFFCURVE",
"433 -14 OFFCURVE",
"450 -14 CURVE SMOOTH",
"472 -14 OFFCURVE",
"486 0 OFFCURVE",
"491 27 CURVE SMOOTH",
"504 105 OFFCURVE",
"515 167 OFFCURVE",
"524 214 CURVE",
"665 212 LINE SMOOTH"
);
}
);
width = 803;
}
);
note = numbersign;
unicode = 0023;
},
{
glyphname = dollar;
lastChange = "2017-06-04 10:41:35 +0000";
layers = (
{
layerId = "016D93B1-224C-4BB2-94F2-5498F6B5D728";
paths = (
{
closed = 1;
nodes = (
"503 210 OFFCURVE",
"498 233 OFFCURVE",
"488 254 CURVE SMOOTH",
"468 297 OFFCURVE",
"424 340 OFFCURVE",
"316 404 CURVE",
"316 485 OFFCURVE",
"317 565 OFFCURVE",
"318 645 CURVE",
"340 644 OFFCURVE",
"364 637 OFFCURVE",
"389 622 CURVE SMOOTH",
"414 607 OFFCURVE",
"431 599 OFFCURVE",
"441 599 CURVE SMOOTH",
"460 599 OFFCURVE",
"470 612 OFFCURVE",
"470 627 CURVE SMOOTH",
"470 666 OFFCURVE",
"405 702 OFFCURVE",
"320 710 CURVE",
"320 749 LINE SMOOTH",
"320 783 OFFCURVE",
"309 800 OFFCURVE",
"286 800 CURVE SMOOTH",
"263 800 OFFCURVE",
"252 783 OFFCURVE",
"252 749 CURVE SMOOTH",
"252 710 LINE",
"151 699 OFFCURVE",
"82 635 OFFCURVE",
"82 556 CURVE SMOOTH",
"82 476 OFFCURVE",
"148 419 OFFCURVE",
"256 358 CURVE",
"256 247 OFFCURVE",
"255 144 OFFCURVE",
"254 51 CURVE",
"204 54 OFFCURVE",
"157 73 OFFCURVE",
"114 108 CURVE SMOOTH",
"101 119 OFFCURVE",
"90 124 OFFCURVE",
"81 124 CURVE SMOOTH",
"64 124 OFFCURVE",
"52 112 OFFCURVE",
"52 93 CURVE SMOOTH",
"52 50 OFFCURVE",
"149 -6 OFFCURVE",
"252 -13 CURVE",
"251 -59 LINE SMOOTH",
"251 -93 OFFCURVE",
"263 -110 OFFCURVE",
"286 -110 CURVE SMOOTH",
"309 -110 OFFCURVE",
"321 -93 OFFCURVE",
"321 -59 CURVE SMOOTH",
"321 -44 OFFCURVE",
"320 -28 OFFCURVE",
"319 -11 CURVE",
"431 6 OFFCURVE",
"503 86 OFFCURVE",
"503 186 CURVE SMOOTH"
);
},
{
closed = 1;
nodes = (
"316 99 OFFCURVE",
"316 188 OFFCURVE",
"316 323 CURVE",
"388 279 OFFCURVE",
"428 241 OFFCURVE",
"428 181 CURVE SMOOTH",
"428 120 OFFCURVE",
"380 65 OFFCURVE",
"317 54 CURVE"
);
},
{
closed = 1;
nodes = (
"155 607 OFFCURVE",
"197 638 OFFCURVE",
"254 645 CURVE",
"255 598 OFFCURVE",
"256 529 OFFCURVE",
"256 438 CURVE",
"189 481 OFFCURVE",
"155 520 OFFCURVE",
"155 555 CURVE SMOOTH"
);
}
);
width = 554;
}
);
note = dollar;
unicode = 0024;
},
{
glyphname = percent;
lastChange = "2017-06-04 10:41:35 +0000";
layers = (
{
layerId = "016D93B1-224C-4BB2-94F2-5498F6B5D728";
paths = (
{
closed = 1;
nodes = (
"585 737 OFFCURVE",
"565 760 OFFCURVE",
"543 760 CURVE SMOOTH",
"532 760 OFFCURVE",
"523 758 OFFCURVE",
"517 753 CURVE",
"504 744 OFFCURVE",
"492 717 OFFCURVE",
"480 674 CURVE SMOOTH",
"472 646 LINE",
"458 634 OFFCURVE",
"435 628 OFFCURVE",
"404 628 CURVE SMOOTH",
"372 628 OFFCURVE",
"338 643 OFFCURVE",
"303 672 CURVE SMOOTH",
"268 701 OFFCURVE",
"230 715 OFFCURVE",
"191 715 CURVE SMOOTH",
"112 715 OFFCURVE",
"48 640 OFFCURVE",
"48 541 CURVE SMOOTH",
"48 441 OFFCURVE",
"107 369 OFFCURVE",
"195 369 CURVE SMOOTH",
"282 369 OFFCURVE",
"341 445 OFFCURVE",
"341 542 CURVE SMOOTH",
"341 557 OFFCURVE",
"339 571 OFFCURVE",
"336 583 CURVE",
"367 574 OFFCURVE",
"393 569 OFFCURVE",
"412 569 CURVE SMOOTH",
"431 569 OFFCURVE",
"446 572 OFFCURVE",
"457 577 CURVE",
"406 420 OFFCURVE",
"346 260 OFFCURVE",
"279 95 CURVE SMOOTH",
"262 54 OFFCURVE",
"254 29 OFFCURVE",
"254 19 CURVE SMOOTH",
"254 -2 OFFCURVE",
"268 -15 OFFCURVE",
"285 -15 CURVE SMOOTH",
"302 -15 OFFCURVE",
"314 -7 OFFCURVE",
"321 10 CURVE SMOOTH",
"328 27 OFFCURVE",
"397 224 OFFCURVE",
"529 602 CURVE",
"566 643 OFFCURVE",
"585 677 OFFCURVE",
"585 706 CURVE SMOOTH"
);
},
{
closed = 1;
nodes = (
"143 426 OFFCURVE",
"111 476 OFFCURVE",
"111 543 CURVE SMOOTH",
"111 610 OFFCURVE",
"143 658 OFFCURVE",
"196 658 CURVE SMOOTH",
"249 658 OFFCURVE",
"280 608 OFFCURVE",
"280 541 CURVE SMOOTH",
"280 474 OFFCURVE",
"248 426 OFFCURVE",
"196 426 CURVE SMOOTH"
);
},
{
closed = 1;
nodes = (
"523 331 OFFCURVE",
"461 256 OFFCURVE",
"461 157 CURVE SMOOTH",
"461 57 OFFCURVE",
"520 -15 OFFCURVE",
"608 -15 CURVE SMOOTH",
"695 -15 OFFCURVE",
"757 60 OFFCURVE",
"757 160 CURVE SMOOTH",
"757 259 OFFCURVE",
"698 331 OFFCURVE",
"611 331 CURVE SMOOTH"
);
},
{
closed = 1;
nodes = (
"556 42 OFFCURVE",
"525 92 OFFCURVE",
"525 159 CURVE SMOOTH",
"525 226 OFFCURVE",
"557 274 OFFCURVE",
"610 274 CURVE SMOOTH",
"662 274 OFFCURVE",
"693 224 OFFCURVE",
"693 157 CURVE SMOOTH",
"693 90 OFFCURVE",
"661 42 OFFCURVE",
"609 42 CURVE SMOOTH"
);
}
);
width = 804;
}
);
note = percent;
unicode = 0025;
},
{
glyphname = ampersand;
lastChange = "2017-06-04 10:41:35 +0000";
layers = (
{
layerId = "016D93B1-224C-4BB2-94F2-5498F6B5D728";
paths = (
{
closed = 1;
nodes = (
"357 354 OFFCURVE",
"313 332 OFFCURVE",
"313 299 CURVE SMOOTH",
"313 279 OFFCURVE",
"327 263 OFFCURVE",
"347 263 CURVE SMOOTH",
"357 263 OFFCURVE",
"369 266 OFFCURVE",
"382 272 CURVE SMOOTH",
"395 278 OFFCURVE",
"406 281 OFFCURVE",
"415 281 CURVE SMOOTH",
"448 281 OFFCURVE",
"465 252 OFFCURVE",
"465 194 CURVE SMOOTH",
"465 118 OFFCURVE",
"397 53 OFFCURVE",
"296 53 CURVE SMOOTH",
"195 53 OFFCURVE",
"119 131 OFFCURVE",
"119 235 CURVE SMOOTH",
"119 310 OFFCURVE",
"157 369 OFFCURVE",
"222 401 CURVE",
"237 394 OFFCURVE",
"253 390 OFFCURVE",
"272 390 CURVE SMOOTH",
"309 390 OFFCURVE",
"340 408 OFFCURVE",
"340 437 CURVE SMOOTH",
"340 465 OFFCURVE",
"311 483 OFFCURVE",
"276 483 CURVE SMOOTH",
"258 483 OFFCURVE",
"242 481 OFFCURVE",
"228 477 CURVE",
"195 500 OFFCURVE",
"168 547 OFFCURVE",
"168 596 CURVE SMOOTH",
"168 644 OFFCURVE",
"210 680 OFFCURVE",
"266 680 CURVE SMOOTH",
"293 680 OFFCURVE",
"317 673 OFFCURVE",
"337 660 CURVE SMOOTH",
"357 646 OFFCURVE",
"371 639 OFFCURVE",
"379 639 CURVE SMOOTH",
"395 639 OFFCURVE",
"410 651 OFFCURVE",
"410 672 CURVE SMOOTH",
"410 708 OFFCURVE",
"339 745 OFFCURVE",
"270 745 CURVE SMOOTH",
"163 745 OFFCURVE",
"98 675 OFFCURVE",
"98 590 CURVE SMOOTH",
"98 535 OFFCURVE",
"134 480 OFFCURVE",
"174 444 CURVE",
"97 393 OFFCURVE",
"47 312 OFFCURVE",
"47 232 CURVE SMOOTH",
"47 92 OFFCURVE",
"150 -15 OFFCURVE",
"298 -15 CURVE SMOOTH",
"445 -15 OFFCURVE",
"535 92 OFFCURVE",
"535 177 CURVE SMOOTH",
"535 220 OFFCURVE",
"526 256 OFFCURVE",
"508 286 CURVE",
"597 286 OFFCURVE",
"663 309 OFFCURVE",
"706 356 CURVE SMOOTH",
"731 382 OFFCURVE",
"743 416 OFFCURVE",
"743 457 CURVE SMOOTH",
"743 539 OFFCURVE",
"656 626 OFFCURVE",
"583 626 CURVE SMOOTH",
"560 626 OFFCURVE",
"545 614 OFFCURVE",
"545 594 CURVE SMOOTH",
"545 573 OFFCURVE",
"560 563 OFFCURVE",
"599 550 CURVE SMOOTH",
"650 533 OFFCURVE",
"675 499 OFFCURVE",
"675 450 CURVE SMOOTH",
"675 385 OFFCURVE",
"604 349 OFFCURVE",
"535 349 CURVE",
"410 354 LINE"
);
}
);
width = 765;
}
);
note = ampersand;
unicode = 0026;
},
{
glyphname = quotesingle;
lastChange = "2017-06-04 10:41:35 +0000";
layers = (
{
layerId = "016D93B1-224C-4BB2-94F2-5498F6B5D728";
paths = (
{
closed = 1;
nodes = (
"70 725 OFFCURVE",
"55 703 OFFCURVE",
"55 684 CURVE SMOOTH",
"55 674 OFFCURVE",
"57 655 OFFCURVE",
"61 626 CURVE SMOOTH",
"65 597 OFFCURVE",
"68 572 OFFCURVE",
"69 552 CURVE SMOOTH",
"70 532 OFFCURVE",
"72 517 OFFCURVE",
"76 506 CURVE",
"79 495 OFFCURVE",
"86 490 OFFCURVE",
"96 490 CURVE SMOOTH",
"105 490 OFFCURVE",
"112 495 OFFCURVE",
"115 506 CURVE SMOOTH",
"118 516 OFFCURVE",
"121 531 OFFCURVE",
"122 552 CURVE SMOOTH",
"123 572 OFFCURVE",
"125 597 OFFCURVE",
"129 626 CURVE SMOOTH",
"133 655 OFFCURVE",
"135 675 OFFCURVE",
"135 684 CURVE SMOOTH",
"135 703 OFFCURVE",
"120 725 OFFCURVE",
"95 725 CURVE SMOOTH"
);
}
);
width = 190;
}
);
note = quotesingle;
unicode = 0027;
},
{
glyphname = parenleft;
lastChange = "2017-06-04 10:41:35 +0000";
layers = (
{
layerId = "016D93B1-224C-4BB2-94F2-5498F6B5D728";
paths = (
{
closed = 1;
nodes = (
"225 760 OFFCURVE",
"206 746 OFFCURVE",
"183 718 CURVE SMOOTH",
"160 689 OFFCURVE",
"138 653 OFFCURVE",
"118 610 CURVE SMOOTH",
"78 522 OFFCURVE",
"46 395 OFFCURVE",
"46 284 CURVE SMOOTH",
"46 155 OFFCURVE",
"67 41 OFFCURVE",
"110 -59 CURVE SMOOTH",
"145 -142 OFFCURVE",
"208 -230 OFFCURVE",
"249 -230 CURVE SMOOTH",
"262 -230 OFFCURVE",
"268 -223 OFFCURVE",
"268 -209 CURVE SMOOTH",
"268 -202 OFFCURVE",
"264 -194 OFFCURVE",
"256 -184 CURVE SMOOTH",
"223 -143 OFFCURVE",
"197 -99 OFFCURVE",
"177 -52 CURVE SMOOTH",
"140 33 OFFCURVE",
"121 130 OFFCURVE",
"121 239 CURVE SMOOTH",
"121 378 OFFCURVE",
"149 498 OFFCURVE",
"205 597 CURVE SMOOTH",
"216 616 OFFCURVE",
"228 635 OFFCURVE",
"242 653 CURVE SMOOTH",
"270 688 OFFCURVE",
"282 704 OFFCURVE",
"282 724 CURVE SMOOTH",
"282 743 OFFCURVE",
"271 760 OFFCURVE",
"240 760 CURVE SMOOTH"
);
}
);
width = 302;
}
);
note = parenleft;
unicode = 0028;
},
{
glyphname = parenright;
lastChange = "2017-06-04 10:41:35 +0000";
layers = (
{
layerId = "016D93B1-224C-4BB2-94F2-5498F6B5D728";
paths = (
{
closed = 1;
nodes = (
"256 339 OFFCURVE",
"249 397 OFFCURVE",
"235 456 CURVE SMOOTH",
"207 574 OFFCURVE",
"166 661 OFFCURVE",
"120 718 CURVE SMOOTH",
"97 746 OFFCURVE",
"77 760 OFFCURVE",
"62 760 CURVE SMOOTH",
"31 760 OFFCURVE",
"20 743 OFFCURVE",
"20 724 CURVE SMOOTH",
"20 704 OFFCURVE",
"32 688 OFFCURVE",
"60 653 CURVE SMOOTH",
"74 635 OFFCURVE",
"86 616 OFFCURVE",
"97 597 CURVE SMOOTH",
"153 498 OFFCURVE",
"181 378 OFFCURVE",
"181 239 CURVE SMOOTH",
"181 70 OFFCURVE",
"136 -71 OFFCURVE",
"46 -184 CURVE SMOOTH",
"38 -194 OFFCURVE",
"34 -202 OFFCURVE",
"34 -209 CURVE SMOOTH",
"34 -223 OFFCURVE",
"40 -230 OFFCURVE",
"53 -230 CURVE SMOOTH",
"94 -230 OFFCURVE",
"157 -142 OFFCURVE",
"192 -59 CURVE SMOOTH",
"235 41 OFFCURVE",
"256 155 OFFCURVE",
"256 284 CURVE SMOOTH"
);
}
);
width = 303;
}
);
note = parenright;
unicode = 0029;
},
{
glyphname = asterisk;
lastChange = "2017-06-04 10:41:35 +0000";
layers = (
{
layerId = "016D93B1-224C-4BB2-94F2-5498F6B5D728";
paths = (
{
closed = 1;
nodes = (
"246 547 OFFCURVE",
"260 537 OFFCURVE",
"275 525 CURVE",
"290 512 OFFCURVE",
"301 504 OFFCURVE",
"308 500 CURVE",
"315 495 OFFCURVE",
"323 493 OFFCURVE",
"331 493 CURVE SMOOTH",
"346 493 OFFCURVE",
"361 506 OFFCURVE",
"361 523 CURVE SMOOTH",
"361 540 OFFCURVE",
"350 552 OFFCURVE",
"336 557 CURVE",
"329 560 OFFCURVE",
"317 564 OFFCURVE",
"300 571 CURVE",
"283 577 OFFCURVE",
"268 584 OFFCURVE",
"254 591 CURVE",
"268 598 OFFCURVE",
"283 605 OFFCURVE",
"300 612 CURVE",
"317 618 OFFCURVE",
"329 622 OFFCURVE",
"336 625 CURVE",
"350 630 OFFCURVE",
"361 642 OFFCURVE",
"361 659 CURVE SMOOTH",
"361 676 OFFCURVE",
"346 689 OFFCURVE",
"331 689 CURVE SMOOTH",
"323 689 OFFCURVE",
"315 687 OFFCURVE",
"308 683 CURVE",
"301 678 OFFCURVE",
"290 670 OFFCURVE",
"275 658 CURVE",
"260 645 OFFCURVE",
"246 635 OFFCURVE",
"234 627 CURVE",
"235 642 OFFCURVE",
"238 660 OFFCURVE",
"241 681 CURVE SMOOTH",
"244 702 OFFCURVE",
"245 716 OFFCURVE",
"245 725 CURVE SMOOTH",
"245 741 OFFCURVE",
"232 760 OFFCURVE",
"212 760 CURVE SMOOTH",
"192 760 OFFCURVE",
"179 743 OFFCURVE",
"179 719 CURVE",
"186 658 OFFCURVE",
"190 627 OFFCURVE",
"190 627 CURVE",
"178 635 OFFCURVE",
"165 645 OFFCURVE",
"150 658 CURVE",
"135 670 OFFCURVE",
"123 678 OFFCURVE",
"116 683 CURVE",
"109 687 OFFCURVE",
"101 689 OFFCURVE",
"94 689 CURVE SMOOTH",
"78 689 OFFCURVE",
"63 676 OFFCURVE",
"63 659 CURVE SMOOTH",
"63 642 OFFCURVE",
"75 630 OFFCURVE",
"89 625 CURVE",
"96 622 OFFCURVE",
"107 618 OFFCURVE",
"124 612 CURVE",
"141 605 OFFCURVE",
"156 598 OFFCURVE",
"170 591 CURVE",
"156 584 OFFCURVE",
"141 577 OFFCURVE",
"124 571 CURVE",
"107 564 OFFCURVE",
"96 560 OFFCURVE",
"89 557 CURVE",
"75 552 OFFCURVE",
"63 540 OFFCURVE",
"63 523 CURVE SMOOTH",
"63 506 OFFCURVE",
"78 493 OFFCURVE",
"94 493 CURVE SMOOTH",
"101 493 OFFCURVE",
"109 495 OFFCURVE",
"116 500 CURVE",
"123 504 OFFCURVE",
"135 512 OFFCURVE",
"150 525 CURVE",
"165 537 OFFCURVE",
"178 547 OFFCURVE",
"190 555 CURVE",
"189 540 OFFCURVE",
"187 523 OFFCURVE",
"184 502 CURVE SMOOTH",
"181 481 OFFCURVE",
"179 467 OFFCURVE",
"179 459 CURVE SMOOTH",
"179 443 OFFCURVE",
"192 424 OFFCURVE",
"212 424 CURVE SMOOTH",
"232 424 OFFCURVE",
"245 441 OFFCURVE",
"245 465 CURVE",
"234 555 LINE"
);
}
);
width = 424;
}
);
note = asterisk;
unicode = 002A;
},
{
glyphname = plus;
lastChange = "2017-06-04 10:41:35 +0000";
layers = (
{
layerId = "016D93B1-224C-4BB2-94F2-5498F6B5D728";
paths = (
{
closed = 1;
nodes = (
"299 384 OFFCURVE",
"300 435 OFFCURVE",
"300 442 CURVE SMOOTH",
"300 457 OFFCURVE",
"286 475 OFFCURVE",
"265 475 CURVE SMOOTH",
"243 475 OFFCURVE",
"232 461 OFFCURVE",
"232 434 CURVE SMOOTH",
"232 432 OFFCURVE",
"233 384 OFFCURVE",
"236 291 CURVE",
"88 294 LINE SMOOTH",
"64 294 OFFCURVE",
"47 281 OFFCURVE",
"47 261 CURVE SMOOTH",
"47 241 OFFCURVE",
"59 228 OFFCURVE",
"102 228 CURVE SMOOTH",
"123 228 OFFCURVE",
"168 229 OFFCURVE",
"236 231 CURVE",
"233 130 OFFCURVE",
"232 77 OFFCURVE",
"232 74 CURVE SMOOTH",
"232 47 OFFCURVE",
"243 33 OFFCURVE",
"265 33 CURVE SMOOTH",
"286 33 OFFCURVE",
"300 49 OFFCURVE",
"300 74 CURVE",
"296 231 LINE",
"360 229 OFFCURVE",
"409 228 OFFCURVE",
"442 228 CURVE SMOOTH",
"466 228 OFFCURVE",
"483 241 OFFCURVE",
"483 261 CURVE SMOOTH",
"483 281 OFFCURVE",
"466 294 OFFCURVE",
"442 294 CURVE SMOOTH",
"296 291 LINE"
);
}
);
width = 529;
}
);
note = plus;
unicode = 002B;
},
{
glyphname = comma;
lastChange = "2017-06-04 10:41:35 +0000";
layers = (
{
layerId = "016D93B1-224C-4BB2-94F2-5498F6B5D728";
paths = (
{
closed = 1;
nodes = (
"151 78 OFFCURVE",
"136 102 OFFCURVE",
"108 102 CURVE SMOOTH",
"79 102 OFFCURVE",
"57 71 OFFCURVE",
"57 44 CURVE SMOOTH",
"57 31 OFFCURVE",
"58 18 OFFCURVE",
"61 6 CURVE SMOOTH",
"64 -7 OFFCURVE",
"65 -21 OFFCURVE",
"65 -38 CURVE SMOOTH",
"65 -55 OFFCURVE",
"59 -74 OFFCURVE",
"47 -95 CURVE",
"34 -116 OFFCURVE",
"28 -129 OFFCURVE",
"28 -134 CURVE SMOOTH",
"28 -144 OFFCURVE",
"37 -153 OFFCURVE",
"48 -153 CURVE SMOOTH",
"93 -153 OFFCURVE",
"151 -42 OFFCURVE",
"151 49 CURVE SMOOTH"
);
}
);
width = 210;
}
);
note = comma;
unicode = 002C;
},
{
glyphname = hyphen;
lastChange = "2017-06-04 10:41:35 +0000";
layers = (
{
layerId = "016D93B1-224C-4BB2-94F2-5498F6B5D728";
paths = (
{
closed = 1;
nodes = (
"83 294 OFFCURVE",
"66 281 OFFCURVE",
"66 261 CURVE SMOOTH",
"66 241 OFFCURVE",
"83 228 OFFCURVE",
"107 228 CURVE SMOOTH",
"214 231 LINE",
"321 228 LINE SMOOTH",
"345 228 OFFCURVE",
"362 241 OFFCURVE",
"362 261 CURVE SMOOTH",
"362 281 OFFCURVE",
"345 294 OFFCURVE",
"321 294 CURVE SMOOTH",
"214 291 LINE",
"107 294 LINE SMOOTH"
);
}
);
width = 428;
}
);
note = hyphen;
unicode = 002D;
},
{
glyphname = period;
lastChange = "2017-06-04 10:41:35 +0000";
layers = (
{
layerId = "016D93B1-224C-4BB2-94F2-5498F6B5D728";
paths = (
{
closed = 1;
nodes = (
"78 107 OFFCURVE",
"56 77 OFFCURVE",
"56 46 CURVE SMOOTH",
"56 14 OFFCURVE",
"72 -10 OFFCURVE",
"100 -10 CURVE SMOOTH",
"128 -10 OFFCURVE",
"150 21 OFFCURVE",
"150 53 CURVE SMOOTH",
"150 84 OFFCURVE",
"135 107 OFFCURVE",
"107 107 CURVE SMOOTH"
);
}
);
width = 207;
}
);
note = period;
unicode = 002E;
},
{
glyphname = slash;
lastChange = "2017-06-04 10:41:35 +0000";
layers = (
{
layerId = "016D93B1-224C-4BB2-94F2-5498F6B5D728";
paths = (
{
closed = 1;
nodes = (
"135 -152 OFFCURVE",
"131 -117 OFFCURVE",
"146 -41 CURVE SMOOTH",
"182 155 OFFCURVE",
"231 386 OFFCURVE",
"294 651 CURVE SMOOTH",
"302 686 OFFCURVE",
"306 709 OFFCURVE",
"306 718 CURVE SMOOTH",
"306 746 OFFCURVE",
"294 760 OFFCURVE",
"270 760 CURVE SMOOTH",
"229 760 OFFCURVE",
"231 725 OFFCURVE",
"217 649 CURVE SMOOTH",
"210 611 OFFCURVE",
"200 561 OFFCURVE",
"188 499 CURVE SMOOTH",
"163 374 OFFCURVE",
"141 270 OFFCURVE",
"93 62 CURVE SMOOTH",
"68 -43 OFFCURVE",
"56 -101 OFFCURVE",
"56 -112 CURVE SMOOTH",
"56 -139 OFFCURVE",
"68 -152 OFFCURVE",
"92 -152 CURVE SMOOTH"
);
}
);
width = 363;
}
);
note = slash;
unicode = 002F;
},
{
glyphname = zero;
lastChange = "2017-06-12 08:19:36 +0000";
layers = (
{
layerId = "016D93B1-224C-4BB2-94F2-5498F6B5D728";
paths = (
{
closed = 1;
nodes = (
"29 723 OFFCURVE",
"37 528 OFFCURVE",
"37 349 CURVE SMOOTH",
"37 161 OFFCURVE",
"30 -10 OFFCURVE",
"205 -10 CURVE SMOOTH",
"380 -10 OFFCURVE",
"374 161 OFFCURVE",
"374 349 CURVE SMOOTH",
"374 528 OFFCURVE",
"389 723 OFFCURVE",
"205 723 CURVE SMOOTH"
);
},
{
closed = 1;
nodes = (
"88 40 OFFCURVE",
"97 178 OFFCURVE",
"97 349 CURVE SMOOTH",
"97 517 OFFCURVE",
"87 673 OFFCURVE",
"205 673 CURVE SMOOTH",
"323 673 OFFCURVE",
"314 518 OFFCURVE",
"314 349 CURVE SMOOTH",
"314 178 OFFCURVE",
"322 40 OFFCURVE",
"205 40 CURVE SMOOTH"
);
}
);
width = 411;
},
{
layerId = "016D93B1-224C-4BB2-94F2-5498F6B5D728";
paths = (
{
closed = 1;
nodes = (
"29 723 OFFCURVE",
"37 528 OFFCURVE",
"37 349 CURVE SMOOTH",
"37 161 OFFCURVE",
"30 -10 OFFCURVE",
"205 -10 CURVE SMOOTH",
"380 -10 OFFCURVE",
"374 161 OFFCURVE",
"374 349 CURVE SMOOTH",
"374 528 OFFCURVE",
"389 723 OFFCURVE",
"205 723 CURVE SMOOTH"
);
},
{
closed = 1;
nodes = (
"88 40 OFFCURVE",
"97 178 OFFCURVE",
"97 349 CURVE SMOOTH",
"97 517 OFFCURVE",
"87 673 OFFCURVE",
"205 673 CURVE SMOOTH",
"323 673 OFFCURVE",
"314 518 OFFCURVE",
"314 349 CURVE SMOOTH",
"314 178 OFFCURVE",
"322 40 OFFCURVE",
"205 40 CURVE SMOOTH"
);
}
);
width = 411;
}
);
unicode = 0030;
},
{
glyphname = one;
lastChange = "2017-06-12 08:19:36 +0000";
layers = (
{
layerId = "016D93B1-224C-4BB2-94F2-5498F6B5D728";
paths = (
{
closed = 1;
nodes = (
"223 659 LINE SMOOTH",
"223 726 OFFCURVE",
"165 721 OFFCURVE",
"139 700 CURVE SMOOTH",
"53 629 LINE SMOOTH",
"22 604 OFFCURVE",
"49 563 OFFCURVE",
"82 587 CURVE",
"162 647 LINE",
"163 647 LINE",
"163 51 LINE",
"85 51 LINE SMOOTH",
"61 51 OFFCURVE",
"52 36 OFFCURVE",
"52 24 CURVE SMOOTH",
"52 11 OFFCURVE",
"63 1 OFFCURVE",
"85 1 CURVE SMOOTH",
"301 1 LINE SMOOTH",
"325 1 OFFCURVE",
"334 11 OFFCURVE",
"334 24 CURVE SMOOTH",
"334 36 OFFCURVE",
"325 51 OFFCURVE",
"301 51 CURVE SMOOTH",
"223 51 LINE"
);
}
);
width = 364;
},
{
layerId = "016D93B1-224C-4BB2-94F2-5498F6B5D728";
paths = (
{
closed = 1;
nodes = (
"223 659 LINE SMOOTH",
"223 726 OFFCURVE",
"165 721 OFFCURVE",
"139 700 CURVE SMOOTH",
"53 629 LINE SMOOTH",
"22 604 OFFCURVE",
"49 563 OFFCURVE",
"82 587 CURVE",
"162 647 LINE",
"163 647 LINE",
"163 51 LINE",
"85 51 LINE SMOOTH",
"61 51 OFFCURVE",
"52 36 OFFCURVE",
"52 24 CURVE SMOOTH",
"52 11 OFFCURVE",
"63 1 OFFCURVE",
"85 1 CURVE SMOOTH",
"301 1 LINE SMOOTH",
"325 1 OFFCURVE",
"334 11 OFFCURVE",
"334 24 CURVE SMOOTH",
"334 36 OFFCURVE",
"325 51 OFFCURVE",
"301 51 CURVE SMOOTH",
"223 51 LINE"
);
}
);
width = 364;
}
);
unicode = 0031;
},
{
glyphname = two;
lastChange = "2017-06-12 08:19:36 +0000";
layers = (
{
background = {
paths = (
{
closed = 1;
nodes = (
"103 659 LINE SMOOTH",
"103 726 OFFCURVE",
"45 721 OFFCURVE",
"19 700 CURVE SMOOTH",
"-67 629 LINE SMOOTH",
"-98 604 OFFCURVE",
"-71 563 OFFCURVE",
"-38 587 CURVE",
"42 647 LINE",
"43 647 LINE",
"43 51 LINE",
"-35 51 LINE SMOOTH",
"-59 51 OFFCURVE",
"-68 36 OFFCURVE",
"-68 24 CURVE SMOOTH",
"-68 11 OFFCURVE",
"-57 1 OFFCURVE",
"-35 1 CURVE SMOOTH",
"181 1 LINE SMOOTH",
"205 1 OFFCURVE",
"214 11 OFFCURVE",
"214 24 CURVE SMOOTH",
"214 36 OFFCURVE",
"205 51 OFFCURVE",
"181 51 CURVE SMOOTH",
"103 51 LINE"
);
}
);
};
layerId = "016D93B1-224C-4BB2-94F2-5498F6B5D728";
paths = (
{
closed = 1;
nodes = (
"279 568 LINE",
"281 472 OFFCURVE",
"35 146 OFFCURVE",
"35 52 CURVE SMOOTH",
"35 21 OFFCURVE",
"57 0 OFFCURVE",
"88 0 CURVE SMOOTH",
"294 0 LINE SMOOTH",
"318 0 OFFCURVE",
"337 3 OFFCURVE",
"337 27 CURVE SMOOTH",
"337 51 OFFCURVE",
"318 50 OFFCURVE",
"294 50 CURVE SMOOTH",
"95 50 LINE",
"95 123 OFFCURVE",
"340 450 OFFCURVE",
"339 568 CURVE"
);
},
{
closed = 1;
nodes = (
"339 563 LINE",
"339 570 OFFCURVE",
"339 578 OFFCURVE",
"339 585 CURVE",
"339 670 OFFCURVE",
"278 724 OFFCURVE",
"189 724 CURVE",
"100 724 OFFCURVE",
"38 664 OFFCURVE",
"30 588 CURVE",
"28 560 OFFCURVE",
"37 506 OFFCURVE",
"82 485 CURVE",
"126 465 OFFCURVE",
"150 516 OFFCURVE",
"114 535 CURVE",
"101 541 OFFCURVE",
"82 566 OFFCURVE",
"90 602 CURVE",
"103 657 OFFCURVE",
"146 674 OFFCURVE",
"189 674 CURVE",
"233 674 OFFCURVE",
"279 636 OFFCURVE",
"279 580 CURVE",
"279 574 OFFCURVE",
"279 568 OFFCURVE",
"279 563 CURVE"
);
}
);
width = 369;
},
{
background = {
paths = (
{
closed = 1;
nodes = (
"103 659 LINE SMOOTH",
"103 726 OFFCURVE",
"45 721 OFFCURVE",
"19 700 CURVE SMOOTH",
"-67 629 LINE SMOOTH",
"-98 604 OFFCURVE",
"-71 563 OFFCURVE",
"-38 587 CURVE",
"42 647 LINE",
"43 647 LINE",
"43 51 LINE",
"-35 51 LINE SMOOTH",
"-59 51 OFFCURVE",
"-68 36 OFFCURVE",
"-68 24 CURVE SMOOTH",
"-68 11 OFFCURVE",
"-57 1 OFFCURVE",
"-35 1 CURVE SMOOTH",
"181 1 LINE SMOOTH",
"205 1 OFFCURVE",
"214 11 OFFCURVE",
"214 24 CURVE SMOOTH",
"214 36 OFFCURVE",
"205 51 OFFCURVE",
"181 51 CURVE SMOOTH",
"103 51 LINE"
);
}
);
};
layerId = "016D93B1-224C-4BB2-94F2-5498F6B5D728";
paths = (
{
closed = 1;
nodes = (
"279 568 LINE",
"281 472 OFFCURVE",
"35 146 OFFCURVE",
"35 52 CURVE SMOOTH",
"35 21 OFFCURVE",
"57 0 OFFCURVE",
"88 0 CURVE SMOOTH",
"294 0 LINE SMOOTH",
"318 0 OFFCURVE",
"337 3 OFFCURVE",
"337 27 CURVE SMOOTH",
"337 51 OFFCURVE",
"318 50 OFFCURVE",
"294 50 CURVE SMOOTH",
"95 50 LINE",
"95 123 OFFCURVE",
"340 450 OFFCURVE",
"339 568 CURVE"
);
},
{
closed = 1;
nodes = (
"339 563 LINE",
"339 570 OFFCURVE",
"339 578 OFFCURVE",
"339 585 CURVE",
"339 670 OFFCURVE",
"278 724 OFFCURVE",
"189 724 CURVE",
"100 724 OFFCURVE",
"38 664 OFFCURVE",
"30 588 CURVE",
"28 560 OFFCURVE",
"37 506 OFFCURVE",
"82 485 CURVE",
"126 465 OFFCURVE",
"150 516 OFFCURVE",
"114 535 CURVE",
"101 541 OFFCURVE",
"82 566 OFFCURVE",
"90 602 CURVE",
"103 657 OFFCURVE",
"146 674 OFFCURVE",
"189 674 CURVE",
"233 674 OFFCURVE",
"279 636 OFFCURVE",
"279 580 CURVE",
"279 574 OFFCURVE",
"279 568 OFFCURVE",
"279 563 CURVE"
);
}
);
width = 369;
}
);
unicode = 0032;
},
{
glyphname = three;
lastChange = "2017-06-12 08:19:36 +0000";
layers = (
{
layerId = "016D93B1-224C-4BB2-94F2-5498F6B5D728";
paths = (
{
closed = 1;
nodes = (
"352 563 LINE",
"352 570 OFFCURVE",
"352 578 OFFCURVE",
"352 585 CURVE",
"352 670 OFFCURVE",
"291 724 OFFCURVE",
"202 724 CURVE",
"113 724 OFFCURVE",
"51 664 OFFCURVE",
"43 588 CURVE",
"41 560 OFFCURVE",
"50 506 OFFCURVE",
"95 485 CURVE",
"139 465 OFFCURVE",
"163 516 OFFCURVE",
"127 535 CURVE",
"114 541 OFFCURVE",
"95 566 OFFCURVE",
"103 602 CURVE",
"116 657 OFFCURVE",
"159 674 OFFCURVE",
"202 674 CURVE",
"246 674 OFFCURVE",
"292 636 OFFCURVE",
"292 580 CURVE",
"292 574 OFFCURVE",
"292 568 OFFCURVE",
"292 563 CURVE"
);
},
{
closed = 1;
nodes = (
"36 60 OFFCURVE",
"86 -10 OFFCURVE",
"198 -10 CURVE SMOOTH",
"311 -10 OFFCURVE",
"369 56 OFFCURVE",
"369 175 CURVE SMOOTH",
"369 334 LINE SMOOTH",
"369 372 OFFCURVE",
"369 420 OFFCURVE",
"302 444 CURVE",
"302 445 LINE",
"331 472 OFFCURVE",
"352 519 OFFCURVE",
"352 563 CURVE",
"292 563 LINE",
"284 465 OFFCURVE",
"179 420 OFFCURVE",
"146 401 CURVE",
"136 396 OFFCURVE",
"128 381 OFFCURVE",
"136 368 CURVE SMOOTH",
"144 355 OFFCURVE",
"159 353 OFFCURVE",
"172 359 CURVE SMOOTH",
"226 384 OFFCURVE",
"238 394 OFFCURVE",
"264 394 CURVE SMOOTH",
"295 394 OFFCURVE",
"309 374 OFFCURVE",
"309 334 CURVE SMOOTH",
"309 147 LINE SMOOTH",
"309 80 OFFCURVE",
"265 40 OFFCURVE",
"198 40 CURVE SMOOTH",
"133 40 OFFCURVE",
"93 85 OFFCURVE",
"90 125 CURVE",
"90 126 LINE SMOOTH",
"90 143 OFFCURVE",
"77 156 OFFCURVE",
"60 156 CURVE SMOOTH",
"43 156 OFFCURVE",
"30 143 OFFCURVE",
"30 126 CURVE SMOOTH",
"30 125 LINE"
);
}
);
width = 399;
},
{
layerId = "016D93B1-224C-4BB2-94F2-5498F6B5D728";
paths = (
{
closed = 1;
nodes = (
"352 563 LINE",
"352 570 OFFCURVE",
"352 578 OFFCURVE",
"352 585 CURVE",
"352 670 OFFCURVE",
"291 724 OFFCURVE",
"202 724 CURVE",
"113 724 OFFCURVE",
"51 664 OFFCURVE",
"43 588 CURVE",
"41 560 OFFCURVE",
"50 506 OFFCURVE",
"95 485 CURVE",
"139 465 OFFCURVE",
"163 516 OFFCURVE",
"127 535 CURVE",
"114 541 OFFCURVE",
"95 566 OFFCURVE",
"103 602 CURVE",
"116 657 OFFCURVE",
"159 674 OFFCURVE",
"202 674 CURVE",
"246 674 OFFCURVE",
"292 636 OFFCURVE",
"292 580 CURVE",
"292 574 OFFCURVE",
"292 568 OFFCURVE",
"292 563 CURVE"
);
},
{
closed = 1;
nodes = (
"36 60 OFFCURVE",
"86 -10 OFFCURVE",
"198 -10 CURVE SMOOTH",
"311 -10 OFFCURVE",
"369 56 OFFCURVE",
"369 175 CURVE SMOOTH",
"369 334 LINE SMOOTH",
"369 372 OFFCURVE",
"369 420 OFFCURVE",
"302 444 CURVE",
"302 445 LINE",
"331 472 OFFCURVE",
"352 519 OFFCURVE",
"352 563 CURVE",
"292 563 LINE",
"284 465 OFFCURVE",
"179 420 OFFCURVE",
"146 401 CURVE",
"136 396 OFFCURVE",
"128 381 OFFCURVE",
"136 368 CURVE SMOOTH",
"144 355 OFFCURVE",
"159 353 OFFCURVE",
"172 359 CURVE SMOOTH",
"226 384 OFFCURVE",
"238 394 OFFCURVE",
"264 394 CURVE SMOOTH",
"295 394 OFFCURVE",
"309 374 OFFCURVE",
"309 334 CURVE SMOOTH",
"309 147 LINE SMOOTH",
"309 80 OFFCURVE",
"265 40 OFFCURVE",
"198 40 CURVE SMOOTH",
"133 40 OFFCURVE",
"93 85 OFFCURVE",
"90 125 CURVE",
"90 126 LINE SMOOTH",
"90 143 OFFCURVE",
"77 156 OFFCURVE",
"60 156 CURVE SMOOTH",
"43 156 OFFCURVE",
"30 143 OFFCURVE",
"30 126 CURVE SMOOTH",
"30 125 LINE"
);
}
);
width = 399;
}
);
unicode = 0033;
},
{
glyphname = four;
lastChange = "2017-06-12 08:21:26 +0000";
layers = (
{
background = {
paths = (
{
closed = 1;
nodes = (
"59 60 OFFCURVE",
"109 -10 OFFCURVE",
"221 -10 CURVE SMOOTH",
"334 -10 OFFCURVE",
"392 56 OFFCURVE",
"392 175 CURVE SMOOTH",
"392 334 LINE SMOOTH",
"392 372 OFFCURVE",
"392 420 OFFCURVE",
"325 444 CURVE",
"325 445 LINE",
"354 472 OFFCURVE",
"375 519 OFFCURVE",
"375 563 CURVE",
"315 563 LINE",
"307 465 OFFCURVE",
"202 420 OFFCURVE",
"169 401 CURVE",
"159 396 OFFCURVE",
"151 381 OFFCURVE",
"159 368 CURVE SMOOTH",
"167 355 OFFCURVE",
"182 353 OFFCURVE",
"195 359 CURVE SMOOTH",
"249 384 OFFCURVE",
"261 394 OFFCURVE",
"287 394 CURVE SMOOTH",
"318 394 OFFCURVE",
"332 374 OFFCURVE",
"332 334 CURVE SMOOTH",
"332 147 LINE SMOOTH",
"332 80 OFFCURVE",
"288 40 OFFCURVE",
"221 40 CURVE SMOOTH",
"156 40 OFFCURVE",
"116 85 OFFCURVE",
"113 125 CURVE",
"113 126 LINE SMOOTH",
"113 143 OFFCURVE",
"100 156 OFFCURVE",
"83 156 CURVE SMOOTH",
"66 156 OFFCURVE",
"53 143 OFFCURVE",
"53 126 CURVE SMOOTH",
"53 125 LINE"
);
}
);
};
layerId = "016D93B1-224C-4BB2-94F2-5498F6B5D728";
paths = (
{
closed = 1;
nodes = (
"331 645 LINE SMOOTH",
"331 659 OFFCURVE",
"331 703 OFFCURVE",
"284 703 CURVE SMOOTH",
"262 703 OFFCURVE",
"245 695 OFFCURVE",
"234 679 CURVE",
"31 278 LINE SMOOTH",
"4 224 OFFCURVE",
"14 176 OFFCURVE",
"67 176 CURVE SMOOTH",
"271 176 LINE",
"271 42 LINE SMOOTH",
"271 17 OFFCURVE",
"276 0 OFFCURVE",
"301 0 CURVE SMOOTH",
"325 0 OFFCURVE",
"331 17 OFFCURVE",
"331 42 CURVE SMOOTH",
"331 176 LINE",
"358 176 LINE SMOOTH",
"381 176 OFFCURVE",
"398 183 OFFCURVE",
"398 201 CURVE SMOOTH",
"398 224 OFFCURVE",
"381 226 OFFCURVE",
"358 226 CURVE SMOOTH",
"331 226 LINE"
);
},
{
closed = 1;
nodes = (
"271 630 LINE",
"271 226 LINE",
"66 226 LINE"
);
}
);
width = 428;
},
{
background = {
paths = (
{
closed = 1;
nodes = (
"59 60 OFFCURVE",
"109 -10 OFFCURVE",
"221 -10 CURVE SMOOTH",
"334 -10 OFFCURVE",
"392 56 OFFCURVE",
"392 175 CURVE SMOOTH",
"392 334 LINE SMOOTH",
"392 372 OFFCURVE",
"392 420 OFFCURVE",
"325 444 CURVE",
"325 445 LINE",
"354 472 OFFCURVE",
"375 519 OFFCURVE",
"375 563 CURVE",
"315 563 LINE",
"307 465 OFFCURVE",
"202 420 OFFCURVE",
"169 401 CURVE",
"159 396 OFFCURVE",
"151 381 OFFCURVE",
"159 368 CURVE SMOOTH",
"167 355 OFFCURVE",
"182 353 OFFCURVE",
"195 359 CURVE SMOOTH",
"249 384 OFFCURVE",
"261 394 OFFCURVE",
"287 394 CURVE SMOOTH",
"318 394 OFFCURVE",
"332 374 OFFCURVE",
"332 334 CURVE SMOOTH",
"332 147 LINE SMOOTH",
"332 80 OFFCURVE",
"288 40 OFFCURVE",
"221 40 CURVE SMOOTH",
"156 40 OFFCURVE",
"116 85 OFFCURVE",
"113 125 CURVE",
"113 126 LINE SMOOTH",
"113 143 OFFCURVE",
"100 156 OFFCURVE",
"83 156 CURVE SMOOTH",
"66 156 OFFCURVE",
"53 143 OFFCURVE",
"53 126 CURVE SMOOTH",
"53 125 LINE"
);
}
);
};
layerId = "016D93B1-224C-4BB2-94F2-5498F6B5D728";
paths = (
{
closed = 1;
nodes = (
"331 645 LINE SMOOTH",
"331 659 OFFCURVE",
"331 703 OFFCURVE",
"284 703 CURVE SMOOTH",
"262 703 OFFCURVE",
"245 695 OFFCURVE",
"234 679 CURVE",
"31 278 LINE SMOOTH",
"4 224 OFFCURVE",
"14 176 OFFCURVE",
"67 176 CURVE SMOOTH",
"271 176 LINE",
"271 42 LINE SMOOTH",
"271 17 OFFCURVE",
"276 0 OFFCURVE",
"301 0 CURVE SMOOTH",
"325 0 OFFCURVE",
"331 17 OFFCURVE",
"331 42 CURVE SMOOTH",
"331 176 LINE",
"358 176 LINE SMOOTH",
"381 176 OFFCURVE",
"398 183 OFFCURVE",
"398 201 CURVE SMOOTH",
"398 224 OFFCURVE",
"381 226 OFFCURVE",
"358 226 CURVE SMOOTH",
"331 226 LINE"
);
},
{
closed = 1;
nodes = (
"271 630 LINE",
"271 226 LINE",
"66 226 LINE"
);
}
);
width = 428;
}
);
unicode = 0034;
},
{
glyphname = five;
lastChange = "2017-06-12 08:20:39 +0000";
layers = (
{
layerId = "016D93B1-224C-4BB2-94F2-5498F6B5D728";
paths = (
{
closed = 1;
nodes = (
"163 447 OFFCURVE",
"135 440 OFFCURVE",
"104 415 CURVE",
"146 664 LINE",
"312 664 LINE SMOOTH",
"336 664 OFFCURVE",
"355 666 OFFCURVE",
"355 690 CURVE SMOOTH",
"355 714 OFFCURVE",
"336 714 OFFCURVE",
"312 714 CURVE SMOOTH",
"144 714 LINE SMOOTH",
"112 714 OFFCURVE",
"92 694 OFFCURVE",
"87 660 CURVE SMOOTH",
"45 394 LINE SMOOTH",
"41 369 OFFCURVE",
"57 349 OFFCURVE",
"82 349 CURVE SMOOTH",
"91 349 OFFCURVE",
"98 353 OFFCURVE",
"104 360 CURVE",
"124 381 OFFCURVE",
"159 397 OFFCURVE",
"198 397 CURVE SMOOTH",
"265 397 OFFCURVE",
"309 357 OFFCURVE",
"309 290 CURVE SMOOTH",
"309 147 LINE SMOOTH",
"309 80 OFFCURVE",
"265 40 OFFCURVE",
"198 40 CURVE SMOOTH",
"133 40 OFFCURVE",
"93 85 OFFCURVE",
"90 125 CURVE",
"90 126 LINE SMOOTH",
"90 143 OFFCURVE",
"77 156 OFFCURVE",
"60 156 CURVE SMOOTH",
"43 156 OFFCURVE",
"30 143 OFFCURVE",
"30 126 CURVE SMOOTH",
"30 125 LINE",
"36 60 OFFCURVE",
"86 -10 OFFCURVE",
"198 -10 CURVE SMOOTH",
"311 -10 OFFCURVE",
"369 56 OFFCURVE",
"369 175 CURVE SMOOTH",
"369 262 LINE SMOOTH",
"369 381 OFFCURVE",
"311 447 OFFCURVE",
"198 447 CURVE SMOOTH"
);
}
);
width = 399;
},
{
layerId = "016D93B1-224C-4BB2-94F2-5498F6B5D728";
paths = (
{
closed = 1;
nodes = (
"163 447 OFFCURVE",
"135 440 OFFCURVE",
"104 415 CURVE",
"146 664 LINE",
"312 664 LINE SMOOTH",
"336 664 OFFCURVE",
"355 666 OFFCURVE",
"355 690 CURVE SMOOTH",
"355 714 OFFCURVE",
"336 714 OFFCURVE",
"312 714 CURVE SMOOTH",
"144 714 LINE SMOOTH",
"112 714 OFFCURVE",
"92 694 OFFCURVE",
"87 660 CURVE SMOOTH",
"45 394 LINE SMOOTH",
"41 369 OFFCURVE",
"57 349 OFFCURVE",
"82 349 CURVE SMOOTH",
"91 349 OFFCURVE",
"98 353 OFFCURVE",
"104 360 CURVE",
"124 381 OFFCURVE",
"159 397 OFFCURVE",
"198 397 CURVE SMOOTH",
"265 397 OFFCURVE",
"309 357 OFFCURVE",
"309 290 CURVE SMOOTH",
"309 147 LINE SMOOTH",
"309 80 OFFCURVE",
"265 40 OFFCURVE",
"198 40 CURVE SMOOTH",
"133 40 OFFCURVE",
"93 85 OFFCURVE",
"90 125 CURVE",
"90 126 LINE SMOOTH",
"90 143 OFFCURVE",
"77 156 OFFCURVE",
"60 156 CURVE SMOOTH",
"43 156 OFFCURVE",
"30 143 OFFCURVE",
"30 126 CURVE SMOOTH",
"30 125 LINE",
"36 60 OFFCURVE",
"86 -10 OFFCURVE",
"198 -10 CURVE SMOOTH",
"311 -10 OFFCURVE",
"369 56 OFFCURVE",
"369 175 CURVE SMOOTH",
"369 262 LINE SMOOTH",
"369 381 OFFCURVE",
"311 447 OFFCURVE",
"198 447 CURVE SMOOTH"
);
}
);
width = 399;
}
);
unicode = 0035;
},
{
glyphname = six;
lastChange = "2017-06-12 08:19:36 +0000";
layers = (
{
layerId = "016D93B1-224C-4BB2-94F2-5498F6B5D728";
paths = (
{
closed = 1;
nodes = (
"30 499 OFFCURVE",
"30 393 OFFCURVE",
"30 286 CURVE",
"30 239 OFFCURVE",
"31 178 OFFCURVE",
"31 151 CURVE",
"31 53 OFFCURVE",
"105 -10 OFFCURVE",
"195 -10 CURVE",
"294 -10 OFFCURVE",
"359 68 OFFCURVE",
"359 164 CURVE",
"363 260 OFFCURVE",
"304 336 OFFCURVE",
"201 336 CURVE",
"149 335 OFFCURVE",
"119 317 OFFCURVE",
"91 290 CURVE",
"90 291 LINE",
"90 292 OFFCURVE",
"90 451 OFFCURVE",
"90 580 CURVE",
"90 636 OFFCURVE",
"136 674 OFFCURVE",
"180 674 CURVE",
"223 674 OFFCURVE",
"266 657 OFFCURVE",
"279 602 CURVE",
"287 566 OFFCURVE",
"268 541 OFFCURVE",
"255 535 CURVE",
"219 516 OFFCURVE",
"243 465 OFFCURVE",
"287 485 CURVE",
"332 506 OFFCURVE",
"341 560 OFFCURVE",
"339 588 CURVE",
"331 664 OFFCURVE",
"269 724 OFFCURVE",
"180 724 CURVE",
"91 724 OFFCURVE",
"30 670 OFFCURVE",
"30 585 CURVE"
);
},
{
closed = 1;
nodes = (
"133 40 OFFCURVE",
"91 92 OFFCURVE",
"91 161 CURVE",
"91 192 OFFCURVE",
"91 204 OFFCURVE",
"91 236 CURVE",
"120 273 OFFCURVE",
"163 286 OFFCURVE",
"195 286 CURVE",
"260 286 OFFCURVE",
"299 235 OFFCURVE",
"299 164 CURVE",
"299 92 OFFCURVE",
"256 41 OFFCURVE",
"195 40 CURVE"
);
}
);
width = 389;
},
{
layerId = "016D93B1-224C-4BB2-94F2-5498F6B5D728";
paths = (
{
closed = 1;
nodes = (
"30 499 OFFCURVE",
"30 393 OFFCURVE",
"30 286 CURVE",
"30 239 OFFCURVE",
"31 178 OFFCURVE",
"31 151 CURVE",
"31 53 OFFCURVE",
"105 -10 OFFCURVE",
"195 -10 CURVE",
"294 -10 OFFCURVE",
"359 68 OFFCURVE",
"359 164 CURVE",
"363 260 OFFCURVE",
"304 336 OFFCURVE",
"201 336 CURVE",
"149 335 OFFCURVE",
"119 317 OFFCURVE",
"91 290 CURVE",
"90 291 LINE",
"90 292 OFFCURVE",
"90 451 OFFCURVE",
"90 580 CURVE",
"90 636 OFFCURVE",
"136 674 OFFCURVE",
"180 674 CURVE",
"223 674 OFFCURVE",
"266 657 OFFCURVE",
"279 602 CURVE",
"287 566 OFFCURVE",
"268 541 OFFCURVE",
"255 535 CURVE",
"219 516 OFFCURVE",
"243 465 OFFCURVE",
"287 485 CURVE",
"332 506 OFFCURVE",
"341 560 OFFCURVE",
"339 588 CURVE",
"331 664 OFFCURVE",
"269 724 OFFCURVE",
"180 724 CURVE",
"91 724 OFFCURVE",
"30 670 OFFCURVE",
"30 585 CURVE"
);
},
{
closed = 1;
nodes = (
"133 40 OFFCURVE",
"91 92 OFFCURVE",
"91 161 CURVE",
"91 192 OFFCURVE",
"91 204 OFFCURVE",
"91 236 CURVE",
"120 273 OFFCURVE",
"163 286 OFFCURVE",
"195 286 CURVE",
"260 286 OFFCURVE",
"299 235 OFFCURVE",
"299 164 CURVE",
"299 92 OFFCURVE",
"256 41 OFFCURVE",
"195 40 CURVE"
);
}
);
width = 389;
}
);
unicode = 0036;
},
{
glyphname = seven;
lastChange = "2017-06-12 08:24:53 +0000";
layers = (
{
layerId = "016D93B1-224C-4BB2-94F2-5498F6B5D728";
paths = (
{
closed = 1;
nodes = (
"59 714 OFFCURVE",
"40 714 OFFCURVE",
"40 690 CURVE SMOOTH",
"40 666 OFFCURVE",
"59 664 OFFCURVE",
"83 664 CURVE SMOOTH",
"318 664 LINE",
"91 39 LINE",
"89 35 OFFCURVE",
"76 12 OFFCURVE",
"104 2 CURVE SMOOTH",
"123 -5 OFFCURVE",
"140 10 OFFCURVE",
"145 25 CURVE SMOOTH",
"357 617 LINE SMOOTH",
"383 689 OFFCURVE",
"343 714 OFFCURVE",
"311 714 CURVE SMOOTH",
"83 714 LINE SMOOTH"
);
}
);
width = 398;
},
{
layerId = "016D93B1-224C-4BB2-94F2-5498F6B5D728";
paths = (
{
closed = 1;
nodes = (
"59 714 OFFCURVE",
"40 714 OFFCURVE",
"40 690 CURVE SMOOTH",
"40 666 OFFCURVE",
"59 664 OFFCURVE",
"83 664 CURVE SMOOTH",
"318 664 LINE",
"91 39 LINE",
"89 35 OFFCURVE",
"76 12 OFFCURVE",
"104 2 CURVE SMOOTH",
"123 -5 OFFCURVE",
"140 10 OFFCURVE",
"145 25 CURVE SMOOTH",
"357 617 LINE SMOOTH",
"383 689 OFFCURVE",
"343 714 OFFCURVE",
"311 714 CURVE SMOOTH",
"83 714 LINE SMOOTH"
);
}
);
width = 398;
}
);
unicode = 0037;
},
{
glyphname = eight;
lastChange = "2017-06-12 08:20:52 +0000";
layers = (
{
layerId = "016D93B1-224C-4BB2-94F2-5498F6B5D728";
paths = (
{
closed = 1;
nodes = (
"350 462 OFFCURVE",
"347 529 OFFCURVE",
"347 556 CURVE SMOOTH",
"347 585 OFFCURVE",
"362 725 OFFCURVE",
"198 725 CURVE SMOOTH",
"42 725 OFFCURVE",
"50 585 OFFCURVE",
"50 556 CURVE SMOOTH",
"50 529 OFFCURVE",
"46 460 OFFCURVE",
"120 423 CURVE",
"25 377 OFFCURVE",
"30 277 OFFCURVE",
"30 217 CURVE SMOOTH",
"30 129 OFFCURVE",
"23 -12 OFFCURVE",
"198 -12 CURVE SMOOTH",
"373 -12 OFFCURVE",
"367 129 OFFCURVE",
"367 217 CURVE SMOOTH",
"367 277 OFFCURVE",
"376 379 OFFCURVE",
"278 424 CURVE"
);
},
{
closed = 1;
nodes = (
"296 675 OFFCURVE",
"287 575 OFFCURVE",
"287 556 CURVE SMOOTH",
"287 535 OFFCURVE",
"295 447 OFFCURVE",
"198 447 CURVE SMOOTH",
"101 447 OFFCURVE",
"110 535 OFFCURVE",
"110 556 CURVE SMOOTH",
"110 574 OFFCURVE",
"100 675 OFFCURVE",
"198 675 CURVE SMOOTH"
);
},
{
closed = 1;
nodes = (
"81 38 OFFCURVE",
"90 146 OFFCURVE",
"90 217 CURVE SMOOTH",
"90 285 OFFCURVE",
"80 396 OFFCURVE",
"198 396 CURVE SMOOTH",
"316 396 OFFCURVE",
"307 286 OFFCURVE",
"307 217 CURVE SMOOTH",
"307 146 OFFCURVE",
"315 38 OFFCURVE",
"198 38 CURVE SMOOTH"
);
}
);
width = 397;
},
{
layerId = "016D93B1-224C-4BB2-94F2-5498F6B5D728";
paths = (
{
closed = 1;
nodes = (
"350 462 OFFCURVE",
"347 529 OFFCURVE",
"347 556 CURVE SMOOTH",
"347 585 OFFCURVE",
"362 725 OFFCURVE",
"198 725 CURVE SMOOTH",
"42 725 OFFCURVE",
"50 585 OFFCURVE",
"50 556 CURVE SMOOTH",
"50 529 OFFCURVE",
"46 460 OFFCURVE",
"120 423 CURVE",
"25 377 OFFCURVE",
"30 277 OFFCURVE",
"30 217 CURVE SMOOTH",
"30 129 OFFCURVE",
"23 -12 OFFCURVE",
"198 -12 CURVE SMOOTH",
"373 -12 OFFCURVE",
"367 129 OFFCURVE",
"367 217 CURVE SMOOTH",
"367 277 OFFCURVE",
"376 379 OFFCURVE",
"278 424 CURVE"
);
},
{
closed = 1;
nodes = (
"296 675 OFFCURVE",
"287 575 OFFCURVE",
"287 556 CURVE SMOOTH",
"287 535 OFFCURVE",
"295 447 OFFCURVE",
"198 447 CURVE SMOOTH",
"101 447 OFFCURVE",
"110 535 OFFCURVE",
"110 556 CURVE SMOOTH",
"110 574 OFFCURVE",
"100 675 OFFCURVE",
"198 675 CURVE SMOOTH"
);
},
{
closed = 1;
nodes = (
"81 38 OFFCURVE",
"90 146 OFFCURVE",
"90 217 CURVE SMOOTH",
"90 285 OFFCURVE",
"80 396 OFFCURVE",
"198 396 CURVE SMOOTH",
"316 396 OFFCURVE",
"307 286 OFFCURVE",
"307 217 CURVE SMOOTH",
"307 146 OFFCURVE",
"315 38 OFFCURVE",
"198 38 CURVE SMOOTH"
);
}
);
width = 397;
}
);
unicode = 0038;
},
{
glyphname = nine;
lastChange = "2017-06-12 08:19:36 +0000";
layers = (
{
layerId = "016D93B1-224C-4BB2-94F2-5498F6B5D728";
paths = (
{
closed = 1;
nodes = (
"359 215 OFFCURVE",
"359 321 OFFCURVE",
"359 428 CURVE",
"359 475 OFFCURVE",
"358 536 OFFCURVE",
"358 563 CURVE",
"358 661 OFFCURVE",
"284 724 OFFCURVE",
"194 724 CURVE",
"95 724 OFFCURVE",
"30 646 OFFCURVE",
"30 550 CURVE",
"26 454 OFFCURVE",
"85 378 OFFCURVE",
"188 378 CURVE",
"240 379 OFFCURVE",
"270 397 OFFCURVE",
"298 424 CURVE",
"299 423 LINE",
"299 422 OFFCURVE",
"299 263 OFFCURVE",
"299 134 CURVE",
"299 78 OFFCURVE",
"253 40 OFFCURVE",
"209 40 CURVE",
"166 40 OFFCURVE",
"123 57 OFFCURVE",
"110 112 CURVE",
"102 148 OFFCURVE",
"121 173 OFFCURVE",
"134 179 CURVE",
"170 198 OFFCURVE",
"146 249 OFFCURVE",
"102 229 CURVE",
"57 208 OFFCURVE",
"48 154 OFFCURVE",
"50 126 CURVE",
"58 50 OFFCURVE",
"120 -10 OFFCURVE",
"209 -10 CURVE",
"298 -10 OFFCURVE",
"359 44 OFFCURVE",
"359 129 CURVE"
);
},
{
closed = 1;
nodes = (
"256 674 OFFCURVE",
"298 622 OFFCURVE",
"298 553 CURVE",
"298 522 OFFCURVE",
"298 510 OFFCURVE",
"298 478 CURVE",
"269 441 OFFCURVE",
"226 428 OFFCURVE",
"194 428 CURVE",
"129 428 OFFCURVE",
"90 479 OFFCURVE",
"90 550 CURVE",
"90 622 OFFCURVE",
"133 673 OFFCURVE",
"194 674 CURVE"
);
}
);
width = 389;
},
{
layerId = "016D93B1-224C-4BB2-94F2-5498F6B5D728";
paths = (
{
closed = 1;
nodes = (
"359 215 OFFCURVE",
"359 321 OFFCURVE",
"359 428 CURVE",
"359 475 OFFCURVE",
"358 536 OFFCURVE",
"358 563 CURVE",
"358 661 OFFCURVE",
"284 724 OFFCURVE",
"194 724 CURVE",
"95 724 OFFCURVE",
"30 646 OFFCURVE",
"30 550 CURVE",
"26 454 OFFCURVE",
"85 378 OFFCURVE",
"188 378 CURVE",
"240 379 OFFCURVE",
"270 397 OFFCURVE",
"298 424 CURVE",
"299 423 LINE",
"299 422 OFFCURVE",
"299 263 OFFCURVE",
"299 134 CURVE",
"299 78 OFFCURVE",
"253 40 OFFCURVE",
"209 40 CURVE",
"166 40 OFFCURVE",
"123 57 OFFCURVE",
"110 112 CURVE",
"102 148 OFFCURVE",
"121 173 OFFCURVE",
"134 179 CURVE",
"170 198 OFFCURVE",
"146 249 OFFCURVE",
"102 229 CURVE",
"57 208 OFFCURVE",
"48 154 OFFCURVE",
"50 126 CURVE",
"58 50 OFFCURVE",
"120 -10 OFFCURVE",
"209 -10 CURVE",
"298 -10 OFFCURVE",
"359 44 OFFCURVE",
"359 129 CURVE"
);
},
{
closed = 1;
nodes = (
"256 674 OFFCURVE",
"298 622 OFFCURVE",
"298 553 CURVE",
"298 522 OFFCURVE",
"298 510 OFFCURVE",
"298 478 CURVE",
"269 441 OFFCURVE",
"226 428 OFFCURVE",
"194 428 CURVE",
"129 428 OFFCURVE",
"90 479 OFFCURVE",
"90 550 CURVE",
"90 622 OFFCURVE",
"133 673 OFFCURVE",
"194 674 CURVE"
);
}
);
width = 389;
}
);
unicode = 0039;
},
{
glyphname = colon;
lastChange = "2017-06-04 10:41:35 +0000";
layers = (
{
layerId = "016D93B1-224C-4BB2-94F2-5498F6B5D728";
paths = (
{
closed = 1;
nodes = (
"88 510 OFFCURVE",
"66 480 OFFCURVE",
"66 449 CURVE SMOOTH",
"66 417 OFFCURVE",
"82 393 OFFCURVE",
"110 393 CURVE SMOOTH",
"138 393 OFFCURVE",
"160 424 OFFCURVE",
"160 456 CURVE SMOOTH",
"160 487 OFFCURVE",
"145 510 OFFCURVE",
"117 510 CURVE SMOOTH"
);
},
{
closed = 1;
nodes = (
"88 107 OFFCURVE",
"66 77 OFFCURVE",
"66 46 CURVE SMOOTH",
"66 14 OFFCURVE",
"82 -10 OFFCURVE",
"110 -10 CURVE SMOOTH",
"138 -10 OFFCURVE",
"160 21 OFFCURVE",
"160 53 CURVE SMOOTH",
"160 84 OFFCURVE",
"145 107 OFFCURVE",
"117 107 CURVE SMOOTH"
);
}
);
width = 226;
}
);
note = colon;
unicode = 003A;
},
{
glyphname = semicolon;
lastChange = "2017-06-04 10:41:35 +0000";
layers = (
{
layerId = "016D93B1-224C-4BB2-94F2-5498F6B5D728";
paths = (
{
closed = 1;
nodes = (
"170 78 OFFCURVE",
"155 102 OFFCURVE",
"127 102 CURVE SMOOTH",
"98 102 OFFCURVE",
"76 71 OFFCURVE",
"76 44 CURVE SMOOTH",
"76 31 OFFCURVE",
"77 18 OFFCURVE",
"80 6 CURVE SMOOTH",
"83 -7 OFFCURVE",
"84 -21 OFFCURVE",
"84 -38 CURVE SMOOTH",
"84 -55 OFFCURVE",
"78 -74 OFFCURVE",
"66 -95 CURVE",
"53 -116 OFFCURVE",
"47 -129 OFFCURVE",
"47 -134 CURVE SMOOTH",
"47 -144 OFFCURVE",
"56 -153 OFFCURVE",
"67 -153 CURVE SMOOTH",
"112 -153 OFFCURVE",
"170 -42 OFFCURVE",
"170 49 CURVE SMOOTH"
);
},
{
closed = 1;
nodes = (
"99 510 OFFCURVE",
"77 480 OFFCURVE",
"77 449 CURVE SMOOTH",
"77 417 OFFCURVE",
"93 393 OFFCURVE",
"121 393 CURVE SMOOTH",
"149 393 OFFCURVE",
"171 424 OFFCURVE",
"171 456 CURVE SMOOTH",
"171 487 OFFCURVE",
"156 510 OFFCURVE",
"128 510 CURVE SMOOTH"
);
}
);
width = 242;
}
);
note = semicolon;
unicode = 003B;
},
{
glyphname = less;
lastChange = "2017-06-04 10:41:35 +0000";
layers = (
{
layerId = "016D93B1-224C-4BB2-94F2-5498F6B5D728";
paths = (
{
closed = 1;
nodes = (
"91 237 OFFCURVE",
"103 230 OFFCURVE",
"116 224 CURVE SMOOTH",
"129 218 OFFCURVE",
"152 207 OFFCURVE",
"187 191 CURVE SMOOTH",
"222 174 OFFCURVE",
"275 147 OFFCURVE",
"348 108 CURVE",
"359 101 OFFCURVE",
"371 95 OFFCURVE",
"384 89 CURVE SMOOTH",
"409 77 OFFCURVE",
"424 72 OFFCURVE",
"440 72 CURVE SMOOTH",
"456 72 OFFCURVE",
"473 88 OFFCURVE",
"473 113 CURVE SMOOTH",
"473 137 OFFCURVE",
"428 156 OFFCURVE",
"403 167 CURVE",
"390 172 OFFCURVE",
"371 181 OFFCURVE",
"346 192 CURVE SMOOTH",
"216 249 OFFCURVE",
"151 283 OFFCURVE",
"151 294 CURVE SMOOTH",
"151 303 OFFCURVE",
"174 316 OFFCURVE",
"186 322 CURVE",
"197 328 OFFCURVE",
"218 339 OFFCURVE",
"230 344 CURVE",
"236 347 OFFCURVE",
"244 350 OFFCURVE",
"254 355 CURVE SMOOTH",
"264 360 OFFCURVE",
"279 367 OFFCURVE",
"299 376 CURVE SMOOTH",
"318 385 OFFCURVE",
"353 400 OFFCURVE",
"402 420 CURVE SMOOTH",
"415 425 OFFCURVE",
"428 431 OFFCURVE",
"440 437 CURVE SMOOTH",
"464 449 OFFCURVE",
"472 459 OFFCURVE",
"472 477 CURVE SMOOTH",
"472 495 OFFCURVE",
"456 509 OFFCURVE",
"435 509 CURVE SMOOTH",
"414 509 OFFCURVE",
"377 491 OFFCURVE",
"357 480 CURVE",
"347 475 OFFCURVE",
"331 466 OFFCURVE",
"308 455 CURVE SMOOTH",
"285 443 OFFCURVE",
"264 432 OFFCURVE",
"246 423 CURVE SMOOTH",
"227 414 OFFCURVE",
"208 404 OFFCURVE",
"188 395 CURVE",
"148 375 OFFCURVE",
"131 367 OFFCURVE",
"106 355 CURVE SMOOTH",
"81 342 OFFCURVE",
"71 336 OFFCURVE",
"60 325 CURVE",
"48 314 OFFCURVE",
"45 307 OFFCURVE",
"45 291 CURVE SMOOTH",
"45 275 OFFCURVE",
"53 261 OFFCURVE",
"78 245 CURVE SMOOTH"
);
}
);
width = 543;
}
);
note = less;
unicode = 003C;
},
{
glyphname = equal;
lastChange = "2017-06-04 10:41:35 +0000";
layers = (
{
layerId = "016D93B1-224C-4BB2-94F2-5498F6B5D728";
paths = (
{
closed = 1;
nodes = (
"178 365 OFFCURVE",
"119 366 OFFCURVE",
"119 366 CURVE SMOOTH",
"95 366 OFFCURVE",
"78 353 OFFCURVE",
"78 333 CURVE SMOOTH",
"78 313 OFFCURVE",
"95 300 OFFCURVE",
"119 300 CURVE SMOOTH",
"296 303 LINE",
"473 300 LINE SMOOTH",
"497 300 OFFCURVE",
"514 313 OFFCURVE",
"514 333 CURVE SMOOTH",
"514 353 OFFCURVE",
"497 366 OFFCURVE",
"473 366 CURVE SMOOTH",
"296 363 LINE SMOOTH"
);
},
{
closed = 1;
nodes = (
"95 222 OFFCURVE",
"78 209 OFFCURVE",
"78 189 CURVE SMOOTH",
"78 169 OFFCURVE",
"95 156 OFFCURVE",
"119 156 CURVE SMOOTH",
"296 159 LINE",
"473 156 LINE SMOOTH",
"497 156 OFFCURVE",
"514 169 OFFCURVE",
"514 189 CURVE SMOOTH",
"514 209 OFFCURVE",
"497 222 OFFCURVE",
"473 222 CURVE SMOOTH",
"296 219 LINE",
"119 222 LINE SMOOTH"
);
}
);
width = 592;
}
);
note = equal;
unicode = 003D;
},
{
glyphname = greater;
lastChange = "2017-06-04 10:41:35 +0000";
layers = (
{
layerId = "016D93B1-224C-4BB2-94F2-5498F6B5D728";
paths = (
{
closed = 1;
nodes = (
"472 336 OFFCURVE",
"462 342 OFFCURVE",
"437 355 CURVE SMOOTH",
"412 367 OFFCURVE",
"395 375 OFFCURVE",
"355 395 CURVE",
"335 404 OFFCURVE",
"316 414 OFFCURVE",
"298 423 CURVE SMOOTH",
"279 432 OFFCURVE",
"259 443 OFFCURVE",
"236 455 CURVE SMOOTH",
"213 466 OFFCURVE",
"196 475 OFFCURVE",
"186 480 CURVE SMOOTH",
"176 485 OFFCURVE",
"165 491 OFFCURVE",
"153 496 CURVE",
"129 507 OFFCURVE",
"118 509 OFFCURVE",
"103 509 CURVE SMOOTH",
"88 509 OFFCURVE",
"71 495 OFFCURVE",
"71 477 CURVE SMOOTH",
"71 468 OFFCURVE",
"73 460 OFFCURVE",
"78 455 CURVE",
"87 443 OFFCURVE",
"114 431 OFFCURVE",
"141 420 CURVE SMOOTH",
"168 409 OFFCURVE",
"228 385 OFFCURVE",
"257 370 CURVE SMOOTH",
"271 363 OFFCURVE",
"290 354 OFFCURVE",
"313 344 CURVE",
"319 341 OFFCURVE",
"327 338 OFFCURVE",
"336 333 CURVE SMOOTH",
"373 314 OFFCURVE",
"392 301 OFFCURVE",
"392 294 CURVE SMOOTH",
"392 277 OFFCURVE",
"205 195 OFFCURVE",
"140 167 CURVE",
"127 162 OFFCURVE",
"115 156 OFFCURVE",
"103 149 CURVE",
"78 136 OFFCURVE",
"70 127 OFFCURVE",
"70 108 CURVE SMOOTH",
"70 89 OFFCURVE",
"86 72 OFFCURVE",
"107 72 CURVE SMOOTH",
"128 72 OFFCURVE",
"172 95 OFFCURVE",
"196 108 CURVE SMOOTH",
"207 114 OFFCURVE",
"223 123 OFFCURVE",
"244 134 CURVE SMOOTH",
"285 156 OFFCURVE",
"318 173 OFFCURVE",
"370 197 CURVE SMOOTH",
"421 221 OFFCURVE",
"440 229 OFFCURVE",
"465 245 CURVE SMOOTH",
"490 261 OFFCURVE",
"498 275 OFFCURVE",
"498 291 CURVE SMOOTH",
"498 307 OFFCURVE",
"495 314 OFFCURVE",
"484 325 CURVE"
);
}
);
width = 543;
}
);
note = greater;
unicode = 003E;
},
{
glyphname = question;
lastChange = "2017-06-04 10:41:35 +0000";
layers = (
{
layerId = "016D93B1-224C-4BB2-94F2-5498F6B5D728";
paths = (
{
closed = 1;
nodes = (
"380 479 OFFCURVE",
"401 527 OFFCURVE",
"401 579 CURVE SMOOTH",
"401 683 OFFCURVE",
"326 760 OFFCURVE",
"215 760 CURVE SMOOTH",
"131 760 OFFCURVE",
"49 699 OFFCURVE",
"49 652 CURVE SMOOTH",
"49 635 OFFCURVE",
"60 620 OFFCURVE",
"83 620 CURVE SMOOTH",
"94 620 OFFCURVE",
"109 633 OFFCURVE",
"128 658 CURVE SMOOTH",
"143 677 OFFCURVE",
"175 696 OFFCURVE",
"224 696 CURVE SMOOTH",
"272 696 OFFCURVE",
"329 645 OFFCURVE",
"329 581 CURVE SMOOTH",
"329 540 OFFCURVE",
"308 499 OFFCURVE",
"267 456 CURVE SMOOTH",
"250 439 OFFCURVE",
"232 421 OFFCURVE",
"215 402 CURVE SMOOTH",
"174 357 OFFCURVE",
"153 310 OFFCURVE",
"153 259 CURVE SMOOTH",
"153 222 OFFCURVE",
"165 203 OFFCURVE",
"190 203 CURVE SMOOTH",
"213 203 OFFCURVE",
"225 223 OFFCURVE",
"225 262 CURVE SMOOTH",
"225 301 OFFCURVE",
"246 341 OFFCURVE",
"287 382 CURVE SMOOTH",
"304 399 OFFCURVE",
"322 417 OFFCURVE",
"339 436 CURVE SMOOTH"
);
},
{
closed = 1;
nodes = (
"165 100 OFFCURVE",
"143 70 OFFCURVE",
"143 40 CURVE SMOOTH",
"143 10 OFFCURVE",
"158 -15 OFFCURVE",
"186 -15 CURVE SMOOTH",
"213 -15 OFFCURVE",
"235 15 OFFCURVE",
"235 47 CURVE SMOOTH",
"235 78 OFFCURVE",
"220 100 OFFCURVE",
"193 100 CURVE SMOOTH"
);
}
);
width = 451;
}
);
note = question;
unicode = 003F;
},
{
glyphname = at;
lastChange = "2017-06-04 10:41:35 +0000";
layers = (
{
layerId = "016D93B1-224C-4BB2-94F2-5498F6B5D728";
paths = (
{
closed = 1;
nodes = (
"710 459 OFFCURVE",
"697 482 OFFCURVE",
"671 482 CURVE SMOOTH",
"648 482 OFFCURVE",
"634 467 OFFCURVE",
"629 437 CURVE",
"587 467 OFFCURVE",
"546 482 OFFCURVE",
"505 482 CURVE SMOOTH",
"376 482 OFFCURVE",
"285 363 OFFCURVE",
"285 226 CURVE SMOOTH",
"285 143 OFFCURVE",
"310 78 OFFCURVE",
"359 31 CURVE SMOOTH",
"387 4 OFFCURVE",
"422 -9 OFFCURVE",
"463 -9 CURVE SMOOTH",
"545 -9 OFFCURVE",
"604 45 OFFCURVE",
"636 117 CURVE",
"649 33 OFFCURVE",
"692 -9 OFFCURVE",
"767 -9 CURVE SMOOTH",
"871 -9 OFFCURVE",
"954 108 OFFCURVE",
"954 267 CURVE SMOOTH",
"954 540 OFFCURVE",
"767 710 OFFCURVE",
"508 710 CURVE SMOOTH",
"423 710 OFFCURVE",
"347 688 OFFCURVE",
"278 644 CURVE SMOOTH",
"140 555 OFFCURVE",
"59 395 OFFCURVE",
"59 218 CURVE SMOOTH",
"59 -45 OFFCURVE",
"229 -230 OFFCURVE",
"449 -230 CURVE SMOOTH",
"488 -230 OFFCURVE",
"526 -225 OFFCURVE",
"562 -216 CURVE SMOOTH",
"634 -198 OFFCURVE",
"678 -172 OFFCURVE",
"706 -147 CURVE",
"719 -134 OFFCURVE",
"726 -124 OFFCURVE",
"726 -115 CURVE SMOOTH",
"726 -98 OFFCURVE",
"714 -85 OFFCURVE",
"700 -85 CURVE SMOOTH",
"686 -85 OFFCURVE",
"655 -105 OFFCURVE",
"623 -124 CURVE SMOOTH",
"591 -144 OFFCURVE",
"526 -164 OFFCURVE",
"454 -164 CURVE SMOOTH",
"281 -164 OFFCURVE",
"134 -8 OFFCURVE",
"134 222 CURVE SMOOTH",
"134 452 OFFCURVE",
"302 644 OFFCURVE",
"507 644 CURVE SMOOTH",
"574 644 OFFCURVE",
"635 630 OFFCURVE",
"691 602 CURVE SMOOTH",
"802 546 OFFCURVE",
"879 425 OFFCURVE",
"879 274 CURVE SMOOTH",
"879 198 OFFCURVE",
"868 143 OFFCURVE",
"845 109 CURVE SMOOTH",
"822 75 OFFCURVE",
"795 58 OFFCURVE",
"766 58 CURVE SMOOTH",
"715 58 OFFCURVE",
"690 105 OFFCURVE",
"690 199 CURVE SMOOTH",
"690 243 LINE",
"703 346 OFFCURVE",
"710 403 OFFCURVE",
"710 413 CURVE SMOOTH"
);
},
{
closed = 1;
nodes = (
"597 125 OFFCURVE",
"536 54 OFFCURVE",
"466 54 CURVE SMOOTH",
"396 54 OFFCURVE",
"355 134 OFFCURVE",
"355 234 CURVE SMOOTH",
"355 334 OFFCURVE",
"423 416 OFFCURVE",
"511 416 CURVE SMOOTH",
"555 416 OFFCURVE",
"595 399 OFFCURVE",
"630 365 CURVE",
"630 216 LINE"
);
}
);
width = 1003;
}
);
note = at;
unicode = 0040;
},
{
glyphname = A;
lastChange = "2017-06-04 10:41:35 +0000";
layers = (
{
layerId = "016D93B1-224C-4BB2-94F2-5498F6B5D728";
paths = (
{
closed = 1;
nodes = (
"486 387 OFFCURVE",
"452 488 OFFCURVE",
"408 622 CURVE SMOOTH",
"394 665 OFFCURVE",
"384 694 OFFCURVE",
"378 709 CURVE SMOOTH",
"366 739 OFFCURVE",
"350 760 OFFCURVE",
"317 760 CURVE SMOOTH",
"292 760 OFFCURVE",
"273 740 OFFCURVE",
"259 700 CURVE SMOOTH",
"174 450 OFFCURVE",
"130 322 OFFCURVE",
"128 317 CURVE",
"116 318 OFFCURVE",
"102 318 OFFCURVE",
"87 318 CURVE SMOOTH",
"55 318 OFFCURVE",
"39 306 OFFCURVE",
"39 281 CURVE SMOOTH",
"39 256 OFFCURVE",
"55 244 OFFCURVE",
"87 244 CURVE SMOOTH",
"105 244 LINE",
"98 220 OFFCURVE",
"88 190 OFFCURVE",
"76 154 CURVE SMOOTH",
"63 118 OFFCURVE",
"54 90 OFFCURVE",
"48 70 CURVE SMOOTH",
"42 49 OFFCURVE",
"39 34 OFFCURVE",
"39 25 CURVE SMOOTH",
"39 5 OFFCURVE",
"52 -10 OFFCURVE",
"72 -10 CURVE SMOOTH",
"89 -10 OFFCURVE",
"102 2 OFFCURVE",
"111 27 CURVE",
"114 34 OFFCURVE",
"136 107 OFFCURVE",
"177 246 CURVE",
"220 248 OFFCURVE",
"258 249 OFFCURVE",
"289 249 CURVE SMOOTH",
"320 249 OFFCURVE",
"376 248 OFFCURVE",
"456 246 CURVE",
"466 215 OFFCURVE",
"478 176 OFFCURVE",
"492 131 CURVE SMOOTH",
"505 86 OFFCURVE",
"517 50 OFFCURVE",
"526 25 CURVE",
"536 2 OFFCURVE",
"551 -10 OFFCURVE",
"570 -10 CURVE SMOOTH",
"591 -10 OFFCURVE",
"604 7 OFFCURVE",
"604 26 CURVE SMOOTH",
"604 35 OFFCURVE",
"595 64 OFFCURVE",
"578 112 CURVE SMOOTH",
"569 135 OFFCURVE",
"563 155 OFFCURVE",
"558 170 CURVE SMOOTH",
"553 185 OFFCURVE",
"545 209 OFFCURVE",
"534 242 CURVE",
"581 242 OFFCURVE",
"604 255 OFFCURVE",
"604 280 CURVE SMOOTH",
"604 303 OFFCURVE",
"583 319 OFFCURVE",
"554 319 CURVE SMOOTH",
"510 318 LINE"
);
},
{
closed = 1;
nodes = (
"279 563 OFFCURVE",
"310 646 OFFCURVE",
"319 646 CURVE SMOOTH",
"327 646 OFFCURVE",
"365 536 OFFCURVE",
"434 315 CURVE",
"399 313 OFFCURVE",
"361 312 OFFCURVE",
"319 312 CURVE SMOOTH",
"276 312 OFFCURVE",
"236 313 OFFCURVE",
"199 315 CURVE",
"226 398 LINE SMOOTH"
);
}
);
width = 642;
}
);
note = A;
unicode = 0041;
},
{
glyphname = B;
lastChange = "2017-06-04 10:41:35 +0000";
layers = (
{
layerId = "016D93B1-224C-4BB2-94F2-5498F6B5D728";
paths = (
{
closed = 1;
nodes = (
"101 88 OFFCURVE",
"93 90 OFFCURVE",
"84 90 CURVE SMOOTH",
"67 90 OFFCURVE",
"56 78 OFFCURVE",
"56 62 CURVE SMOOTH",
"56 39 OFFCURVE",
"78 21 OFFCURVE",
"122 7 CURVE SMOOTH",
"165 -8 OFFCURVE",
"221 -15 OFFCURVE",
"288 -15 CURVE SMOOTH",
"481 -15 OFFCURVE",
"607 65 OFFCURVE",
"607 206 CURVE SMOOTH",
"607 298 OFFCURVE",
"539 381 OFFCURVE",
"444 408 CURVE",
"516 446 OFFCURVE",
"552 504 OFFCURVE",
"552 581 CURVE SMOOTH",
"552 624 OFFCURVE",
"532 664 OFFCURVE",
"492 701 CURVE SMOOTH",
"451 738 OFFCURVE",
"375 765 OFFCURVE",
"293 765 CURVE SMOOTH",
"252 765 OFFCURVE",
"205 759 OFFCURVE",
"154 746 CURVE SMOOTH",
"105 733 OFFCURVE",
"65 706 OFFCURVE",
"65 677 CURVE SMOOTH",
"65 655 OFFCURVE",
"75 644 OFFCURVE",
"95 644 CURVE SMOOTH",
"98 644 OFFCURVE",
"103 645 OFFCURVE",
"111 646 CURVE",
"111 637 OFFCURVE",
"111 598 OFFCURVE",
"112 529 CURVE SMOOTH",
"113 459 OFFCURVE",
"113 405 OFFCURVE",
"113 368 CURVE SMOOTH",
"110 83 LINE"
);
},
{
closed = 1;
nodes = (
"252 52 OFFCURVE",
"220 55 OFFCURVE",
"189 61 CURVE",
"186 112 OFFCURVE",
"185 211 OFFCURVE",
"185 358 CURVE",
"204 353 OFFCURVE",
"224 351 OFFCURVE",
"245 351 CURVE SMOOTH",
"266 351 OFFCURVE",
"305 356 OFFCURVE",
"363 366 CURVE",
"443 353 OFFCURVE",
"528 296 OFFCURVE",
"528 212 CURVE SMOOTH",
"528 109 OFFCURVE",
"433 52 OFFCURVE",
"285 52 CURVE SMOOTH"
);
},
{
closed = 1;
nodes = (
"417 697 OFFCURVE",
"479 640 OFFCURVE",
"479 580 CURVE SMOOTH",
"479 549 OFFCURVE",
"470 522 OFFCURVE",
"452 499 CURVE SMOOTH",
"416 452 OFFCURVE",
"373 435 OFFCURVE",
"345 434 CURVE",
"317 439 OFFCURVE",
"287 442 OFFCURVE",
"254 442 CURVE SMOOTH",
"221 442 OFFCURVE",
"198 439 OFFCURVE",
"185 432 CURVE",
"185 564 OFFCURVE",
"186 648 OFFCURVE",
"188 683 CURVE",
"223 692 OFFCURVE",
"256 697 OFFCURVE",
"285 697 CURVE SMOOTH"
);
}
);
width = 655;
}
);
note = B;
unicode = 0042;
},
{
glyphname = C;
lastChange = "2017-06-04 10:41:35 +0000";
layers = (
{
layerId = "016D93B1-224C-4BB2-94F2-5498F6B5D728";
paths = (
{
closed = 1;
nodes = (
"620 112 OFFCURVE",
"611 121 OFFCURVE",
"593 121 CURVE SMOOTH",
"587 121 OFFCURVE",
"578 118 OFFCURVE",
"567 111 CURVE SMOOTH",
"556 104 OFFCURVE",
"543 96 OFFCURVE",
"530 88 CURVE SMOOTH",
"503 72 OFFCURVE",
"447 55 OFFCURVE",
"382 55 CURVE SMOOTH",
"241 55 OFFCURVE",
"138 206 OFFCURVE",
"138 378 CURVE SMOOTH",
"138 549 OFFCURVE",
"240 695 OFFCURVE",
"383 695 CURVE SMOOTH",
"448 695 OFFCURVE",
"494 667 OFFCURVE",
"524 646 CURVE SMOOTH",
"539 635 OFFCURVE",
"552 630 OFFCURVE",
"563 630 CURVE SMOOTH",
"585 630 OFFCURVE",
"598 643 OFFCURVE",
"598 664 CURVE SMOOTH",
"598 716 OFFCURVE",
"494 765 OFFCURVE",
"383 765 CURVE SMOOTH",
"196 765 OFFCURVE",
"57 594 OFFCURVE",
"57 376 CURVE SMOOTH",
"57 158 OFFCURVE",
"194 -15 OFFCURVE",
"381 -15 CURVE SMOOTH",
"509 -15 OFFCURVE",
"620 52 OFFCURVE",
"620 95 CURVE SMOOTH"
);
}
);
width = 658;
}
);
note = C;
unicode = 0043;
},
{
glyphname = D;
lastChange = "2017-06-04 10:41:35 +0000";
layers = (
{
layerId = "016D93B1-224C-4BB2-94F2-5498F6B5D728";
paths = (
{
closed = 1;
nodes = (
"102 88 OFFCURVE",
"94 90 OFFCURVE",
"85 90 CURVE SMOOTH",
"68 90 OFFCURVE",
"57 78 OFFCURVE",
"57 62 CURVE SMOOTH",
"57 39 OFFCURVE",
"78 21 OFFCURVE",
"120 7 CURVE SMOOTH",
"161 -8 OFFCURVE",
"213 -15 OFFCURVE",
"276 -15 CURVE SMOOTH",
"400 -15 OFFCURVE",
"499 32 OFFCURVE",
"559 104 CURVE SMOOTH",
"621 177 OFFCURVE",
"652 264 OFFCURVE",
"652 364 CURVE SMOOTH",
"652 468 OFFCURVE",
"620 559 OFFCURVE",
"556 636 CURVE SMOOTH",
"493 711 OFFCURVE",
"387 760 OFFCURVE",
"276 760 CURVE SMOOTH",
"221 760 OFFCURVE",
"171 754 OFFCURVE",
"127 743 CURVE SMOOTH",
"83 732 OFFCURVE",
"61 715 OFFCURVE",
"61 692 CURVE SMOOTH",
"61 667 OFFCURVE",
"77 654 OFFCURVE",
"109 654 CURVE",
"114 368 LINE",
"111 83 LINE"
);
},
{
closed = 1;
nodes = (
"549 528 OFFCURVE",
"574 454 OFFCURVE",
"574 368 CURVE SMOOTH",
"574 195 OFFCURVE",
"465 56 OFFCURVE",
"276 56 CURVE SMOOTH",
"236 56 OFFCURVE",
"208 58 OFFCURVE",
"192 61 CURVE",
"188 141 OFFCURVE",
"186 251 OFFCURVE",
"186 392 CURVE SMOOTH",
"186 532 OFFCURVE",
"188 628 OFFCURVE",
"191 679 CURVE",
"216 685 OFFCURVE",
"241 688 OFFCURVE",
"266 688 CURVE SMOOTH",
"366 688 OFFCURVE",
"449 649 OFFCURVE",
"498 589 CURVE SMOOTH"
);
}
);
width = 709;
}
);
note = D;
unicode = 0044;
},
{
glyphname = E;
lastChange = "2017-06-04 10:41:35 +0000";
layers = (
{
layerId = "016D93B1-224C-4BB2-94F2-5498F6B5D728";
paths = (
{
closed = 1;
nodes = (
"284 66 OFFCURVE",
"238 67 OFFCURVE",
"191 70 CURVE",
"188 101 OFFCURVE",
"186 167 OFFCURVE",
"186 266 CURVE SMOOTH",
"186 365 LINE",
"214 366 OFFCURVE",
"237 367 OFFCURVE",
"256 367 CURVE SMOOTH",
"436 362 LINE SMOOTH",
"469 362 OFFCURVE",
"486 374 OFFCURVE",
"486 399 CURVE SMOOTH",
"486 423 OFFCURVE",
"467 438 OFFCURVE",
"436 438 CURVE SMOOTH",
"256 433 LINE SMOOTH",
"239 433 OFFCURVE",
"215 434 OFFCURVE",
"186 435 CURVE",
"186 511 OFFCURVE",
"188 593 OFFCURVE",
"191 680 CURVE",
"215 683 OFFCURVE",
"265 684 OFFCURVE",
"341 684 CURVE SMOOTH",
"491 679 LINE SMOOTH",
"524 679 OFFCURVE",
"541 692 OFFCURVE",
"541 717 CURVE SMOOTH",
"541 742 OFFCURVE",
"524 755 OFFCURVE",
"491 755 CURVE SMOOTH",
"341 750 LINE",
"148 755 LINE SMOOTH",
"113 755 OFFCURVE",
"95 742 OFFCURVE",
"95 717 CURVE SMOOTH",
"95 704 OFFCURVE",
"99 691 OFFCURVE",
"107 680 CURVE",
"110 652 OFFCURVE",
"113 571 OFFCURVE",
"114 437 CURVE",
"108 438 OFFCURVE",
"100 438 OFFCURVE",
"89 438 CURVE SMOOTH",
"67 438 OFFCURVE",
"46 422 OFFCURVE",
"46 399 CURVE SMOOTH",
"46 374 OFFCURVE",
"62 362 OFFCURVE",
"94 362 CURVE SMOOTH",
"101 362 OFFCURVE",
"108 362 OFFCURVE",
"114 363 CURVE",
"114 277 OFFCURVE",
"113 206 OFFCURVE",
"112 151 CURVE SMOOTH",
"110 96 OFFCURVE",
"109 56 OFFCURVE",
"109 33 CURVE SMOOTH",
"109 8 OFFCURVE",
"124 -5 OFFCURVE",
"154 -5 CURVE SMOOTH",
"271 -2 OFFCURVE",
"329 0 OFFCURVE",
"329 0 CURVE",
"491 -5 LINE SMOOTH",
"524 -5 OFFCURVE",
"541 8 OFFCURVE",
"541 33 CURVE SMOOTH",
"541 58 OFFCURVE",
"524 71 OFFCURVE",
"491 71 CURVE SMOOTH",
"329 66 LINE SMOOTH"
);
}
);
width = 588;
}
);
note = E;
unicode = 0045;
},
{
glyphname = F;
lastChange = "2017-06-04 10:41:35 +0000";
layers = (
{
layerId = "016D93B1-224C-4BB2-94F2-5498F6B5D728";
paths = (
{
closed = 1;
nodes = (
"238 433 OFFCURVE",
"214 434 OFFCURVE",
"185 435 CURVE",
"185 511 OFFCURVE",
"187 593 OFFCURVE",
"190 680 CURVE",
"214 683 OFFCURVE",
"264 684 OFFCURVE",
"340 684 CURVE SMOOTH",
"486 679 LINE SMOOTH",
"522 679 OFFCURVE",
"540 692 OFFCURVE",
"540 717 CURVE SMOOTH",
"540 742 OFFCURVE",
"522 755 OFFCURVE",
"486 755 CURVE SMOOTH",
"340 750 LINE",
"150 755 LINE SMOOTH",
"113 755 OFFCURVE",
"94 742 OFFCURVE",
"94 717 CURVE SMOOTH",
"94 704 OFFCURVE",
"98 691 OFFCURVE",
"106 680 CURVE",
"109 652 OFFCURVE",
"112 571 OFFCURVE",
"113 437 CURVE",
"107 438 OFFCURVE",
"99 438 OFFCURVE",
"88 438 CURVE SMOOTH",
"66 438 OFFCURVE",
"45 422 OFFCURVE",
"45 399 CURVE SMOOTH",
"45 374 OFFCURVE",
"61 362 OFFCURVE",
"93 362 CURVE SMOOTH",
"100 362 OFFCURVE",
"107 362 OFFCURVE",
"113 363 CURVE",
"113 310 OFFCURVE",
"112 250 OFFCURVE",
"111 185 CURVE SMOOTH",
"109 120 OFFCURVE",
"108 74 OFFCURVE",
"108 48 CURVE SMOOTH",
"108 9 OFFCURVE",
"122 -10 OFFCURVE",
"149 -10 CURVE SMOOTH",
"176 -10 OFFCURVE",
"190 9 OFFCURVE",
"190 48 CURVE",
"185 365 LINE",
"213 366 OFFCURVE",
"236 367 OFFCURVE",
"255 367 CURVE SMOOTH",
"424 362 LINE SMOOTH",
"455 362 OFFCURVE",
"475 376 OFFCURVE",
"475 399 CURVE SMOOTH",
"475 422 OFFCURVE",
"455 438 OFFCURVE",
"424 438 CURVE SMOOTH",
"255 433 LINE SMOOTH"
);
}
);
width = 566;
}
);
note = F;
unicode = 0046;
},
{
glyphname = G;
lastChange = "2017-06-04 10:41:35 +0000";
layers = (
{
layerId = "016D93B1-224C-4BB2-94F2-5498F6B5D728";
paths = (
{
closed = 1;
nodes = (
"336 395 OFFCURVE",
"317 380 OFFCURVE",
"317 356 CURVE SMOOTH",
"317 331 OFFCURVE",
"333 319 OFFCURVE",
"365 319 CURVE",
"497 324 LINE",
"528 324 OFFCURVE",
"560 323 OFFCURVE",
"593 320 CURVE",
"590 152 OFFCURVE",
"502 55 OFFCURVE",
"382 55 CURVE SMOOTH",
"241 55 OFFCURVE",
"138 206 OFFCURVE",
"138 378 CURVE SMOOTH",
"138 549 OFFCURVE",
"245 695 OFFCURVE",
"393 695 CURVE SMOOTH",
"449 695 OFFCURVE",
"497 677 OFFCURVE",
"521 658 CURVE",
"544 638 OFFCURVE",
"572 620 OFFCURVE",
"593 620 CURVE SMOOTH",
"614 620 OFFCURVE",
"628 633 OFFCURVE",
"628 654 CURVE SMOOTH",
"628 709 OFFCURVE",
"513 765 OFFCURVE",
"393 765 CURVE SMOOTH",
"200 765 OFFCURVE",
"57 594 OFFCURVE",
"57 376 CURVE SMOOTH",
"57 158 OFFCURVE",
"197 -16 OFFCURVE",
"377 -16 CURVE SMOOTH",
"556 -16 OFFCURVE",
"677 127 OFFCURVE",
"677 352 CURVE SMOOTH",
"677 381 OFFCURVE",
"660 396 OFFCURVE",
"626 396 CURVE SMOOTH",
"623 396 OFFCURVE",
"606 395 OFFCURVE",
"576 393 CURVE SMOOTH",
"546 391 OFFCURVE",
"520 390 OFFCURVE",
"497 390 CURVE",
"365 395 LINE"
);
}
);
width = 722;
}
);
note = G;
unicode = 0047;
},
{
glyphname = H;
lastChange = "2017-06-04 10:41:35 +0000";
layers = (
{
layerId = "016D93B1-224C-4BB2-94F2-5498F6B5D728";
paths = (
{
closed = 1;
nodes = (
"612 738 OFFCURVE",
"594 760 OFFCURVE",
"571 760 CURVE SMOOTH",
"548 760 OFFCURVE",
"530 738 OFFCURVE",
"530 709 CURVE SMOOTH",
"535 433 LINE",
"486 431 OFFCURVE",
"432 430 OFFCURVE",
"372 430 CURVE SMOOTH",
"312 430 OFFCURVE",
"249 431 OFFCURVE",
"182 432 CURVE",
"187 709 LINE SMOOTH",
"187 738 OFFCURVE",
"169 760 OFFCURVE",
"146 760 CURVE SMOOTH",
"123 760 OFFCURVE",
"105 738 OFFCURVE",
"105 709 CURVE SMOOTH",
"110 435 LINE",
"92 435 LINE SMOOTH",
"63 435 OFFCURVE",
"44 420 OFFCURVE",
"44 396 CURVE SMOOTH",
"44 371 OFFCURVE",
"60 359 OFFCURVE",
"92 359 CURVE SMOOTH",
"110 359 LINE",
"110 251 OFFCURVE",
"109 163 OFFCURVE",
"106 94 CURVE SMOOTH",
"105 64 OFFCURVE",
"105 44 OFFCURVE",
"105 34 CURVE SMOOTH",
"105 14 OFFCURVE",
"123 -10 OFFCURVE",
"146 -10 CURVE SMOOTH",
"169 -10 OFFCURVE",
"187 14 OFFCURVE",
"187 34 CURVE SMOOTH",
"187 44 OFFCURVE",
"186 74 OFFCURVE",
"185 124 CURVE SMOOTH",
"183 174 OFFCURVE",
"182 253 OFFCURVE",
"182 361 CURVE",
"232 363 OFFCURVE",
"279 364 OFFCURVE",
"323 364 CURVE SMOOTH",
"366 364 OFFCURVE",
"437 363 OFFCURVE",
"535 361 CURVE",
"530 41 LINE SMOOTH",
"530 12 OFFCURVE",
"548 -10 OFFCURVE",
"571 -10 CURVE SMOOTH",
"594 -10 OFFCURVE",
"612 12 OFFCURVE",
"612 41 CURVE",
"607 358 LINE",
"623 358 LINE SMOOTH",
"654 358 OFFCURVE",
"674 373 OFFCURVE",
"674 396 CURVE SMOOTH",
"674 419 OFFCURVE",
"652 436 OFFCURVE",
"623 436 CURVE SMOOTH",
"607 436 LINE",
"612 709 LINE SMOOTH"
);
}
);
width = 718;
}
);
note = H;
unicode = 0048;
},
{
glyphname = I;
lastChange = "2017-06-04 10:41:35 +0000";
layers = (
{
layerId = "016D93B1-224C-4BB2-94F2-5498F6B5D728";
paths = (
{
closed = 1;
nodes = (
"257 216 OFFCURVE",
"255 318 OFFCURVE",
"255 372 CURVE SMOOTH",
"255 426 OFFCURVE",
"257 530 OFFCURVE",
"260 683 CURVE",
"313 680 OFFCURVE",
"345 678 OFFCURVE",
"356 678 CURVE SMOOTH",
"376 678 OFFCURVE",
"399 693 OFFCURVE",
"399 716 CURVE SMOOTH",
"399 739 OFFCURVE",
"375 756 OFFCURVE",
"357 756 CURVE SMOOTH",
"348 756 OFFCURVE",
"328 755 OFFCURVE",
"298 753 CURVE SMOOTH",
"268 751 OFFCURVE",
"242 750 OFFCURVE",
"219 750 CURVE",
"87 755 LINE",
"58 755 OFFCURVE",
"39 740 OFFCURVE",
"39 716 CURVE SMOOTH",
"39 691 OFFCURVE",
"55 679 OFFCURVE",
"87 679 CURVE SMOOTH",
"89 679 OFFCURVE",
"119 680 OFFCURVE",
"178 683 CURVE",
"181 533 OFFCURVE",
"183 430 OFFCURVE",
"183 375 CURVE SMOOTH",
"183 319 OFFCURVE",
"181 216 OFFCURVE",
"178 66 CURVE",
"125 69 OFFCURVE",
"94 71 OFFCURVE",
"87 71 CURVE SMOOTH",
"54 71 OFFCURVE",
"37 58 OFFCURVE",
"37 33 CURVE SMOOTH",
"37 8 OFFCURVE",
"54 -5 OFFCURVE",
"87 -5 CURVE",
"219 0 LINE",
"348 -6 LINE",
"377 -6 OFFCURVE",
"398 10 OFFCURVE",
"398 33 CURVE SMOOTH",
"398 56 OFFCURVE",
"379 71 OFFCURVE",
"348 71 CURVE",
"260 66 LINE"
);
}
);
width = 436;
}
);
note = I;
unicode = 0049;
},
{
glyphname = J;
lastChange = "2017-06-04 10:41:35 +0000";
layers = (
{
layerId = "016D93B1-224C-4BB2-94F2-5498F6B5D728";
paths = (
{
closed = 1;
nodes = (
"411 516 OFFCURVE",
"412 618 OFFCURVE",
"413 679 CURVE",
"428 679 LINE SMOOTH",
"459 679 OFFCURVE",
"482 694 OFFCURVE",
"482 717 CURVE SMOOTH",
"482 740 OFFCURVE",
"458 757 OFFCURVE",
"440 757 CURVE SMOOTH",
"431 757 OFFCURVE",
"411 756 OFFCURVE",
"381 754 CURVE SMOOTH",
"351 752 OFFCURVE",
"325 751 OFFCURVE",
"302 751 CURVE",
"170 756 LINE",
"141 756 OFFCURVE",
"122 740 OFFCURVE",
"122 717 CURVE SMOOTH",
"122 692 OFFCURVE",
"138 680 OFFCURVE",
"170 680 CURVE",
"305 685 LINE",
"319 685 OFFCURVE",
"330 685 OFFCURVE",
"337 684 CURVE",
"338 627 OFFCURVE",
"339 523 OFFCURVE",
"339 374 CURVE SMOOTH",
"338 309 OFFCURVE",
"338 276 OFFCURVE",
"338 276 CURVE",
"338 123 OFFCURVE",
"276 56 OFFCURVE",
"200 56 CURVE SMOOTH",
"160 56 OFFCURVE",
"128 74 OFFCURVE",
"113 91 CURVE SMOOTH",
"98 108 OFFCURVE",
"80 126 OFFCURVE",
"63 126 CURVE SMOOTH",
"46 126 OFFCURVE",
"31 112 OFFCURVE",
"31 91 CURVE SMOOTH",
"31 51 OFFCURVE",
"102 -10 OFFCURVE",
"207 -10 CURVE SMOOTH",
"312 -10 OFFCURVE",
"412 73 OFFCURVE",
"412 254 CURVE",
"411 374 LINE"
);
}
);
width = 523;
}
);
note = J;
unicode = 004A;
},
{
glyphname = K;
lastChange = "2017-06-04 10:41:35 +0000";
layers = (
{
layerId = "016D93B1-224C-4BB2-94F2-5498F6B5D728";
paths = (
{
closed = 1;
nodes = (
"192 342 OFFCURVE",
"208 340 OFFCURVE",
"224 340 CURVE SMOOTH",
"240 340 OFFCURVE",
"264 343 OFFCURVE",
"297 349 CURVE",
"375 201 OFFCURVE",
"430 104 OFFCURVE",
"463 59 CURVE SMOOTH",
"496 13 OFFCURVE",
"525 -10 OFFCURVE",
"550 -10 CURVE SMOOTH",
"581 -10 OFFCURVE",
"604 18 OFFCURVE",
"604 57 CURVE SMOOTH",
"604 61 OFFCURVE",
"601 63 OFFCURVE",
"596 63 CURVE",
"591 62 OFFCURVE",
"581 65 OFFCURVE",
"567 72 CURVE",
"552 78 OFFCURVE",
"537 91 OFFCURVE",
"521 110 CURVE",
"486 158 OFFCURVE",
"402 303 OFFCURVE",
"366 386 CURVE",
"438 457 OFFCURVE",
"528 634 OFFCURVE",
"528 723 CURVE SMOOTH",
"528 746 OFFCURVE",
"513 760 OFFCURVE",
"494 760 CURVE SMOOTH",
"473 760 OFFCURVE",
"460 745 OFFCURVE",
"453 716 CURVE",
"433 613 OFFCURVE",
"373 489 OFFCURVE",
"308 433 CURVE",
"278 435 OFFCURVE",
"262 436 OFFCURVE",
"261 436 CURVE SMOOTH",
"224 436 OFFCURVE",
"195 432 OFFCURVE",
"175 424 CURVE",
"175 482 OFFCURVE",
"176 562 OFFCURVE",
"179 663 CURVE SMOOTH",
"180 688 OFFCURVE",
"180 706 OFFCURVE",
"180 716 CURVE SMOOTH",
"180 735 OFFCURVE",
"162 759 OFFCURVE",
"139 759 CURVE SMOOTH",
"116 759 OFFCURVE",
"98 737 OFFCURVE",
"98 708 CURVE SMOOTH",
"103 372 LINE",
"98 41 LINE SMOOTH",
"98 12 OFFCURVE",
"116 -10 OFFCURVE",
"139 -10 CURVE SMOOTH",
"162 -10 OFFCURVE",
"180 12 OFFCURVE",
"180 41 CURVE",
"175 345 LINE"
);
}
);
width = 618;
}
);
note = K;
unicode = 004B;
},
{
glyphname = L;
lastChange = "2017-06-04 10:41:35 +0000";
layers = (
{
layerId = "016D93B1-224C-4BB2-94F2-5498F6B5D728";
paths = (
{
closed = 1;
nodes = (
"180 740 OFFCURVE",
"164 760 OFFCURVE",
"139 760 CURVE SMOOTH",
"114 760 OFFCURVE",
"98 740 OFFCURVE",
"98 709 CURVE SMOOTH",
"103 372 LINE",
"98 46 LINE SMOOTH",
"98 13 OFFCURVE",
"118 -5 OFFCURVE",
"149 -5 CURVE SMOOTH",
"311 0 LINE",
"462 -5 LINE SMOOTH",
"493 -5 OFFCURVE",
"512 10 OFFCURVE",
"512 34 CURVE SMOOTH",
"512 58 OFFCURVE",
"490 73 OFFCURVE",
"471 73 CURVE SMOOTH",
"461 73 OFFCURVE",
"438 72 OFFCURVE",
"403 70 CURVE SMOOTH",
"367 67 OFFCURVE",
"328 66 OFFCURVE",
"285 66 CURVE SMOOTH",
"242 66 OFFCURVE",
"206 68 OFFCURVE",
"179 71 CURVE",
"176 204 OFFCURVE",
"175 305 OFFCURVE",
"175 372 CURVE SMOOTH",
"180 709 LINE SMOOTH"
);
}
);
width = 544;
}
);
note = L;
unicode = 004C;
},
{
glyphname = M;
lastChange = "2017-06-04 10:41:35 +0000";
layers = (
{
layerId = "016D93B1-224C-4BB2-94F2-5498F6B5D728";
paths = (
{
closed = 1;
nodes = (
"98 12 OFFCURVE",
"116 -10 OFFCURVE",
"139 -10 CURVE SMOOTH",
"162 -10 OFFCURVE",
"180 12 OFFCURVE",
"180 41 CURVE",
"175 372 LINE",
"175 570 LINE",
"224 467 OFFCURVE",
"289 325 OFFCURVE",
"370 145 CURVE",
"379 122 OFFCURVE",
"392 111 OFFCURVE",
"409 111 CURVE SMOOTH",
"425 111 OFFCURVE",
"438 121 OFFCURVE",
"447 142 CURVE SMOOTH",
"640 566 LINE",
"640 372 LINE SMOOTH",
"640 301 OFFCURVE",
"638 209 OFFCURVE",
"634 96 CURVE SMOOTH",
"633 65 OFFCURVE",
"633 44 OFFCURVE",
"633 34 CURVE SMOOTH",
"633 14 OFFCURVE",
"651 -10 OFFCURVE",
"674 -10 CURVE SMOOTH",
"697 -10 OFFCURVE",
"715 14 OFFCURVE",
"715 34 CURVE SMOOTH",
"715 44 OFFCURVE",
"715 65 OFFCURVE",
"714 96 CURVE SMOOTH",
"712 158 OFFCURVE",
"710 267 OFFCURVE",
"710 372 CURVE SMOOTH",
"710 477 OFFCURVE",
"712 588 OFFCURVE",
"714 650 CURVE SMOOTH",
"715 681 OFFCURVE",
"715 699 OFFCURVE",
"715 704 CURVE SMOOTH",
"715 738 OFFCURVE",
"701 755 OFFCURVE",
"674 755 CURVE SMOOTH",
"656 755 OFFCURVE",
"642 745 OFFCURVE",
"633 725 CURVE SMOOTH",
"624 705 OFFCURVE",
"608 669 OFFCURVE",
"587 617 CURVE SMOOTH",
"532 483 OFFCURVE",
"472 353 OFFCURVE",
"407 227 CURVE",
"397 247 OFFCURVE",
"377 289 OFFCURVE",
"348 352 CURVE SMOOTH",
"319 415 OFFCURVE",
"297 461 OFFCURVE",
"283 492 CURVE",
"268 522 OFFCURVE",
"234 598 OFFCURVE",
"180 720 CURVE SMOOTH",
"170 743 OFFCURVE",
"158 755 OFFCURVE",
"143 755 CURVE SMOOTH",
"114 755 OFFCURVE",
"98 739 OFFCURVE",
"98 704 CURVE SMOOTH",
"103 372 LINE",
"98 41 LINE SMOOTH"
);
}
);
width = 812;
}
);
note = M;
unicode = 004D;
},
{
glyphname = N;
lastChange = "2017-06-04 10:41:35 +0000";
layers = (
{
layerId = "016D93B1-224C-4BB2-94F2-5498F6B5D728";
paths = (
{
closed = 1;
nodes = (
"98 12 OFFCURVE",
"116 -10 OFFCURVE",
"139 -10 CURVE SMOOTH",
"162 -10 OFFCURVE",
"180 12 OFFCURVE",
"180 41 CURVE",
"175 372 LINE",
"175 605 LINE",
"186 587 OFFCURVE",
"206 552 OFFCURVE",
"235 500 CURVE SMOOTH",
"264 447 OFFCURVE",
"294 394 OFFCURVE",
"326 341 CURVE SMOOTH",
"357 287 OFFCURVE",
"405 201 OFFCURVE",
"470 82 CURVE SMOOTH",
"513 6 OFFCURVE",
"516 -10 OFFCURVE",
"545 -10 CURVE SMOOTH",
"574 -10 OFFCURVE",
"592 10 OFFCURVE",
"592 41 CURVE",
"590 372 LINE",
"590 485 OFFCURVE",
"591 578 OFFCURVE",
"594 653 CURVE SMOOTH",
"595 685 OFFCURVE",
"595 706 OFFCURVE",
"595 716 CURVE SMOOTH",
"595 736 OFFCURVE",
"577 760 OFFCURVE",
"554 760 CURVE SMOOTH",
"531 760 OFFCURVE",
"513 736 OFFCURVE",
"513 716 CURVE SMOOTH",
"513 706 OFFCURVE",
"514 674 OFFCURVE",
"516 621 CURVE SMOOTH",
"517 568 OFFCURVE",
"518 485 OFFCURVE",
"518 372 CURVE SMOOTH",
"518 151 LINE",
"489 198 OFFCURVE",
"428 305 OFFCURVE",
"336 471 CURVE SMOOTH",
"243 636 OFFCURVE",
"194 724 OFFCURVE",
"188 733 CURVE",
"177 751 OFFCURVE",
"161 760 OFFCURVE",
"140 760 CURVE SMOOTH",
"116 760 OFFCURVE",
"98 737 OFFCURVE",
"98 708 CURVE SMOOTH",
"103 372 LINE",
"98 41 LINE SMOOTH"
);
}
);
width = 691;
}
);
note = N;
unicode = 004E;
},
{
glyphname = O;
lastChange = "2017-06-04 10:41:35 +0000";
layers = (
{
layerId = "016D93B1-224C-4BB2-94F2-5498F6B5D728";
paths = (
{
closed = 1;
nodes = (
"246 58 OFFCURVE",
"138 208 OFFCURVE",
"138 378 CURVE SMOOTH",
"138 548 OFFCURVE",
"244 692 OFFCURVE",
"387 692 CURVE SMOOTH",
"530 692 OFFCURVE",
"636 548 OFFCURVE",
"636 378 CURVE SMOOTH",
"636 208 OFFCURVE",
"528 58 OFFCURVE",
"387 58 CURVE SMOOTH"
);
},
{
closed = 1;
nodes = (
"560 727 OFFCURVE",
"482 765 OFFCURVE",
"388 765 CURVE SMOOTH",
"200 765 OFFCURVE",
"57 592 OFFCURVE",
"57 376 CURVE SMOOTH",
"57 159 OFFCURVE",
"199 -15 OFFCURVE",
"387 -15 CURVE SMOOTH",
"574 -15 OFFCURVE",
"717 159 OFFCURVE",
"717 376 CURVE SMOOTH",
"717 485 OFFCURVE",
"686 577 OFFCURVE",
"623 652 CURVE SMOOTH"
);
}
);
width = 774;
}
);
note = O;
unicode = 004F;
},
{
glyphname = P;
lastChange = "2017-06-04 10:41:35 +0000";
layers = (
{
layerId = "016D93B1-224C-4BB2-94F2-5498F6B5D728";
paths = (
{
closed = 1;
nodes = (
"418 696 OFFCURVE",
"495 624 OFFCURVE",
"495 519 CURVE SMOOTH",
"495 434 OFFCURVE",
"408 359 OFFCURVE",
"309 359 CURVE SMOOTH",
"260 359 OFFCURVE",
"216 365 OFFCURVE",
"179 376 CURVE",
"178 406 OFFCURVE",
"177 456 OFFCURVE",
"177 527 CURVE SMOOTH",
"177 598 OFFCURVE",
"178 648 OFFCURVE",
"180 678 CURVE",
"201 690 OFFCURVE",
"235 696 OFFCURVE",
"283 696 CURVE SMOOTH"
);
},
{
closed = 1;
nodes = (
"216 298 OFFCURVE",
"257 293 OFFCURVE",
"304 293 CURVE SMOOTH",
"459 293 OFFCURVE",
"569 399 OFFCURVE",
"569 527 CURVE SMOOTH",
"569 654 OFFCURVE",
"466 765 OFFCURVE",
"277 765 CURVE SMOOTH",
"194 765 OFFCURVE",
"57 732 OFFCURVE",
"57 677 CURVE SMOOTH",
"57 655 OFFCURVE",
"67 644 OFFCURVE",
"87 644 CURVE SMOOTH",
"90 644 OFFCURVE",
"95 645 OFFCURVE",
"103 646 CURVE",
"103 641 OFFCURVE",
"104 628 OFFCURVE",
"105 605 CURVE SMOOTH",
"106 582 OFFCURVE",
"106 550 OFFCURVE",
"107 511 CURVE SMOOTH",
"108 471 OFFCURVE",
"108 416 OFFCURVE",
"108 346 CURVE SMOOTH",
"108 275 OFFCURVE",
"107 193 OFFCURVE",
"104 98 CURVE SMOOTH",
"103 66 OFFCURVE",
"102 45 OFFCURVE",
"102 35 CURVE SMOOTH",
"102 14 OFFCURVE",
"120 -10 OFFCURVE",
"143 -10 CURVE SMOOTH",
"166 -10 OFFCURVE",
"184 12 OFFCURVE",
"184 41 CURVE",
"179 308 LINE"
);
}
);
width = 601;
}
);
note = P;
unicode = 0050;
},
{
glyphname = Q;
lastChange = "2017-06-04 10:41:35 +0000";
layers = (
{
layerId = "016D93B1-224C-4BB2-94F2-5498F6B5D728";
paths = (
{
closed = 1;
nodes = (
"616 264 OFFCURVE",
"576 163 OFFCURVE",
"505 106 CURVE",
"447 216 LINE",
"436 235 OFFCURVE",
"425 244 OFFCURVE",
"413 244 CURVE SMOOTH",
"389 244 OFFCURVE",
"371 227 OFFCURVE",
"371 208 CURVE SMOOTH",
"371 199 OFFCURVE",
"373 190 OFFCURVE",
"378 182 CURVE SMOOTH",
"383 174 OFFCURVE",
"392 159 OFFCURVE",
"407 137 CURVE SMOOTH",
"421 115 OFFCURVE",
"435 93 OFFCURVE",
"448 70 CURVE",
"429 62 OFFCURVE",
"406 58 OFFCURVE",
"377 58 CURVE SMOOTH",
"241 58 OFFCURVE",
"138 208 OFFCURVE",
"138 378 CURVE SMOOTH",
"138 548 OFFCURVE",
"240 692 OFFCURVE",
"377 692 CURVE SMOOTH",
"514 692 OFFCURVE",
"616 548 OFFCURVE",
"616 376 CURVE SMOOTH"
);
},
{
closed = 1;
nodes = (
"697 593 OFFCURVE",
"559 765 OFFCURVE",
"378 765 CURVE SMOOTH",
"197 765 OFFCURVE",
"57 592 OFFCURVE",
"57 376 CURVE SMOOTH",
"57 159 OFFCURVE",
"195 -15 OFFCURVE",
"376 -15 CURVE SMOOTH",
"415 -15 OFFCURVE",
"451 -7 OFFCURVE",
"484 8 CURVE",
"495 -11 OFFCURVE",
"508 -35 OFFCURVE",
"524 -64 CURVE SMOOTH",
"555 -123 OFFCURVE",
"564 -148 OFFCURVE",
"589 -148 CURVE SMOOTH",
"614 -148 OFFCURVE",
"625 -131 OFFCURVE",
"625 -111 CURVE SMOOTH",
"625 -102 OFFCURVE",
"623 -93 OFFCURVE",
"619 -85 CURVE",
"614 -78 OFFCURVE",
"589 -36 OFFCURVE",
"542 41 CURVE",
"639 109 OFFCURVE",
"697 233 OFFCURVE",
"697 376 CURVE SMOOTH"
);
}
);
width = 754;
}
);
note = Q;
unicode = 0051;
},
{
glyphname = R;
lastChange = "2017-06-04 10:41:35 +0000";
layers = (
{
layerId = "016D93B1-224C-4BB2-94F2-5498F6B5D728";
paths = (
{
closed = 1;
nodes = (
"267 300 OFFCURVE",
"299 303 OFFCURVE",
"331 309 CURVE",
"384 191 OFFCURVE",
"430 103 OFFCURVE",
"470 46 CURVE",
"498 9 OFFCURVE",
"525 -10 OFFCURVE",
"550 -10 CURVE SMOOTH",
"581 -10 OFFCURVE",
"609 17 OFFCURVE",
"609 54 CURVE SMOOTH",
"609 64 OFFCURVE",
"602 68 OFFCURVE",
"588 66 CURVE SMOOTH",
"581 65 OFFCURVE",
"572 67 OFFCURVE",
"560 74 CURVE SMOOTH",
"518 97 OFFCURVE",
"466 183 OFFCURVE",
"403 332 CURVE",
"496 371 OFFCURVE",
"554 457 OFFCURVE",
"554 542 CURVE SMOOTH",
"554 667 OFFCURVE",
"460 765 OFFCURVE",
"277 765 CURVE SMOOTH",
"194 765 OFFCURVE",
"57 732 OFFCURVE",
"57 677 CURVE SMOOTH",
"57 655 OFFCURVE",
"67 644 OFFCURVE",
"87 644 CURVE SMOOTH",
"90 644 OFFCURVE",
"95 645 OFFCURVE",
"103 646 CURVE",
"103 641 OFFCURVE",
"104 628 OFFCURVE",
"105 605 CURVE SMOOTH",
"106 582 OFFCURVE",
"106 550 OFFCURVE",
"107 511 CURVE SMOOTH",
"108 471 OFFCURVE",
"108 416 OFFCURVE",
"108 346 CURVE SMOOTH",
"108 275 OFFCURVE",
"107 193 OFFCURVE",
"104 98 CURVE SMOOTH",
"103 66 OFFCURVE",
"102 45 OFFCURVE",
"102 35 CURVE SMOOTH",
"102 14 OFFCURVE",
"120 -10 OFFCURVE",
"143 -10 CURVE SMOOTH",
"166 -10 OFFCURVE",
"184 12 OFFCURVE",
"184 41 CURVE",
"179 307 LINE",
"236 300 LINE"
);
},
{
closed = 1;
nodes = (
"480 465 OFFCURVE",
"416 399 OFFCURVE",
"356 387 CURVE",
"330 394 OFFCURVE",
"301 397 OFFCURVE",
"270 397 CURVE SMOOTH",
"239 397 OFFCURVE",
"208 393 OFFCURVE",
"178 385 CURVE",
"177 400 OFFCURVE",
"177 444 OFFCURVE",
"177 517 CURVE SMOOTH",
"177 590 OFFCURVE",
"178 643 OFFCURVE",
"180 678 CURVE",
"201 690 OFFCURVE",
"239 696 OFFCURVE",
"295 696 CURVE SMOOTH",
"406 696 OFFCURVE",
"480 631 OFFCURVE",
"480 536 CURVE SMOOTH"
);
}
);
width = 636;
}
);
note = R;
unicode = 0052;
},
{
glyphname = S;
lastChange = "2017-06-04 10:41:35 +0000";
layers = (
{
layerId = "016D93B1-224C-4BB2-94F2-5498F6B5D728";
paths = (
{
closed = 1;
nodes = (
"512 239 OFFCURVE",
"500 274 OFFCURVE",
"475 307 CURVE SMOOTH",
"425 372 OFFCURVE",
"348 413 OFFCURVE",
"277 454 CURVE SMOOTH",
"205 494 OFFCURVE",
"148 539 OFFCURVE",
"148 595 CURVE SMOOTH",
"148 650 OFFCURVE",
"214 695 OFFCURVE",
"272 695 CURVE SMOOTH",
"330 695 OFFCURVE",
"363 682 OFFCURVE",
"380 668 CURVE SMOOTH",
"396 654 OFFCURVE",
"417 640 OFFCURVE",
"437 640 CURVE SMOOTH",
"457 640 OFFCURVE",
"471 653 OFFCURVE",
"471 674 CURVE SMOOTH",
"471 721 OFFCURVE",
"382 765 OFFCURVE",
"273 765 CURVE SMOOTH",
"164 765 OFFCURVE",
"68 685 OFFCURVE",
"68 590 CURVE SMOOTH",
"68 554 OFFCURVE",
"81 521 OFFCURVE",
"106 491 CURVE SMOOTH",
"156 431 OFFCURVE",
"232 392 OFFCURVE",
"304 352 CURVE SMOOTH",
"375 311 OFFCURVE",
"432 259 OFFCURVE",
"432 200 CURVE SMOOTH",
"432 112 OFFCURVE",
"362 55 OFFCURVE",
"269 55 CURVE SMOOTH",
"214 55 OFFCURVE",
"167 76 OFFCURVE",
"145 97 CURVE SMOOTH",
"123 117 OFFCURVE",
"96 138 OFFCURVE",
"76 138 CURVE SMOOTH",
"56 138 OFFCURVE",
"42 123 OFFCURVE",
"42 103 CURVE SMOOTH",
"42 51 OFFCURVE",
"158 -15 OFFCURVE",
"269 -15 CURVE SMOOTH",
"412 -15 OFFCURVE",
"512 79 OFFCURVE",
"512 200 CURVE SMOOTH"
);
}
);
width = 556;
}
);
note = S;
unicode = 0053;
},
{
glyphname = T;
lastChange = "2017-06-04 10:41:35 +0000";
layers = (
{
layerId = "016D93B1-224C-4BB2-94F2-5498F6B5D728";
paths = (
{
closed = 1;
nodes = (
"43 755 OFFCURVE",
"27 742 OFFCURVE",
"27 717 CURVE SMOOTH",
"27 692 OFFCURVE",
"43 679 OFFCURVE",
"75 679 CURVE SMOOTH",
"226 684 LINE",
"229 534 OFFCURVE",
"231 430 OFFCURVE",
"231 372 CURVE SMOOTH",
"226 41 LINE SMOOTH",
"226 10 OFFCURVE",
"242 -10 OFFCURVE",
"267 -10 CURVE SMOOTH",
"292 -10 OFFCURVE",
"308 10 OFFCURVE",
"308 41 CURVE",
"303 372 LINE",
"303 429 OFFCURVE",
"305 533 OFFCURVE",
"308 683 CURVE",
"448 678 LINE",
"479 678 OFFCURVE",
"499 693 OFFCURVE",
"499 717 CURVE SMOOTH",
"499 741 OFFCURVE",
"479 756 OFFCURVE",
"448 756 CURVE SMOOTH",
"267 750 LINE",
"75 755 LINE SMOOTH"
);
}
);
width = 523;
}
);
note = T;
unicode = 0054;
},
{
glyphname = U;
lastChange = "2017-06-04 10:41:35 +0000";
layers = (
{
layerId = "016D93B1-224C-4BB2-94F2-5498F6B5D728";
paths = (
{
closed = 1;
nodes = (
"563 112 OFFCURVE",
"585 173 OFFCURVE",
"586 246 CURVE SMOOTH",
"590 429 OFFCURVE",
"592 584 OFFCURVE",
"592 709 CURVE SMOOTH",
"592 740 OFFCURVE",
"576 760 OFFCURVE",
"551 760 CURVE SMOOTH",
"526 760 OFFCURVE",
"510 740 OFFCURVE",
"510 709 CURVE SMOOTH",
"510 708 OFFCURVE",
"511 664 OFFCURVE",
"513 577 CURVE SMOOTH",
"514 490 OFFCURVE",
"515 408 OFFCURVE",
"515 329 CURVE SMOOTH",
"515 171 OFFCURVE",
"481 55 OFFCURVE",
"341 55 CURVE SMOOTH",
"285 55 OFFCURVE",
"243 75 OFFCURVE",
"214 114 CURVE SMOOTH",
"190 147 OFFCURVE",
"176 207 OFFCURVE",
"172 256 CURVE",
"169 281 OFFCURVE",
"168 332 OFFCURVE",
"168 409 CURVE SMOOTH",
"168 486 OFFCURVE",
"169 566 OFFCURVE",
"172 648 CURVE SMOOTH",
"173 683 OFFCURVE",
"173 705 OFFCURVE",
"173 716 CURVE SMOOTH",
"173 737 OFFCURVE",
"157 760 OFFCURVE",
"132 760 CURVE SMOOTH",
"107 760 OFFCURVE",
"91 737 OFFCURVE",
"91 719 CURVE SMOOTH",
"91 710 OFFCURVE",
"93 552 OFFCURVE",
"97 247 CURVE SMOOTH",
"100 102 OFFCURVE",
"185 -15 OFFCURVE",
"341 -15 CURVE SMOOTH",
"419 -15 OFFCURVE",
"479 10 OFFCURVE",
"521 61 CURVE SMOOTH"
);
}
);
width = 683;
}
);
note = U;
unicode = 0055;
},
{
glyphname = V;
lastChange = "2017-06-04 10:41:35 +0000";
layers = (
{
layerId = "016D93B1-224C-4BB2-94F2-5498F6B5D728";
paths = (
{
closed = 1;
nodes = (
"396 92 OFFCURVE",
"426 174 OFFCURVE",
"459 276 CURVE SMOOTH",
"492 378 OFFCURVE",
"519 461 OFFCURVE",
"541 526 CURVE SMOOTH",
"562 590 OFFCURVE",
"578 636 OFFCURVE",
"587 665 CURVE SMOOTH",
"596 694 OFFCURVE",
"600 713 OFFCURVE",
"600 723 CURVE SMOOTH",
"600 743 OFFCURVE",
"587 760 OFFCURVE",
"563 760 CURVE SMOOTH",
"543 760 OFFCURVE",
"529 747 OFFCURVE",
"521 720 CURVE",
"521 719 OFFCURVE",
"504 662 OFFCURVE",
"469 547 CURVE SMOOTH",
"434 432 OFFCURVE",
"402 329 OFFCURVE",
"373 240 CURVE SMOOTH",
"344 151 OFFCURVE",
"327 106 OFFCURVE",
"322 106 CURVE SMOOTH",
"317 106 OFFCURVE",
"290 177 OFFCURVE",
"241 320 CURVE SMOOTH",
"200 440 OFFCURVE",
"158 567 OFFCURVE",
"130 655 CURVE SMOOTH",
"101 743 OFFCURVE",
"102 760 OFFCURVE",
"63 760 CURVE SMOOTH",
"40 760 OFFCURVE",
"25 744 OFFCURVE",
"25 716 CURVE SMOOTH",
"25 687 OFFCURVE",
"49 624 OFFCURVE",
"64 585 CURVE SMOOTH",
"71 565 OFFCURVE",
"83 535 OFFCURVE",
"98 494 CURVE SMOOTH",
"113 453 OFFCURVE",
"137 385 OFFCURVE",
"171 292 CURVE SMOOTH",
"204 199 OFFCURVE",
"237 110 OFFCURVE",
"269 27 CURVE SMOOTH",
"279 2 OFFCURVE",
"296 -10 OFFCURVE",
"320 -10 CURVE SMOOTH",
"344 -10 OFFCURVE",
"361 3 OFFCURVE",
"371 30 CURVE SMOOTH"
);
}
);
width = 625;
}
);
note = V;
unicode = 0056;
},
{
glyphname = W;
lastChange = "2017-06-04 10:41:35 +0000";
layers = (
{
layerId = "016D93B1-224C-4BB2-94F2-5498F6B5D728";
paths = (
{
closed = 1;
nodes = (
"701 95 OFFCURVE",
"744 239 OFFCURVE",
"811 465 CURVE SMOOTH",
"824 510 OFFCURVE",
"839 560 OFFCURVE",
"855 615 CURVE SMOOTH",
"871 669 OFFCURVE",
"879 704 OFFCURVE",
"879 720 CURVE SMOOTH",
"879 747 OFFCURVE",
"868 760 OFFCURVE",
"846 760 CURVE SMOOTH",
"826 760 OFFCURVE",
"812 747 OFFCURVE",
"805 720 CURVE SMOOTH",
"750 512 OFFCURVE",
"640 106 OFFCURVE",
"631 106 CURVE SMOOTH",
"625 106 OFFCURVE",
"595 198 OFFCURVE",
"542 382 CURVE SMOOTH",
"501 529 OFFCURVE",
"507 546 OFFCURVE",
"459 546 CURVE SMOOTH",
"434 546 OFFCURVE",
"417 529 OFFCURVE",
"408 495 CURVE",
"405 486 OFFCURVE",
"394 445 OFFCURVE",
"375 373 CURVE SMOOTH",
"327 195 OFFCURVE",
"299 106 OFFCURVE",
"291 106 CURVE SMOOTH",
"283 106 OFFCURVE",
"236 259 OFFCURVE",
"151 564 CURVE SMOOTH",
"122 669 OFFCURVE",
"107 723 OFFCURVE",
"106 724 CURVE",
"97 748 OFFCURVE",
"82 760 OFFCURVE",
"62 760 CURVE SMOOTH",
"42 760 OFFCURVE",
"27 744 OFFCURVE",
"27 717 CURVE SMOOTH",
"27 704 OFFCURVE",
"43 649 OFFCURVE",
"74 552 CURVE SMOOTH",
"93 495 OFFCURVE",
"122 402 OFFCURVE",
"161 275 CURVE SMOOTH",
"199 148 OFFCURVE",
"224 66 OFFCURVE",
"235 31 CURVE",
"246 4 OFFCURVE",
"263 -10 OFFCURVE",
"286 -10 CURVE SMOOTH",
"333 -10 OFFCURVE",
"332 9 OFFCURVE",
"369 141 CURVE SMOOTH",
"388 206 OFFCURVE",
"406 268 OFFCURVE",
"424 327 CURVE SMOOTH",
"442 386 OFFCURVE",
"452 415 OFFCURVE",
"455 415 CURVE SMOOTH",
"458 415 OFFCURVE",
"468 386 OFFCURVE",
"487 328 CURVE SMOOTH",
"505 269 OFFCURVE",
"524 207 OFFCURVE",
"543 141 CURVE SMOOTH",
"582 9 OFFCURVE",
"580 -10 OFFCURVE",
"629 -10 CURVE SMOOTH",
"653 -10 OFFCURVE",
"670 5 OFFCURVE",
"681 34 CURVE"
);
}
);
width = 909;
}
);
note = W;
unicode = 0057;
},
{
glyphname = X;
lastChange = "2017-06-04 10:41:35 +0000";
layers = (
{
layerId = "016D93B1-224C-4BB2-94F2-5498F6B5D728";
paths = (
{
closed = 1;
nodes = (
"500 760 OFFCURVE",
"490 754 OFFCURVE",
"481 741 CURVE SMOOTH",
"472 728 OFFCURVE",
"450 690 OFFCURVE",
"413 627 CURVE SMOOTH",
"376 563 OFFCURVE",
"341 503 OFFCURVE",
"308 448 CURVE",
"233 587 OFFCURVE",
"186 672 OFFCURVE",
"169 701 CURVE",
"134 752 OFFCURVE",
"115 763 OFFCURVE",
"86 763 CURVE SMOOTH",
"57 763 OFFCURVE",
"33 739 OFFCURVE",
"33 702 CURVE SMOOTH",
"33 691 OFFCURVE",
"41 686 OFFCURVE",
"56 687 CURVE SMOOTH",
"69 688 OFFCURVE",
"94 676 OFFCURVE",
"115 647 CURVE",
"152 585 OFFCURVE",
"202 497 OFFCURVE",
"264 384 CURVE",
"238 343 OFFCURVE",
"208 298 OFFCURVE",
"175 247 CURVE SMOOTH",
"141 196 OFFCURVE",
"113 153 OFFCURVE",
"91 120 CURVE SMOOTH",
"69 87 OFFCURVE",
"55 65 OFFCURVE",
"49 56 CURVE",
"43 46 OFFCURVE",
"40 36 OFFCURVE",
"40 25 CURVE SMOOTH",
"40 2 OFFCURVE",
"53 -10 OFFCURVE",
"80 -10 CURVE SMOOTH",
"95 -10 OFFCURVE",
"108 -2 OFFCURVE",
"119 14 CURVE",
"122 19 OFFCURVE",
"139 47 OFFCURVE",
"170 99 CURVE SMOOTH",
"200 150 OFFCURVE",
"245 224 OFFCURVE",
"306 321 CURVE",
"387 188 OFFCURVE",
"443 98 OFFCURVE",
"476 50 CURVE SMOOTH",
"506 8 OFFCURVE",
"534 -13 OFFCURVE",
"559 -13 CURVE SMOOTH",
"588 -13 OFFCURVE",
"613 12 OFFCURVE",
"613 49 CURVE SMOOTH",
"613 62 OFFCURVE",
"606 63 OFFCURVE",
"594 62 CURVE",
"588 61 OFFCURVE",
"579 64 OFFCURVE",
"568 71 CURVE",
"556 78 OFFCURVE",
"544 89 OFFCURVE",
"531 105 CURVE SMOOTH",
"502 141 OFFCURVE",
"441 235 OFFCURVE",
"350 388 CURVE",
"397 464 OFFCURVE",
"450 547 OFFCURVE",
"507 638 CURVE SMOOTH",
"524 665 OFFCURVE",
"536 685 OFFCURVE",
"543 697 CURVE",
"549 709 OFFCURVE",
"552 719 OFFCURVE",
"552 727 CURVE SMOOTH",
"552 742 OFFCURVE",
"538 760 OFFCURVE",
"513 760 CURVE SMOOTH"
);
}
);
width = 625;
}
);
note = X;
unicode = 0058;
},
{
glyphname = Y;
lastChange = "2017-06-04 10:41:35 +0000";
layers = (
{
layerId = "016D93B1-224C-4BB2-94F2-5498F6B5D728";
paths = (
{
closed = 1;
nodes = (
"237 7 OFFCURVE",
"251 -10 OFFCURVE",
"278 -10 CURVE SMOOTH",
"305 -10 OFFCURVE",
"319 7 OFFCURVE",
"319 40 CURVE SMOOTH",
"319 43 OFFCURVE",
"318 67 OFFCURVE",
"317 110 CURVE SMOOTH",
"315 153 OFFCURVE",
"314 221 OFFCURVE",
"314 314 CURVE",
"431 519 LINE SMOOTH",
"443 540 OFFCURVE",
"457 564 OFFCURVE",
"472 589 CURVE SMOOTH",
"502 640 OFFCURVE",
"510 654 OFFCURVE",
"523 679 CURVE SMOOTH",
"536 704 OFFCURVE",
"539 715 OFFCURVE",
"539 731 CURVE SMOOTH",
"539 746 OFFCURVE",
"526 760 OFFCURVE",
"510 760 CURVE SMOOTH",
"501 760 OFFCURVE",
"495 758 OFFCURVE",
"490 754 CURVE",
"487 752 OFFCURVE",
"484 750 OFFCURVE",
"482 747 CURVE",
"477 742 OFFCURVE",
"469 729 OFFCURVE",
"463 717 CURVE SMOOTH",
"460 711 OFFCURVE",
"455 703 OFFCURVE",
"450 693 CURVE",
"444 682 OFFCURVE",
"439 672 OFFCURVE",
"434 662 CURVE SMOOTH",
"393 578 OFFCURVE",
"342 488 OFFCURVE",
"281 391 CURVE",
"222 482 OFFCURVE",
"168 579 OFFCURVE",
"118 682 CURVE SMOOTH",
"111 697 OFFCURVE",
"103 711 OFFCURVE",
"95 724 CURVE SMOOTH",
"79 751 OFFCURVE",
"68 760 OFFCURVE",
"48 760 CURVE SMOOTH",
"28 760 OFFCURVE",
"15 742 OFFCURVE",
"15 726 CURVE SMOOTH",
"15 718 OFFCURVE",
"17 709 OFFCURVE",
"21 700 CURVE",
"24 691 OFFCURVE",
"37 667 OFFCURVE",
"59 630 CURVE SMOOTH",
"92 575 LINE SMOOTH",
"106 552 OFFCURVE",
"119 529 OFFCURVE",
"132 507 CURVE SMOOTH",
"242 314 LINE",
"242 223 OFFCURVE",
"241 147 OFFCURVE",
"238 86 CURVE SMOOTH",
"237 60 OFFCURVE",
"237 45 OFFCURVE",
"237 40 CURVE SMOOTH"
);
}
);
width = 554;
}
);
note = Y;
unicode = 0059;
},
{
glyphname = Z;
lastChange = "2017-06-04 10:41:35 +0000";
layers = (
{
layerId = "016D93B1-224C-4BB2-94F2-5498F6B5D728";
paths = (
{
closed = 1;
nodes = (
"64 755 OFFCURVE",
"47 743 OFFCURVE",
"47 718 CURVE SMOOTH",
"47 694 OFFCURVE",
"67 679 OFFCURVE",
"98 679 CURVE SMOOTH",
"280 684 LINE",
"415 680 LINE",
"376 607 OFFCURVE",
"192 298 OFFCURVE",
"80 122 CURVE SMOOTH",
"60 90 OFFCURVE",
"47 70 OFFCURVE",
"42 61 CURVE SMOOTH",
"37 52 OFFCURVE",
"34 44 OFFCURVE",
"34 35 CURVE SMOOTH",
"34 8 OFFCURVE",
"50 -5 OFFCURVE",
"83 -5 CURVE SMOOTH",
"285 0 LINE",
"485 -6 LINE SMOOTH",
"518 -6 OFFCURVE",
"535 7 OFFCURVE",
"535 32 CURVE SMOOTH",
"535 57 OFFCURVE",
"516 72 OFFCURVE",
"485 72 CURVE SMOOTH",
"285 66 LINE SMOOTH",
"228 66 OFFCURVE",
"179 67 OFFCURVE",
"139 69 CURVE",
"148 83 OFFCURVE",
"182 141 OFFCURVE",
"241 243 CURVE SMOOTH",
"300 344 OFFCURVE",
"379 475 OFFCURVE",
"480 634 CURVE SMOOTH",
"496 659 OFFCURVE",
"507 677 OFFCURVE",
"512 686 CURVE SMOOTH",
"517 695 OFFCURVE",
"520 705 OFFCURVE",
"520 718 CURVE SMOOTH",
"520 743 OFFCURVE",
"497 756 OFFCURVE",
"469 756 CURVE SMOOTH",
"280 750 LINE",
"98 755 LINE SMOOTH"
);
}
);
width = 568;
}
);
note = Z;
unicode = 005A;
},
{
glyphname = bracketleft;
lastChange = "2017-06-04 10:41:35 +0000";
layers = (
{
layerId = "016D93B1-224C-4BB2-94F2-5498F6B5D728";
paths = (
{
closed = 1;
nodes = (
"146 68 OFFCURVE",
"144 210 OFFCURVE",
"144 265 CURVE SMOOTH",
"144 320 OFFCURVE",
"146 462 OFFCURVE",
"150 690 CURVE",
"194 690 LINE",
"281 687 LINE SMOOTH",
"305 687 OFFCURVE",
"322 700 OFFCURVE",
"322 720 CURVE SMOOTH",
"322 740 OFFCURVE",
"305 753 OFFCURVE",
"281 753 CURVE SMOOTH",
"194 750 LINE",
"117 754 LINE",
"93 754 OFFCURVE",
"76 740 OFFCURVE",
"76 725 CURVE SMOOTH",
"76 717 OFFCURVE",
"77 663 OFFCURVE",
"79 564 CURVE SMOOTH",
"81 465 OFFCURVE",
"82 365 OFFCURVE",
"82 265 CURVE SMOOTH",
"82 165 OFFCURVE",
"81 65 OFFCURVE",
"79 -34 CURVE SMOOTH",
"77 -133 OFFCURVE",
"76 -187 OFFCURVE",
"76 -194 CURVE SMOOTH",
"76 -210 OFFCURVE",
"93 -224 OFFCURVE",
"117 -224 CURVE",
"194 -220 LINE",
"281 -223 LINE SMOOTH",
"305 -223 OFFCURVE",
"322 -210 OFFCURVE",
"322 -190 CURVE SMOOTH",
"322 -170 OFFCURVE",
"305 -157 OFFCURVE",
"281 -157 CURVE SMOOTH",
"194 -160 LINE",
"150 -160 LINE"
);
}
);
width = 348;
}
);
note = bracketleft;
unicode = 005B;
},
{
glyphname = backslash;
lastChange = "2017-06-04 10:41:35 +0000";
layers = (
{
layerId = "016D93B1-224C-4BB2-94F2-5498F6B5D728";
paths = (
{
closed = 1;
nodes = (
"307 -102 OFFCURVE",
"303 -79 OFFCURVE",
"295 -44 CURVE SMOOTH",
"287 -9 OFFCURVE",
"269 71 OFFCURVE",
"240 196 CURVE SMOOTH",
"211 321 OFFCURVE",
"179 472 OFFCURVE",
"146 649 CURVE SMOOTH",
"133 725 OFFCURVE",
"134 760 OFFCURVE",
"93 760 CURVE SMOOTH",
"69 760 OFFCURVE",
"57 746 OFFCURVE",
"57 718 CURVE SMOOTH",
"57 709 OFFCURVE",
"61 686 OFFCURVE",
"70 651 CURVE SMOOTH",
"78 616 OFFCURVE",
"96 540 OFFCURVE",
"123 425 CURVE SMOOTH",
"150 310 OFFCURVE",
"182 154 OFFCURVE",
"218 -41 CURVE SMOOTH",
"231 -117 OFFCURVE",
"228 -152 OFFCURVE",
"271 -152 CURVE SMOOTH",
"295 -152 OFFCURVE",
"307 -139 OFFCURVE",
"307 -112 CURVE SMOOTH"
);
}
);
width = 363;
}
);
note = backslash;
unicode = 005C;
},
{
glyphname = bracketright;
lastChange = "2017-06-04 10:41:35 +0000";
layers = (
{
layerId = "016D93B1-224C-4BB2-94F2-5498F6B5D728";
paths = (
{
closed = 1;
nodes = (
"96 752 OFFCURVE",
"67 753 OFFCURVE",
"67 753 CURVE SMOOTH",
"43 753 OFFCURVE",
"26 740 OFFCURVE",
"26 720 CURVE SMOOTH",
"26 700 OFFCURVE",
"43 687 OFFCURVE",
"67 687 CURVE SMOOTH",
"154 690 LINE",
"198 690 LINE",
"202 462 OFFCURVE",
"204 320 OFFCURVE",
"204 265 CURVE SMOOTH",
"204 210 OFFCURVE",
"202 68 OFFCURVE",
"198 -160 CURVE",
"154 -160 LINE",
"67 -157 LINE SMOOTH",
"43 -157 OFFCURVE",
"26 -170 OFFCURVE",
"26 -190 CURVE SMOOTH",
"26 -210 OFFCURVE",
"43 -223 OFFCURVE",
"67 -223 CURVE SMOOTH",
"154 -220 LINE",
"231 -224 LINE",
"255 -224 OFFCURVE",
"272 -210 OFFCURVE",
"272 -194 CURVE SMOOTH",
"272 -187 OFFCURVE",
"271 -133 OFFCURVE",
"269 -34 CURVE SMOOTH",
"267 65 OFFCURVE",
"266 165 OFFCURVE",
"266 265 CURVE SMOOTH",
"266 365 OFFCURVE",
"267 465 OFFCURVE",
"269 564 CURVE SMOOTH",
"271 663 OFFCURVE",
"272 717 OFFCURVE",
"272 725 CURVE SMOOTH",
"272 740 OFFCURVE",
"255 754 OFFCURVE",
"231 754 CURVE",
"154 750 LINE"
);
}
);
width = 348;
}
);
note = bracketright;
unicode = 005D;
},
{
glyphname = asciicircum;
lastChange = "2017-06-04 10:41:35 +0000";
layers = (
{
layerId = "016D93B1-224C-4BB2-94F2-5498F6B5D728";
paths = (
{
closed = 1;
nodes = (
"359 623 OFFCURVE",
"323 687 OFFCURVE",
"298 738 CURVE",
"289 753 OFFCURVE",
"277 760 OFFCURVE",
"262 760 CURVE SMOOTH",
"246 760 OFFCURVE",
"234 752 OFFCURVE",
"225 737 CURVE SMOOTH",
"222 732 OFFCURVE",
"205 700 OFFCURVE",
"174 642 CURVE SMOOTH",
"150 597 OFFCURVE",
"136 573 OFFCURVE",
"97 507 CURVE SMOOTH",
"77 474 OFFCURVE",
"63 449 OFFCURVE",
"55 433 CURVE",
"46 417 OFFCURVE",
"42 405 OFFCURVE",
"42 397 CURVE SMOOTH",
"42 381 OFFCURVE",
"52 368 OFFCURVE",
"75 368 CURVE SMOOTH",
"86 368 OFFCURVE",
"96 376 OFFCURVE",
"105 392 CURVE",
"105 394 OFFCURVE",
"123 429 OFFCURVE",
"160 498 CURVE SMOOTH",
"187 549 OFFCURVE",
"219 610 OFFCURVE",
"240 646 CURVE",
"251 663 OFFCURVE",
"257 672 OFFCURVE",
"260 672 CURVE SMOOTH",
"263 672 OFFCURVE",
"269 663 OFFCURVE",
"280 646 CURVE SMOOTH",
"291 628 OFFCURVE",
"303 605 OFFCURVE",
"318 578 CURVE SMOOTH",
"333 550 OFFCURVE",
"353 513 OFFCURVE",
"378 466 CURVE SMOOTH",
"403 419 OFFCURVE",
"415 394 OFFCURVE",
"415 392 CURVE",
"424 376 OFFCURVE",
"434 368 OFFCURVE",
"445 368 CURVE SMOOTH",
"468 368 OFFCURVE",
"481 383 OFFCURVE",
"481 396 CURVE SMOOTH",
"481 402 OFFCURVE",
"480 409 OFFCURVE",
"477 417 CURVE SMOOTH",
"474 425 OFFCURVE",
"449 468 OFFCURVE",
"404 546 CURVE SMOOTH"
);
}
);
width = 521;
}
);
note = asciicircum;
unicode = 005E;
},
{
glyphname = underscore;
lastChange = "2017-06-04 10:41:35 +0000";
layers = (
{
layerId = "016D93B1-224C-4BB2-94F2-5498F6B5D728";
paths = (
{
closed = 1;
nodes = (
"157 -158 OFFCURVE",
"91 -157 OFFCURVE",
"91 -157 CURVE SMOOTH",
"67 -157 OFFCURVE",
"50 -170 OFFCURVE",
"50 -190 CURVE SMOOTH",
"50 -210 OFFCURVE",
"67 -223 OFFCURVE",
"91 -223 CURVE SMOOTH",
"288 -220 LINE",
"485 -223 LINE SMOOTH",
"509 -223 OFFCURVE",
"526 -210 OFFCURVE",
"526 -190 CURVE SMOOTH",
"526 -170 OFFCURVE",
"509 -157 OFFCURVE",
"485 -157 CURVE SMOOTH",
"288 -160 LINE SMOOTH"
);
}
);
width = 576;
}
);
note = underscore;
unicode = 005F;
},
{
glyphname = grave;
lastChange = "2017-06-04 10:41:35 +0000";
layers = (
{
layerId = "016D93B1-224C-4BB2-94F2-5498F6B5D728";
paths = (
{
closed = 1;
nodes = (
"215 622 OFFCURVE",
"208 634 OFFCURVE",
"194 649 CURVE SMOOTH",
"179 666 OFFCURVE",
"172 673 OFFCURVE",
"158 707 CURVE SMOOTH",
"144 741 OFFCURVE",
"130 760 OFFCURVE",
"106 760 CURVE SMOOTH",
"82 760 OFFCURVE",
"70 742 OFFCURVE",
"70 722 CURVE SMOOTH",
"70 665 OFFCURVE",
"152 593 OFFCURVE",
"188 593 CURVE SMOOTH",
"206 593 OFFCURVE",
"215 600 OFFCURVE",
"215 614 CURVE SMOOTH"
);
}
);
width = 285;
}
);
note = grave;
unicode = 0060;
},
{
glyphname = a;
lastChange = "2017-06-04 10:41:35 +0000";
layers = (
{
layerId = "016D93B1-224C-4BB2-94F2-5498F6B5D728";
paths = (
{
closed = 1;
nodes = (
"480 327 OFFCURVE",
"487 393 OFFCURVE",
"487 440 CURVE SMOOTH",
"487 487 OFFCURVE",
"472 510 OFFCURVE",
"441 510 CURVE SMOOTH",
"416 510 OFFCURVE",
"403 493 OFFCURVE",
"403 459 CURVE",
"366 493 OFFCURVE",
"323 510 OFFCURVE",
"273 510 CURVE SMOOTH",
"141 510 OFFCURVE",
"48 384 OFFCURVE",
"48 239 CURVE SMOOTH",
"48 148 OFFCURVE",
"75 79 OFFCURVE",
"128 30 CURVE SMOOTH",
"157 3 OFFCURVE",
"192 -10 OFFCURVE",
"233 -10 CURVE SMOOTH",
"313 -10 OFFCURVE",
"382 47 OFFCURVE",
"415 122 CURVE",
"415 45 OFFCURVE",
"437 -10 OFFCURVE",
"476 -10 CURVE SMOOTH",
"515 -10 OFFCURVE",
"534 15 OFFCURVE",
"534 51 CURVE SMOOTH",
"534 59 OFFCURVE",
"530 61 OFFCURVE",
"519 62 CURVE",
"513 63 OFFCURVE",
"508 64 OFFCURVE",
"504 66 CURVE",
"494 70 OFFCURVE",
"485 88 OFFCURVE",
"478 120 CURVE SMOOTH",
"471 151 OFFCURVE",
"467 192 OFFCURVE",
"467 242 CURVE"
);
},
{
closed = 1;
nodes = (
"376 129 OFFCURVE",
"311 55 OFFCURVE",
"236 55 CURVE SMOOTH",
"161 55 OFFCURVE",
"119 135 OFFCURVE",
"119 245 CURVE SMOOTH",
"119 355 OFFCURVE",
"191 445 OFFCURVE",
"279 445 CURVE SMOOTH",
"322 445 OFFCURVE",
"364 426 OFFCURVE",
"404 387 CURVE",
"409 233 LINE"
);
}
);
width = 571;
}
);
note = a;
unicode = 0061;
},
{
glyphname = b;
lastChange = "2017-06-04 10:41:35 +0000";
layers = (
{
layerId = "016D93B1-224C-4BB2-94F2-5498F6B5D728";
paths = (
{
closed = 1;
nodes = (
"505 352 OFFCURVE",
"478 421 OFFCURVE",
"424 470 CURVE SMOOTH",
"395 497 OFFCURVE",
"362 510 OFFCURVE",
"323 510 CURVE SMOOTH",
"245 510 OFFCURVE",
"182 462 OFFCURVE",
"146 394 CURVE",
"146 710 LINE SMOOTH",
"146 741 OFFCURVE",
"131 760 OFFCURVE",
"107 760 CURVE SMOOTH",
"83 760 OFFCURVE",
"68 738 OFFCURVE",
"68 718 CURVE SMOOTH",
"68 708 OFFCURVE",
"71 640 OFFCURVE",
"77 515 CURVE SMOOTH",
"83 389 OFFCURVE",
"86 303 OFFCURVE",
"86 258 CURVE",
"73 173 OFFCURVE",
"66 108 OFFCURVE",
"66 61 CURVE SMOOTH",
"66 14 OFFCURVE",
"81 -10 OFFCURVE",
"112 -10 CURVE SMOOTH",
"137 -10 OFFCURVE",
"150 7 OFFCURVE",
"150 41 CURVE",
"187 7 OFFCURVE",
"230 -10 OFFCURVE",
"280 -10 CURVE SMOOTH",
"412 -10 OFFCURVE",
"505 116 OFFCURVE",
"505 261 CURVE SMOOTH"
);
},
{
closed = 1;
nodes = (
"231 55 OFFCURVE",
"189 74 OFFCURVE",
"149 113 CURVE",
"144 267 LINE",
"177 371 OFFCURVE",
"242 445 OFFCURVE",
"317 445 CURVE SMOOTH",
"392 445 OFFCURVE",
"434 366 OFFCURVE",
"434 256 CURVE SMOOTH",
"434 146 OFFCURVE",
"362 55 OFFCURVE",
"275 55 CURVE SMOOTH"
);
}
);
width = 552;
}
);
note = b;
unicode = 0062;
},
{
glyphname = c;
lastChange = "2017-06-04 10:41:35 +0000";
layers = (
{
layerId = "016D93B1-224C-4BB2-94F2-5498F6B5D728";
paths = (
{
closed = 1;
nodes = (
"439 103 OFFCURVE",
"430 99 OFFCURVE",
"417 90 CURVE SMOOTH",
"380 63 OFFCURVE",
"341 50 OFFCURVE",
"302 50 CURVE SMOOTH",
"199 50 OFFCURVE",
"121 140 OFFCURVE",
"121 251 CURVE SMOOTH",
"121 362 OFFCURVE",
"201 450 OFFCURVE",
"293 450 CURVE SMOOTH",
"329 450 OFFCURVE",
"364 435 OFFCURVE",
"399 406 CURVE",
"410 396 OFFCURVE",
"420 391 OFFCURVE",
"429 391 CURVE SMOOTH",
"446 391 OFFCURVE",
"462 407 OFFCURVE",
"462 428 CURVE SMOOTH",
"462 468 OFFCURVE",
"386 515 OFFCURVE",
"302 515 CURVE SMOOTH",
"149 515 OFFCURVE",
"46 397 OFFCURVE",
"46 250 CURVE SMOOTH",
"46 103 OFFCURVE",
"151 -15 OFFCURVE",
"291 -15 CURVE SMOOTH",
"376 -15 OFFCURVE",
"471 41 OFFCURVE",
"471 77 CURVE SMOOTH",
"471 94 OFFCURVE",
"463 103 OFFCURVE",
"446 103 CURVE SMOOTH"
);
}
);
width = 509;
}
);
note = c;
unicode = 0063;
},
{
glyphname = d;
lastChange = "2017-06-04 10:41:35 +0000";
layers = (
{
layerId = "016D93B1-224C-4BB2-94F2-5498F6B5D728";
paths = (
{
closed = 1;
nodes = (
"379 113 OFFCURVE",
"321 55 OFFCURVE",
"251 55 CURVE SMOOTH",
"171 55 OFFCURVE",
"121 142 OFFCURVE",
"121 248 CURVE SMOOTH",
"121 354 OFFCURVE",
"197 445 OFFCURVE",
"282 445 CURVE SMOOTH",
"337 445 OFFCURVE",
"384 426 OFFCURVE",
"424 387 CURVE",
"424 228 LINE"
);
},
{
closed = 1;
nodes = (
"513 67 OFFCURVE",
"501 92 OFFCURVE",
"495 138 CURVE SMOOTH",
"489 184 OFFCURVE",
"486 248 OFFCURVE",
"486 329 CURVE",
"489 373 OFFCURVE",
"494 422 OFFCURVE",
"499 477 CURVE SMOOTH",
"510 585 OFFCURVE",
"515 646 OFFCURVE",
"515 691 CURVE SMOOTH",
"515 736 OFFCURVE",
"495 760 OFFCURVE",
"467 760 CURVE SMOOTH",
"452 760 OFFCURVE",
"442 755 OFFCURVE",
"436 745 CURVE SMOOTH",
"429 734 OFFCURVE",
"426 708 OFFCURVE",
"426 665 CURVE SMOOTH",
"426 622 OFFCURVE",
"425 554 OFFCURVE",
"424 461 CURVE",
"379 494 OFFCURVE",
"332 510 OFFCURVE",
"282 510 CURVE SMOOTH",
"145 510 OFFCURVE",
"47 384 OFFCURVE",
"47 239 CURVE SMOOTH",
"47 202 OFFCURVE",
"54 166 OFFCURVE",
"67 129 CURVE SMOOTH",
"94 56 OFFCURVE",
"159 -10 OFFCURVE",
"246 -10 CURVE SMOOTH",
"321 -10 OFFCURVE",
"382 35 OFFCURVE",
"431 124 CURVE",
"436 77 OFFCURVE",
"444 43 OFFCURVE",
"455 22 CURVE SMOOTH",
"466 1 OFFCURVE",
"481 -10 OFFCURVE",
"500 -10 CURVE SMOOTH",
"539 -10 OFFCURVE",
"556 24 OFFCURVE",
"556 49 CURVE SMOOTH",
"556 59 OFFCURVE",
"547 64 OFFCURVE",
"530 64 CURVE"
);
}
);
width = 588;
}
);
note = d;
unicode = 0064;
},
{
glyphname = e;
lastChange = "2017-06-04 10:41:35 +0000";
layers = (
{
layerId = "016D93B1-224C-4BB2-94F2-5498F6B5D728";
paths = (
{
closed = 1;
nodes = (
"226 269 OFFCURVE",
"185 274 OFFCURVE",
"148 285 CURVE",
"165 373 OFFCURVE",
"229 450 OFFCURVE",
"317 450 CURVE SMOOTH",
"382 450 OFFCURVE",
"419 406 OFFCURVE",
"419 354 CURVE SMOOTH",
"419 302 OFFCURVE",
"361 269 OFFCURVE",
"271 269 CURVE SMOOTH"
);
},
{
closed = 1;
nodes = (
"201 515 OFFCURVE",
"112 429 OFFCURVE",
"83 309 CURVE",
"71 315 OFFCURVE",
"61 318 OFFCURVE",
"53 318 CURVE SMOOTH",
"37 318 OFFCURVE",
"24 306 OFFCURVE",
"24 286 CURVE SMOOTH",
"24 262 OFFCURVE",
"42 245 OFFCURVE",
"77 234 CURVE",
"84 97 OFFCURVE",
"169 -15 OFFCURVE",
"308 -15 CURVE SMOOTH",
"397 -15 OFFCURVE",
"490 48 OFFCURVE",
"490 85 CURVE SMOOTH",
"490 100 OFFCURVE",
"479 111 OFFCURVE",
"463 111 CURVE SMOOTH",
"454 111 OFFCURVE",
"437 101 OFFCURVE",
"410 80 CURVE SMOOTH",
"390 65 OFFCURVE",
"348 50 OFFCURVE",
"303 50 CURVE SMOOTH",
"227 50 OFFCURVE",
"155 128 OFFCURVE",
"147 221 CURVE",
"197 211 OFFCURVE",
"239 206 OFFCURVE",
"274 206 CURVE SMOOTH",
"395 206 OFFCURVE",
"490 257 OFFCURVE",
"490 353 CURVE SMOOTH",
"490 449 OFFCURVE",
"416 515 OFFCURVE",
"309 515 CURVE SMOOTH"
);
}
);
width = 539;
}
);
note = e;
unicode = 0065;
},
{
glyphname = f;
lastChange = "2017-06-04 10:41:35 +0000";
layers = (
{
layerId = "016D93B1-224C-4BB2-94F2-5498F6B5D728";
paths = (
{
closed = 1;
nodes = (
"175 654 OFFCURVE",
"196 693 OFFCURVE",
"237 693 CURVE SMOOTH",
"250 693 OFFCURVE",
"264 689 OFFCURVE",
"278 681 CURVE SMOOTH",
"292 673 OFFCURVE",
"303 669 OFFCURVE",
"312 669 CURVE SMOOTH",
"331 669 OFFCURVE",
"340 680 OFFCURVE",
"340 702 CURVE SMOOTH",
"340 730 OFFCURVE",
"293 760 OFFCURVE",
"229 760 CURVE SMOOTH",
"165 760 OFFCURVE",
"108 709 OFFCURVE",
"108 585 CURVE SMOOTH",
"108 500 LINE",
"58 502 LINE",
"37 502 OFFCURVE",
"20 491 OFFCURVE",
"20 470 CURVE SMOOTH",
"20 450 OFFCURVE",
"33 440 OFFCURVE",
"58 440 CURVE",
"109 442 LINE",
"109 375 LINE SMOOTH",
"109 283 OFFCURVE",
"107 190 OFFCURVE",
"104 96 CURVE SMOOTH",
"103 65 OFFCURVE",
"103 44 OFFCURVE",
"103 34 CURVE SMOOTH",
"103 13 OFFCURVE",
"118 -10 OFFCURVE",
"142 -10 CURVE SMOOTH",
"166 -10 OFFCURVE",
"181 13 OFFCURVE",
"181 34 CURVE SMOOTH",
"181 44 OFFCURVE",
"180 80 OFFCURVE",
"178 143 CURVE SMOOTH",
"176 206 OFFCURVE",
"175 283 OFFCURVE",
"175 375 CURVE SMOOTH",
"175 442 LINE",
"272 440 LINE SMOOTH",
"297 440 OFFCURVE",
"310 450 OFFCURVE",
"310 470 CURVE SMOOTH",
"310 491 OFFCURVE",
"293 502 OFFCURVE",
"272 502 CURVE SMOOTH",
"175 500 LINE",
"175 576 LINE SMOOTH"
);
}
);
width = 327;
}
);
note = f;
unicode = 0066;
},
{
glyphname = g;
lastChange = "2017-06-04 10:41:35 +0000";
layers = (
{
layerId = "016D93B1-224C-4BB2-94F2-5498F6B5D728";
paths = (
{
closed = 1;
nodes = (
"376 131 OFFCURVE",
"310 55 OFFCURVE",
"238 55 CURVE SMOOTH",
"165 55 OFFCURVE",
"121 136 OFFCURVE",
"121 245 CURVE SMOOTH",
"121 353 OFFCURVE",
"198 445 OFFCURVE",
"287 445 CURVE SMOOTH",
"331 445 OFFCURVE",
"371 426 OFFCURVE",
"408 387 CURVE",
"408 234 LINE"
);
},
{
closed = 1;
nodes = (
"369 494 OFFCURVE",
"327 510 OFFCURVE",
"281 510 CURVE SMOOTH",
"149 510 OFFCURVE",
"47 380 OFFCURVE",
"47 248 CURVE SMOOTH",
"47 181 OFFCURVE",
"62 123 OFFCURVE",
"92 73 CURVE SMOOTH",
"123 24 OFFCURVE",
"172 -10 OFFCURVE",
"242 -10 CURVE SMOOTH",
"312 -10 OFFCURVE",
"386 50 OFFCURVE",
"415 122 CURVE",
"418 100 OFFCURVE",
"420 76 OFFCURVE",
"420 50 CURVE SMOOTH",
"420 -77 OFFCURVE",
"355 -165 OFFCURVE",
"248 -165 CURVE SMOOTH",
"211 -165 OFFCURVE",
"179 -159 OFFCURVE",
"151 -146 CURVE",
"122 -134 OFFCURVE",
"105 -128 OFFCURVE",
"99 -128 CURVE SMOOTH",
"84 -128 OFFCURVE",
"76 -136 OFFCURVE",
"76 -153 CURVE SMOOTH",
"76 -187 OFFCURVE",
"165 -230 OFFCURVE",
"248 -230 CURVE SMOOTH",
"396 -230 OFFCURVE",
"482 -115 OFFCURVE",
"482 60 CURVE SMOOTH",
"482 100 OFFCURVE",
"478 161 OFFCURVE",
"470 242 CURVE",
"483 327 OFFCURVE",
"490 393 OFFCURVE",
"490 440 CURVE SMOOTH",
"490 487 OFFCURVE",
"475 510 OFFCURVE",
"444 510 CURVE SMOOTH",
"420 510 OFFCURVE",
"407 494 OFFCURVE",
"406 463 CURVE"
);
}
);
width = 558;
}
);
note = g;
unicode = 0067;
},
{
glyphname = h;
lastChange = "2017-06-04 10:41:35 +0000";
layers = (
{
layerId = "016D93B1-224C-4BB2-94F2-5498F6B5D728";
paths = (
{
closed = 1;
nodes = (
"494 423 OFFCURVE",
"433 510 OFFCURVE",
"326 510 CURVE SMOOTH",
"255 510 OFFCURVE",
"195 468 OFFCURVE",
"146 383 CURVE",
"146 710 LINE SMOOTH",
"146 741 OFFCURVE",
"131 760 OFFCURVE",
"107 760 CURVE SMOOTH",
"83 760 OFFCURVE",
"68 738 OFFCURVE",
"68 718 CURVE SMOOTH",
"68 708 OFFCURVE",
"71 640 OFFCURVE",
"77 515 CURVE SMOOTH",
"83 389 OFFCURVE",
"86 303 OFFCURVE",
"86 258 CURVE",
"73 173 OFFCURVE",
"66 108 OFFCURVE",
"66 61 CURVE SMOOTH",
"66 14 OFFCURVE",
"81 -10 OFFCURVE",
"112 -10 CURVE SMOOTH",
"137 -10 OFFCURVE",
"150 7 OFFCURVE",
"150 41 CURVE",
"147 258 LINE",
"172 354 OFFCURVE",
"245 444 OFFCURVE",
"314 444 CURVE SMOOTH",
"382 444 OFFCURVE",
"423 383 OFFCURVE",
"423 292 CURVE SMOOTH",
"419 108 LINE SMOOTH",
"419 31 OFFCURVE",
"435 -10 OFFCURVE",
"486 -10 CURVE SMOOTH",
"515 -10 OFFCURVE",
"541 16 OFFCURVE",
"541 51 CURVE SMOOTH",
"541 59 OFFCURVE",
"537 61 OFFCURVE",
"526 62 CURVE SMOOTH",
"514 63 OFFCURVE",
"503 65 OFFCURVE",
"496 86 CURVE",
"488 106 OFFCURVE",
"489 121 OFFCURVE",
"489 158 CURVE SMOOTH",
"494 315 LINE SMOOTH"
);
}
);
width = 577;
}
);
note = h;
unicode = 0068;
},
{
glyphname = i;
lastChange = "2017-06-04 10:41:35 +0000";
layers = (
{
layerId = "016D93B1-224C-4BB2-94F2-5498F6B5D728";
paths = (
{
closed = 1;
nodes = (
"89 725 OFFCURVE",
"67 698 OFFCURVE",
"67 667 CURVE SMOOTH",
"67 636 OFFCURVE",
"81 616 OFFCURVE",
"109 616 CURVE SMOOTH",
"137 616 OFFCURVE",
"158 650 OFFCURVE",
"158 678 CURVE SMOOTH",
"158 705 OFFCURVE",
"145 725 OFFCURVE",
"117 725 CURVE SMOOTH"
);
},
{
closed = 1;
nodes = (
"150 493 OFFCURVE",
"137 510 OFFCURVE",
"112 510 CURVE SMOOTH",
"87 510 OFFCURVE",
"74 493 OFFCURVE",
"74 460 CURVE SMOOTH",
"79 250 LINE",
"74 40 LINE SMOOTH",
"74 7 OFFCURVE",
"87 -10 OFFCURVE",
"112 -10 CURVE SMOOTH",
"137 -10 OFFCURVE",
"150 7 OFFCURVE",
"150 40 CURVE",
"145 250 LINE",
"150 460 LINE SMOOTH"
);
}
);
width = 224;
}
);
note = i;
unicode = 0069;
},
{
glyphname = j;
lastChange = "2017-06-04 10:41:35 +0000";
layers = (
{
layerId = "016D93B1-224C-4BB2-94F2-5498F6B5D728";
paths = (
{
closed = 1;
nodes = (
"89 725 OFFCURVE",
"67 698 OFFCURVE",
"67 667 CURVE SMOOTH",
"67 636 OFFCURVE",
"81 616 OFFCURVE",
"109 616 CURVE SMOOTH",
"137 616 OFFCURVE",
"158 650 OFFCURVE",
"158 678 CURVE SMOOTH",
"158 705 OFFCURVE",
"145 725 OFFCURVE",
"117 725 CURVE SMOOTH"
);
},
{
closed = 1;
nodes = (
"150 493 OFFCURVE",
"137 510 OFFCURVE",
"112 510 CURVE SMOOTH",
"87 510 OFFCURVE",
"74 493 OFFCURVE",
"74 460 CURVE SMOOTH",
"79 230 LINE",
"80 20 LINE SMOOTH",
"80 -43 OFFCURVE",
"59 -93 OFFCURVE",
"36 -114 CURVE SMOOTH",
"7 -142 OFFCURVE",
"-7 -161 OFFCURVE",
"-7 -170 CURVE SMOOTH",
"-7 -183 OFFCURVE",
"2 -189 OFFCURVE",
"20 -189 CURVE SMOOTH",
"69 -189 OFFCURVE",
"144 -105 OFFCURVE",
"144 10 CURVE SMOOTH",
"145 230 LINE",
"150 460 LINE SMOOTH"
);
}
);
width = 223;
}
);
note = j;
unicode = 006A;
},
{
glyphname = k;
lastChange = "2017-06-04 10:41:35 +0000";
layers = (
{
layerId = "016D93B1-224C-4BB2-94F2-5498F6B5D728";
paths = (
{
closed = 1;
nodes = (
"172 355 OFFCURVE",
"247 444 OFFCURVE",
"322 444 CURVE SMOOTH",
"363 444 OFFCURVE",
"384 421 OFFCURVE",
"384 384 CURVE SMOOTH",
"384 347 OFFCURVE",
"338 292 OFFCURVE",
"287 269 CURVE",
"272 286 OFFCURVE",
"257 294 OFFCURVE",
"242 294 CURVE SMOOTH",
"213 294 OFFCURVE",
"193 275 OFFCURVE",
"193 248 CURVE SMOOTH",
"193 221 OFFCURVE",
"218 199 OFFCURVE",
"253 199 CURVE",
"274 170 OFFCURVE",
"303 123 OFFCURVE",
"342 60 CURVE SMOOTH",
"350 47 OFFCURVE",
"359 34 OFFCURVE",
"368 22 CURVE SMOOTH",
"386 -3 OFFCURVE",
"397 -10 OFFCURVE",
"425 -10 CURVE SMOOTH",
"453 -10 OFFCURVE",
"476 19 OFFCURVE",
"476 51 CURVE SMOOTH",
"476 57 OFFCURVE",
"473 60 OFFCURVE",
"466 60 CURVE SMOOTH",
"452 60 OFFCURVE",
"419 68 OFFCURVE",
"394 107 CURVE SMOOTH",
"320 221 LINE",
"340 234 OFFCURVE",
"356 244 OFFCURVE",
"369 253 CURVE SMOOTH",
"426 292 OFFCURVE",
"454 338 OFFCURVE",
"454 393 CURVE SMOOTH",
"454 458 OFFCURVE",
"403 510 OFFCURVE",
"326 510 CURVE SMOOTH",
"255 510 OFFCURVE",
"195 468 OFFCURVE",
"146 383 CURVE",
"146 710 LINE SMOOTH",
"146 741 OFFCURVE",
"131 760 OFFCURVE",
"107 760 CURVE SMOOTH",
"83 760 OFFCURVE",
"68 738 OFFCURVE",
"68 718 CURVE SMOOTH",
"68 708 OFFCURVE",
"71 640 OFFCURVE",
"77 515 CURVE SMOOTH",
"83 389 OFFCURVE",
"86 303 OFFCURVE",
"86 258 CURVE",
"73 173 OFFCURVE",
"66 108 OFFCURVE",
"66 61 CURVE SMOOTH",
"66 14 OFFCURVE",
"81 -10 OFFCURVE",
"112 -10 CURVE SMOOTH",
"137 -10 OFFCURVE",
"150 7 OFFCURVE",
"150 41 CURVE",
"147 258 LINE"
);
}
);
width = 510;
}
);
note = k;
unicode = 006B;
},
{
glyphname = l;
lastChange = "2017-06-04 10:41:35 +0000";
layers = (
{
layerId = "016D93B1-224C-4BB2-94F2-5498F6B5D728";
paths = (
{
closed = 1;
nodes = (
"150 743 OFFCURVE",
"137 760 OFFCURVE",
"112 760 CURVE SMOOTH",
"87 760 OFFCURVE",
"74 743 OFFCURVE",
"74 710 CURVE SMOOTH",
"79 375 LINE",
"74 40 LINE SMOOTH",
"74 7 OFFCURVE",
"87 -10 OFFCURVE",
"112 -10 CURVE SMOOTH",
"137 -10 OFFCURVE",
"150 7 OFFCURVE",
"150 40 CURVE",
"145 375 LINE",
"150 710 LINE SMOOTH"
);
}
);
width = 224;
}
);
note = l;
unicode = 006C;
},
{
glyphname = m;
lastChange = "2017-06-04 10:41:35 +0000";
layers = (
{
layerId = "016D93B1-224C-4BB2-94F2-5498F6B5D728";
paths = (
{
closed = 1;
nodes = (
"794 423 OFFCURVE",
"736 510 OFFCURVE",
"636 510 CURVE SMOOTH",
"568 510 OFFCURVE",
"511 468 OFFCURVE",
"466 383 CURVE",
"447 460 OFFCURVE",
"397 510 OFFCURVE",
"318 510 CURVE SMOOTH",
"250 510 OFFCURVE",
"193 468 OFFCURVE",
"148 383 CURVE",
"148 394 OFFCURVE",
"148 408 OFFCURVE",
"149 425 CURVE",
"149 441 OFFCURVE",
"149 455 OFFCURVE",
"149 466 CURVE SMOOTH",
"149 489 OFFCURVE",
"134 510 OFFCURVE",
"110 510 CURVE SMOOTH",
"86 510 OFFCURVE",
"71 489 OFFCURVE",
"71 466 CURVE SMOOTH",
"71 454 OFFCURVE",
"74 423 OFFCURVE",
"80 374 CURVE SMOOTH",
"85 325 OFFCURVE",
"88 286 OFFCURVE",
"88 258 CURVE",
"75 173 OFFCURVE",
"68 108 OFFCURVE",
"68 61 CURVE SMOOTH",
"68 14 OFFCURVE",
"83 -10 OFFCURVE",
"114 -10 CURVE SMOOTH",
"139 -10 OFFCURVE",
"152 7 OFFCURVE",
"152 41 CURVE",
"149 258 LINE",
"173 354 OFFCURVE",
"241 444 OFFCURVE",
"304 444 CURVE SMOOTH",
"372 444 OFFCURVE",
"406 382 OFFCURVE",
"406 258 CURVE",
"393 173 OFFCURVE",
"386 108 OFFCURVE",
"386 61 CURVE SMOOTH",
"386 14 OFFCURVE",
"401 -10 OFFCURVE",
"432 -10 CURVE SMOOTH",
"457 -10 OFFCURVE",
"470 7 OFFCURVE",
"470 41 CURVE",
"467 258 LINE",
"491 354 OFFCURVE",
"559 444 OFFCURVE",
"623 444 CURVE SMOOTH",
"686 444 OFFCURVE",
"723 383 OFFCURVE",
"723 292 CURVE SMOOTH",
"719 108 LINE SMOOTH",
"719 31 OFFCURVE",
"735 -10 OFFCURVE",
"786 -10 CURVE SMOOTH",
"815 -10 OFFCURVE",
"841 16 OFFCURVE",
"841 51 CURVE SMOOTH",
"841 59 OFFCURVE",
"837 61 OFFCURVE",
"826 62 CURVE SMOOTH",
"814 63 OFFCURVE",
"803 65 OFFCURVE",
"796 86 CURVE",
"788 106 OFFCURVE",
"789 121 OFFCURVE",
"789 158 CURVE SMOOTH",
"794 315 LINE SMOOTH"
);
}
);
width = 877;
}
);
note = m;
unicode = 006D;
},
{
glyphname = n;
lastChange = "2017-06-04 10:41:35 +0000";
layers = (
{
layerId = "016D93B1-224C-4BB2-94F2-5498F6B5D728";
paths = (
{
closed = 1;
nodes = (
"496 423 OFFCURVE",
"435 510 OFFCURVE",
"328 510 CURVE SMOOTH",
"257 510 OFFCURVE",
"197 468 OFFCURVE",
"148 383 CURVE",
"148 394 OFFCURVE",
"148 408 OFFCURVE",
"149 425 CURVE",
"149 441 OFFCURVE",
"149 455 OFFCURVE",
"149 466 CURVE SMOOTH",
"149 489 OFFCURVE",
"134 510 OFFCURVE",
"110 510 CURVE SMOOTH",
"86 510 OFFCURVE",
"71 489 OFFCURVE",
"71 466 CURVE SMOOTH",
"71 454 OFFCURVE",
"74 423 OFFCURVE",
"80 374 CURVE SMOOTH",
"85 325 OFFCURVE",
"88 286 OFFCURVE",
"88 258 CURVE",
"75 173 OFFCURVE",
"68 108 OFFCURVE",
"68 61 CURVE SMOOTH",
"68 14 OFFCURVE",
"83 -10 OFFCURVE",
"114 -10 CURVE SMOOTH",
"139 -10 OFFCURVE",
"152 7 OFFCURVE",
"152 41 CURVE",
"149 258 LINE",
"174 354 OFFCURVE",
"247 444 OFFCURVE",
"316 444 CURVE SMOOTH",
"384 444 OFFCURVE",
"425 383 OFFCURVE",
"425 292 CURVE SMOOTH",
"421 108 LINE SMOOTH",
"421 31 OFFCURVE",
"437 -10 OFFCURVE",
"488 -10 CURVE SMOOTH",
"517 -10 OFFCURVE",
"543 16 OFFCURVE",
"543 51 CURVE SMOOTH",
"543 59 OFFCURVE",
"539 61 OFFCURVE",
"528 62 CURVE SMOOTH",
"516 63 OFFCURVE",
"505 65 OFFCURVE",
"498 86 CURVE",
"490 106 OFFCURVE",
"491 121 OFFCURVE",
"491 158 CURVE SMOOTH",
"496 315 LINE SMOOTH"
);
}
);
width = 579;
}
);
note = n;
unicode = 006E;
},
{
glyphname = o;
lastChange = "2017-06-04 10:41:35 +0000";
layers = (
{
layerId = "016D93B1-224C-4BB2-94F2-5498F6B5D728";
paths = (
{
closed = 1;
nodes = (
"364 70 OFFCURVE",
"325 50 OFFCURVE",
"279 50 CURVE SMOOTH",
"187 50 OFFCURVE",
"117 138 OFFCURVE",
"117 249 CURVE SMOOTH",
"117 360 OFFCURVE",
"191 450 OFFCURVE",
"283 450 CURVE SMOOTH",
"375 450 OFFCURVE",
"445 362 OFFCURVE",
"445 251 CURVE SMOOTH",
"445 196 OFFCURVE",
"429 148 OFFCURVE",
"397 109 CURVE SMOOTH"
);
},
{
closed = 1;
nodes = (
"145 515 OFFCURVE",
"46 397 OFFCURVE",
"46 249 CURVE SMOOTH",
"46 101 OFFCURVE",
"144 -15 OFFCURVE",
"280 -15 CURVE SMOOTH",
"416 -15 OFFCURVE",
"516 103 OFFCURVE",
"516 251 CURVE SMOOTH",
"516 399 OFFCURVE",
"418 515 OFFCURVE",
"282 515 CURVE SMOOTH"
);
}
);
width = 562;
}
);
note = o;
unicode = 006F;
},
{
glyphname = p;
lastChange = "2017-06-04 10:41:35 +0000";
layers = (
{
layerId = "016D93B1-224C-4BB2-94F2-5498F6B5D728";
paths = (
{
closed = 1;
nodes = (
"233 55 OFFCURVE",
"186 74 OFFCURVE",
"146 113 CURVE",
"146 272 LINE",
"191 387 OFFCURVE",
"249 445 OFFCURVE",
"319 445 CURVE SMOOTH",
"399 445 OFFCURVE",
"449 359 OFFCURVE",
"449 253 CURVE SMOOTH",
"449 147 OFFCURVE",
"373 55 OFFCURVE",
"288 55 CURVE SMOOTH"
);
},
{
closed = 1;
nodes = (
"81 131 OFFCURVE",
"76 86 OFFCURVE",
"71 37 CURVE SMOOTH",
"60 -63 OFFCURVE",
"55 -118 OFFCURVE",
"55 -162 CURVE SMOOTH",
"55 -206 OFFCURVE",
"75 -230 OFFCURVE",
"103 -230 CURVE SMOOTH",
"117 -230 OFFCURVE",
"127 -225 OFFCURVE",
"134 -214 CURVE",
"141 -204 OFFCURVE",
"144 -179 OFFCURVE",
"144 -140 CURVE SMOOTH",
"144 -101 OFFCURVE",
"145 -42 OFFCURVE",
"146 39 CURVE",
"191 6 OFFCURVE",
"238 -10 OFFCURVE",
"288 -10 CURVE SMOOTH",
"425 -10 OFFCURVE",
"523 116 OFFCURVE",
"523 261 CURVE SMOOTH",
"523 298 OFFCURVE",
"516 334 OFFCURVE",
"503 371 CURVE SMOOTH",
"476 444 OFFCURVE",
"411 510 OFFCURVE",
"324 510 CURVE SMOOTH",
"237 510 OFFCURVE",
"188 462 OFFCURVE",
"144 381 CURVE",
"144 392 OFFCURVE",
"144 407 OFFCURVE",
"145 424 CURVE",
"145 441 OFFCURVE",
"145 455 OFFCURVE",
"145 466 CURVE SMOOTH",
"145 489 OFFCURVE",
"130 510 OFFCURVE",
"106 510 CURVE SMOOTH",
"82 510 OFFCURVE",
"67 489 OFFCURVE",
"67 466 CURVE SMOOTH",
"67 454 OFFCURVE",
"70 421 OFFCURVE",
"76 367 CURVE SMOOTH",
"82 313 OFFCURVE",
"85 272 OFFCURVE",
"85 244 CURVE SMOOTH",
"85 228 LINE",
"84 190 LINE",
"84 171 LINE"
);
}
);
width = 570;
}
);
note = p;
unicode = 0070;
},
{
glyphname = q;
lastChange = "2017-06-04 10:41:35 +0000";
layers = (
{
layerId = "016D93B1-224C-4BB2-94F2-5498F6B5D728";
paths = (
{
closed = 1;
nodes = (
"48 148 OFFCURVE",
"75 79 OFFCURVE",
"128 30 CURVE SMOOTH",
"157 3 OFFCURVE",
"192 -10 OFFCURVE",
"231 -10 CURVE SMOOTH",
"309 -10 OFFCURVE",
"371 38 OFFCURVE",
"407 106 CURVE",
"407 -180 LINE SMOOTH",
"407 -211 OFFCURVE",
"422 -230 OFFCURVE",
"446 -230 CURVE SMOOTH",
"470 -230 OFFCURVE",
"485 -208 OFFCURVE",
"485 -188 CURVE SMOOTH",
"485 -178 OFFCURVE",
"482 -114 OFFCURVE",
"476 3 CURVE SMOOTH",
"470 120 OFFCURVE",
"467 200 OFFCURVE",
"467 242 CURVE",
"480 327 OFFCURVE",
"487 393 OFFCURVE",
"487 440 CURVE SMOOTH",
"487 487 OFFCURVE",
"472 510 OFFCURVE",
"441 510 CURVE SMOOTH",
"416 510 OFFCURVE",
"403 493 OFFCURVE",
"403 459 CURVE",
"366 493 OFFCURVE",
"323 510 OFFCURVE",
"273 510 CURVE SMOOTH",
"141 510 OFFCURVE",
"48 384 OFFCURVE",
"48 239 CURVE SMOOTH"
);
},
{
closed = 1;
nodes = (
"322 445 OFFCURVE",
"364 426 OFFCURVE",
"404 387 CURVE",
"409 233 LINE",
"376 129 OFFCURVE",
"311 55 OFFCURVE",
"236 55 CURVE SMOOTH",
"161 55 OFFCURVE",
"119 135 OFFCURVE",
"119 245 CURVE SMOOTH",
"119 355 OFFCURVE",
"191 445 OFFCURVE",
"279 445 CURVE SMOOTH"
);
}
);
width = 553;
}
);
note = q;
unicode = 0071;
},
{
glyphname = r;
lastChange = "2017-06-04 10:41:35 +0000";
layers = (
{
layerId = "016D93B1-224C-4BB2-94F2-5498F6B5D728";
paths = (
{
closed = 1;
nodes = (
"165 326 OFFCURVE",
"238 444 OFFCURVE",
"282 444 CURVE SMOOTH",
"290 444 OFFCURVE",
"301 438 OFFCURVE",
"315 426 CURVE",
"328 413 OFFCURVE",
"341 407 OFFCURVE",
"353 407 CURVE SMOOTH",
"376 407 OFFCURVE",
"392 424 OFFCURVE",
"392 452 CURVE SMOOTH",
"392 480 OFFCURVE",
"358 510 OFFCURVE",
"298 510 CURVE SMOOTH",
"238 510 OFFCURVE",
"175 449 OFFCURVE",
"148 381 CURVE",
"148 392 OFFCURVE",
"148 407 OFFCURVE",
"149 424 CURVE",
"149 441 OFFCURVE",
"149 455 OFFCURVE",
"149 466 CURVE SMOOTH",
"149 488 OFFCURVE",
"134 510 OFFCURVE",
"110 510 CURVE SMOOTH",
"86 510 OFFCURVE",
"71 488 OFFCURVE",
"71 464 CURVE SMOOTH",
"71 452 OFFCURVE",
"74 422 OFFCURVE",
"80 373 CURVE SMOOTH",
"85 324 OFFCURVE",
"88 286 OFFCURVE",
"88 258 CURVE",
"75 173 OFFCURVE",
"68 108 OFFCURVE",
"68 61 CURVE SMOOTH",
"68 14 OFFCURVE",
"83 -10 OFFCURVE",
"114 -10 CURVE SMOOTH",
"139 -10 OFFCURVE",
"152 7 OFFCURVE",
"152 41 CURVE",
"149 229 LINE"
);
}
);
width = 408;
}
);
note = r;
unicode = 0072;
},
{
glyphname = s;
lastChange = "2017-06-04 10:41:35 +0000";
layers = (
{
layerId = "016D93B1-224C-4BB2-94F2-5498F6B5D728";
paths = (
{
closed = 1;
nodes = (
"416 173 OFFCURVE",
"406 198 OFFCURVE",
"387 220 CURVE SMOOTH",
"348 263 OFFCURVE",
"288 284 OFFCURVE",
"233 304 CURVE SMOOTH",
"177 324 OFFCURVE",
"133 347 OFFCURVE",
"133 381 CURVE SMOOTH",
"133 415 OFFCURVE",
"173 445 OFFCURVE",
"230 445 CURVE SMOOTH",
"259 445 OFFCURVE",
"289 434 OFFCURVE",
"320 412 CURVE SMOOTH",
"330 405 OFFCURVE",
"340 401 OFFCURVE",
"350 401 CURVE SMOOTH",
"373 401 OFFCURVE",
"385 412 OFFCURVE",
"385 434 CURVE SMOOTH",
"385 452 OFFCURVE",
"371 469 OFFCURVE",
"344 486 CURVE",
"316 502 OFFCURVE",
"278 510 OFFCURVE",
"231 510 CURVE SMOOTH",
"136 510 OFFCURVE",
"62 447 OFFCURVE",
"62 375 CURVE SMOOTH",
"62 348 OFFCURVE",
"72 325 OFFCURVE",
"91 306 CURVE SMOOTH",
"130 267 OFFCURVE",
"189 249 OFFCURVE",
"244 230 CURVE SMOOTH",
"311 207 OFFCURVE",
"344 178 OFFCURVE",
"344 143 CURVE SMOOTH",
"344 86 OFFCURVE",
"291 55 OFFCURVE",
"218 55 CURVE SMOOTH",
"201 55 OFFCURVE",
"183 59 OFFCURVE",
"164 66 CURVE SMOOTH",
"124 81 OFFCURVE",
"119 91 OFFCURVE",
"103 108 CURVE SMOOTH",
"87 125 OFFCURVE",
"81 130 OFFCURVE",
"66 130 CURVE SMOOTH",
"50 130 OFFCURVE",
"36 116 OFFCURVE",
"36 96 CURVE SMOOTH",
"36 49 OFFCURVE",
"124 -10 OFFCURVE",
"228 -10 CURVE SMOOTH",
"331 -10 OFFCURVE",
"416 53 OFFCURVE",
"416 144 CURVE SMOOTH"
);
}
);
width = 455;
}
);
note = s;
unicode = 0073;
},
{
glyphname = t;
lastChange = "2017-06-04 10:41:35 +0000";
layers = (
{
layerId = "016D93B1-224C-4BB2-94F2-5498F6B5D728";
paths = (
{
closed = 1;
nodes = (
"232 438 OFFCURVE",
"260 437 OFFCURVE",
"266 437 CURVE SMOOTH",
"299 437 OFFCURVE",
"316 448 OFFCURVE",
"316 469 CURVE SMOOTH",
"316 492 OFFCURVE",
"299 503 OFFCURVE",
"266 503 CURVE",
"185 499 LINE",
"188 612 LINE SMOOTH",
"188 645 OFFCURVE",
"175 662 OFFCURVE",
"150 662 CURVE SMOOTH",
"125 662 OFFCURVE",
"112 645 OFFCURVE",
"112 612 CURVE SMOOTH",
"114 500 LINE",
"87 501 OFFCURVE",
"73 502 OFFCURVE",
"70 502 CURVE SMOOTH",
"37 502 OFFCURVE",
"20 491 OFFCURVE",
"20 469 CURVE SMOOTH",
"20 447 OFFCURVE",
"37 436 OFFCURVE",
"70 436 CURVE SMOOTH",
"79 436 OFFCURVE",
"94 437 OFFCURVE",
"116 439 CURVE",
"117 118 LINE SMOOTH",
"117 33 OFFCURVE",
"146 -10 OFFCURVE",
"204 -10 CURVE SMOOTH",
"252 -10 OFFCURVE",
"314 28 OFFCURVE",
"314 56 CURVE SMOOTH",
"314 69 OFFCURVE",
"307 76 OFFCURVE",
"293 76 CURVE SMOOTH",
"288 76 OFFCURVE",
"279 73 OFFCURVE",
"265 66 CURVE SMOOTH",
"250 59 OFFCURVE",
"238 55 OFFCURVE",
"228 55 CURVE SMOOTH",
"207 55 OFFCURVE",
"194 64 OFFCURVE",
"189 83 CURVE SMOOTH",
"184 102 OFFCURVE",
"181 141 OFFCURVE",
"181 202 CURVE SMOOTH",
"183 439 LINE"
);
}
);
width = 337;
}
);
note = t;
unicode = 0074;
},
{
glyphname = u;
lastChange = "2017-06-04 10:41:35 +0000";
layers = (
{
layerId = "016D93B1-224C-4BB2-94F2-5498F6B5D728";
paths = (
{
closed = 1;
nodes = (
"151 483 OFFCURVE",
"136 510 OFFCURVE",
"105 510 CURVE SMOOTH",
"80 510 OFFCURVE",
"62 490 OFFCURVE",
"62 470 CURVE SMOOTH",
"62 460 OFFCURVE",
"65 444 OFFCURVE",
"70 421 CURVE SMOOTH",
"75 398 OFFCURVE",
"78 373 OFFCURVE",
"78 346 CURVE",
"72 195 LINE",
"72 80 OFFCURVE",
"133 -10 OFFCURVE",
"240 -10 CURVE SMOOTH",
"315 -10 OFFCURVE",
"377 33 OFFCURVE",
"426 118 CURVE",
"426 33 OFFCURVE",
"447 -10 OFFCURVE",
"489 -10 CURVE SMOOTH",
"522 -10 OFFCURVE",
"547 15 OFFCURVE",
"547 51 CURVE SMOOTH",
"547 59 OFFCURVE",
"543 61 OFFCURVE",
"532 62 CURVE",
"526 63 OFFCURVE",
"521 64 OFFCURVE",
"517 66 CURVE",
"507 70 OFFCURVE",
"498 88 OFFCURVE",
"491 120 CURVE SMOOTH",
"484 151 OFFCURVE",
"480 192 OFFCURVE",
"480 242 CURVE",
"493 327 OFFCURVE",
"500 393 OFFCURVE",
"500 440 CURVE SMOOTH",
"500 487 OFFCURVE",
"485 510 OFFCURVE",
"454 510 CURVE SMOOTH",
"429 510 OFFCURVE",
"416 493 OFFCURVE",
"416 459 CURVE SMOOTH",
"419 242 LINE",
"394 146 OFFCURVE",
"321 55 OFFCURVE",
"253 55 CURVE SMOOTH",
"184 55 OFFCURVE",
"143 117 OFFCURVE",
"143 208 CURVE",
"151 428 LINE"
);
}
);
width = 584;
}
);
note = u;
unicode = 0075;
},
{
glyphname = v;
lastChange = "2017-06-04 10:41:35 +0000";
layers = (
{
layerId = "016D93B1-224C-4BB2-94F2-5498F6B5D728";
paths = (
{
closed = 1;
nodes = (
"228 105 OFFCURVE",
"214 141 OFFCURVE",
"206 166 CURVE",
"197 191 OFFCURVE",
"179 243 OFFCURVE",
"164 283 CURVE SMOOTH",
"157 302 OFFCURVE",
"145 337 OFFCURVE",
"129 388 CURVE SMOOTH",
"96 488 OFFCURVE",
"94 510 OFFCURVE",
"58 510 CURVE SMOOTH",
"38 510 OFFCURVE",
"23 497 OFFCURVE",
"23 475 CURVE SMOOTH",
"23 453 OFFCURVE",
"42 402 OFFCURVE",
"54 374 CURVE",
"59 360 OFFCURVE",
"67 340 OFFCURVE",
"77 315 CURVE SMOOTH",
"87 290 OFFCURVE",
"107 238 OFFCURVE",
"137 159 CURVE SMOOTH",
"167 80 OFFCURVE",
"184 35 OFFCURVE",
"189 26 CURVE",
"201 2 OFFCURVE",
"219 -10 OFFCURVE",
"242 -10 CURVE SMOOTH",
"265 -10 OFFCURVE",
"283 4 OFFCURVE",
"297 31 CURVE SMOOTH",
"311 58 OFFCURVE",
"332 111 OFFCURVE",
"360 188 CURVE SMOOTH",
"387 265 OFFCURVE",
"409 323 OFFCURVE",
"424 362 CURVE SMOOTH",
"439 400 OFFCURVE",
"449 427 OFFCURVE",
"455 442 CURVE",
"460 457 OFFCURVE",
"463 469 OFFCURVE",
"463 478 CURVE SMOOTH",
"463 496 OFFCURVE",
"447 510 OFFCURVE",
"427 510 CURVE SMOOTH",
"410 510 OFFCURVE",
"397 498 OFFCURVE",
"388 474 CURVE SMOOTH",
"385 466 OFFCURVE",
"375 437 OFFCURVE",
"359 387 CURVE SMOOTH",
"343 336 OFFCURVE",
"330 296 OFFCURVE",
"319 267 CURVE SMOOTH",
"302 218 LINE",
"293 195 OFFCURVE",
"287 177 OFFCURVE",
"283 165 CURVE",
"274 141 OFFCURVE",
"260 105 OFFCURVE",
"253 91 CURVE",
"249 84 OFFCURVE",
"246 80 OFFCURVE",
"244 80 CURVE SMOOTH",
"242 80 OFFCURVE",
"239 84 OFFCURVE",
"236 91 CURVE"
);
}
);
width = 485;
}
);
note = v;
unicode = 0076;
},
{
glyphname = w;
lastChange = "2017-06-04 10:41:35 +0000";
layers = (
{
layerId = "016D93B1-224C-4BB2-94F2-5498F6B5D728";
paths = (
{
closed = 1;
nodes = (
"226 80 OFFCURVE",
"219 95 OFFCURVE",
"210 124 CURVE",
"199 155 OFFCURVE",
"192 176 OFFCURVE",
"179 219 CURVE SMOOTH",
"166 262 OFFCURVE",
"158 287 OFFCURVE",
"128 388 CURVE SMOOTH",
"98 488 OFFCURVE",
"100 510 OFFCURVE",
"61 510 CURVE SMOOTH",
"41 510 OFFCURVE",
"25 495 OFFCURVE",
"25 474 CURVE SMOOTH",
"25 453 OFFCURVE",
"42 405 OFFCURVE",
"53 376 CURVE",
"58 361 OFFCURVE",
"66 341 OFFCURVE",
"75 316 CURVE SMOOTH",
"93 265 OFFCURVE",
"108 219 OFFCURVE",
"137 131 CURVE SMOOTH",
"165 43 OFFCURVE",
"171 -10 OFFCURVE",
"222 -10 CURVE SMOOTH",
"247 -10 OFFCURVE",
"266 2 OFFCURVE",
"277 25 CURVE",
"290 49 OFFCURVE",
"314 122 OFFCURVE",
"349 245 CURVE",
"350 250 OFFCURVE",
"353 261 OFFCURVE",
"358 276 CURVE",
"366 306 OFFCURVE",
"385 377 OFFCURVE",
"394 377 CURVE SMOOTH",
"399 377 OFFCURVE",
"413 339 OFFCURVE",
"435 262 CURVE SMOOTH",
"457 185 OFFCURVE",
"480 111 OFFCURVE",
"504 42 CURVE SMOOTH",
"516 7 OFFCURVE",
"535 -10 OFFCURVE",
"562 -10 CURVE SMOOTH",
"589 -10 OFFCURVE",
"607 3 OFFCURVE",
"617 28 CURVE SMOOTH",
"630 60 OFFCURVE",
"647 111 OFFCURVE",
"669 180 CURVE SMOOTH",
"691 249 OFFCURVE",
"707 297 OFFCURVE",
"716 324 CURVE SMOOTH",
"725 350 OFFCURVE",
"731 370 OFFCURVE",
"736 385 CURVE SMOOTH",
"741 400 OFFCURVE",
"745 414 OFFCURVE",
"750 427 CURVE",
"758 453 OFFCURVE",
"761 463 OFFCURVE",
"761 480 CURVE SMOOTH",
"761 496 OFFCURVE",
"745 510 OFFCURVE",
"725 510 CURVE SMOOTH",
"692 510 OFFCURVE",
"691 483 OFFCURVE",
"664 384 CURVE SMOOTH",
"637 285 OFFCURVE",
"578 80 OFFCURVE",
"566 80 CURVE SMOOTH",
"559 80 OFFCURVE",
"538 143 OFFCURVE",
"501 268 CURVE SMOOTH",
"495 289 OFFCURVE",
"486 323 OFFCURVE",
"473 370 CURVE SMOOTH",
"460 417 OFFCURVE",
"450 452 OFFCURVE",
"443 475 CURVE",
"435 498 OFFCURVE",
"421 510 OFFCURVE",
"401 510 CURVE SMOOTH",
"380 510 OFFCURVE",
"365 498 OFFCURVE",
"356 474 CURVE",
"352 465 OFFCURVE",
"331 397 OFFCURVE",
"294 270 CURVE SMOOTH",
"257 143 OFFCURVE",
"235 80 OFFCURVE",
"229 80 CURVE SMOOTH"
);
}
);
width = 786;
}
);
note = w;
unicode = 0077;
},
{
glyphname = x;
lastChange = "2017-06-04 10:41:35 +0000";
layers = (
{
layerId = "016D93B1-224C-4BB2-94F2-5498F6B5D728";
paths = (
{
closed = 1;
nodes = (
"304 291 OFFCURVE",
"330 326 OFFCURVE",
"359 366 CURVE SMOOTH",
"388 405 OFFCURVE",
"407 432 OFFCURVE",
"415 445 CURVE SMOOTH",
"423 458 OFFCURVE",
"427 468 OFFCURVE",
"427 477 CURVE SMOOTH",
"427 493 OFFCURVE",
"412 510 OFFCURVE",
"393 510 CURVE SMOOTH",
"383 510 OFFCURVE",
"372 502 OFFCURVE",
"361 486 CURVE SMOOTH",
"359 483 OFFCURVE",
"321 426 OFFCURVE",
"246 313 CURVE",
"242 319 OFFCURVE",
"238 325 OFFCURVE",
"234 332 CURVE",
"229 339 OFFCURVE",
"226 344 OFFCURVE",
"223 348 CURVE SMOOTH",
"220 352 OFFCURVE",
"207 372 OFFCURVE",
"183 409 CURVE SMOOTH",
"159 445 OFFCURVE",
"140 472 OFFCURVE",
"125 489 CURVE SMOOTH",
"110 506 OFFCURVE",
"95 515 OFFCURVE",
"79 515 CURVE SMOOTH",
"47 515 OFFCURVE",
"28 489 OFFCURVE",
"28 456 CURVE SMOOTH",
"28 450 OFFCURVE",
"35 446 OFFCURVE",
"50 445 CURVE",
"57 444 OFFCURVE",
"66 439 OFFCURVE",
"79 430 CURVE SMOOTH",
"92 421 OFFCURVE",
"105 407 OFFCURVE",
"119 389 CURVE",
"205 261 LINE",
"157 191 OFFCURVE",
"119 138 OFFCURVE",
"91 102 CURVE SMOOTH",
"81 89 OFFCURVE",
"72 77 OFFCURVE",
"64 66 CURVE SMOOTH",
"48 44 OFFCURVE",
"46 37 OFFCURVE",
"46 21 CURVE SMOOTH",
"46 5 OFFCURVE",
"63 -10 OFFCURVE",
"80 -10 CURVE SMOOTH",
"88 -10 OFFCURVE",
"96 -6 OFFCURVE",
"103 2 CURVE SMOOTH",
"110 10 OFFCURVE",
"128 36 OFFCURVE",
"157 80 CURVE SMOOTH",
"186 123 OFFCURVE",
"214 165 OFFCURVE",
"242 206 CURVE",
"255 187 OFFCURVE",
"268 167 OFFCURVE",
"283 145 CURVE SMOOTH",
"312 101 OFFCURVE",
"325 82 OFFCURVE",
"345 54 CURVE SMOOTH",
"364 26 OFFCURVE",
"374 15 OFFCURVE",
"387 2 CURVE SMOOTH",
"400 -11 OFFCURVE",
"410 -15 OFFCURVE",
"431 -15 CURVE SMOOTH",
"451 -15 OFFCURVE",
"475 13 OFFCURVE",
"475 46 CURVE SMOOTH",
"475 49 OFFCURVE",
"472 51 OFFCURVE",
"466 51 CURVE SMOOTH",
"459 51 OFFCURVE",
"449 55 OFFCURVE",
"434 63 CURVE SMOOTH",
"419 71 OFFCURVE",
"402 86 OFFCURVE",
"385 109 CURVE",
"283 262 LINE"
);
}
);
width = 492;
}
);
note = x;
unicode = 0078;
},
{
glyphname = y;
lastChange = "2017-06-04 10:41:35 +0000";
layers = (
{
layerId = "016D93B1-224C-4BB2-94F2-5498F6B5D728";
paths = (
{
closed = 1;
nodes = (
"394 146 OFFCURVE",
"321 55 OFFCURVE",
"253 55 CURVE SMOOTH",
"184 55 OFFCURVE",
"143 117 OFFCURVE",
"143 208 CURVE",
"151 428 LINE",
"151 483 OFFCURVE",
"136 510 OFFCURVE",
"105 510 CURVE SMOOTH",
"80 510 OFFCURVE",
"62 490 OFFCURVE",
"62 470 CURVE SMOOTH",
"62 460 OFFCURVE",
"65 444 OFFCURVE",
"70 421 CURVE SMOOTH",
"75 398 OFFCURVE",
"78 373 OFFCURVE",
"78 346 CURVE",
"72 195 LINE",
"72 80 OFFCURVE",
"133 -10 OFFCURVE",
"240 -10 CURVE SMOOTH",
"315 -10 OFFCURVE",
"377 33 OFFCURVE",
"426 118 CURVE",
"428 96 OFFCURVE",
"429 73 OFFCURVE",
"429 50 CURVE SMOOTH",
"429 -77 OFFCURVE",
"359 -165 OFFCURVE",
"247 -165 CURVE SMOOTH",
"215 -165 OFFCURVE",
"184 -159 OFFCURVE",
"154 -146 CURVE",
"123 -134 OFFCURVE",
"105 -128 OFFCURVE",
"98 -128 CURVE SMOOTH",
"83 -128 OFFCURVE",
"75 -136 OFFCURVE",
"75 -153 CURVE SMOOTH",
"75 -187 OFFCURVE",
"164 -230 OFFCURVE",
"247 -230 CURVE SMOOTH",
"402 -230 OFFCURVE",
"491 -115 OFFCURVE",
"491 60 CURVE SMOOTH",
"491 100 OFFCURVE",
"487 161 OFFCURVE",
"479 242 CURVE",
"493 331 OFFCURVE",
"500 396 OFFCURVE",
"500 435 CURVE SMOOTH",
"500 485 OFFCURVE",
"485 510 OFFCURVE",
"454 510 CURVE SMOOTH",
"429 510 OFFCURVE",
"416 493 OFFCURVE",
"416 459 CURVE SMOOTH",
"419 242 LINE"
);
}
);
width = 568;
}
);
note = y;
unicode = 0079;
},
{
glyphname = z;
lastChange = "2017-06-04 10:41:35 +0000";
layers = (
{
layerId = "016D93B1-224C-4BB2-94F2-5498F6B5D728";
paths = (
{
closed = 1;
nodes = (
"214 60 OFFCURVE",
"179 61 OFFCURVE",
"139 62 CURVE",
"199 150 OFFCURVE",
"317 309 OFFCURVE",
"377 380 CURVE SMOOTH",
"400 407 OFFCURVE",
"431 441 OFFCURVE",
"431 470 CURVE SMOOTH",
"431 493 OFFCURVE",
"415 505 OFFCURVE",
"383 505 CURVE",
"241 500 LINE",
"95 505 LINE SMOOTH",
"62 505 OFFCURVE",
"45 493 OFFCURVE",
"45 470 CURVE SMOOTH",
"45 447 OFFCURVE",
"62 435 OFFCURVE",
"95 435 CURVE SMOOTH",
"241 440 LINE SMOOTH",
"248 440 OFFCURVE",
"276 439 OFFCURVE",
"326 437 CURVE",
"313 412 OFFCURVE",
"280 368 OFFCURVE",
"248 326 CURVE SMOOTH",
"232 305 OFFCURVE",
"209 273 OFFCURVE",
"178 231 CURVE SMOOTH",
"147 188 OFFCURVE",
"111 143 OFFCURVE",
"70 96 CURVE SMOOTH",
"47 69 OFFCURVE",
"35 47 OFFCURVE",
"35 30 CURVE SMOOTH",
"35 7 OFFCURVE",
"51 -5 OFFCURVE",
"83 -5 CURVE SMOOTH",
"191 -2 OFFCURVE",
"245 0 OFFCURVE",
"245 0 CURVE",
"395 -5 LINE SMOOTH",
"428 -5 OFFCURVE",
"445 7 OFFCURVE",
"445 30 CURVE SMOOTH",
"445 53 OFFCURVE",
"428 65 OFFCURVE",
"395 65 CURVE SMOOTH",
"245 60 LINE SMOOTH"
);
}
);
width = 478;
}
);
note = z;
unicode = 007A;
},
{
glyphname = braceleft;
lastChange = "2017-06-04 10:41:35 +0000";
layers = (
{
layerId = "016D93B1-224C-4BB2-94F2-5498F6B5D728";
paths = (
{
closed = 1;
nodes = (
"203 -157 OFFCURVE",
"190 -142 OFFCURVE",
"190 -112 CURVE SMOOTH",
"190 -102 OFFCURVE",
"193 -76 OFFCURVE",
"198 -34 CURVE SMOOTH",
"203 8 OFFCURVE",
"205 48 OFFCURVE",
"205 85 CURVE SMOOTH",
"205 122 OFFCURVE",
"203 153 OFFCURVE",
"198 179 CURVE SMOOTH",
"188 231 OFFCURVE",
"180 240 OFFCURVE",
"157 269 CURVE",
"190 312 OFFCURVE",
"206 371 OFFCURVE",
"206 448 CURVE SMOOTH",
"206 482 OFFCURVE",
"204 520 OFFCURVE",
"199 562 CURVE SMOOTH",
"194 604 OFFCURVE",
"191 630 OFFCURVE",
"191 640 CURVE SMOOTH",
"191 671 OFFCURVE",
"204 687 OFFCURVE",
"229 687 CURVE SMOOTH",
"249 687 OFFCURVE",
"266 703 OFFCURVE",
"266 724 CURVE SMOOTH",
"266 744 OFFCURVE",
"252 760 OFFCURVE",
"229 760 CURVE SMOOTH",
"172 760 OFFCURVE",
"121 719 OFFCURVE",
"121 650 CURVE SMOOTH",
"121 633 OFFCURVE",
"124 602 OFFCURVE",
"129 558 CURVE SMOOTH",
"134 513 OFFCURVE",
"136 478 OFFCURVE",
"136 451 CURVE SMOOTH",
"136 397 OFFCURVE",
"120 327 OFFCURVE",
"104 307 CURVE",
"96 311 OFFCURVE",
"84 313 OFFCURVE",
"69 313 CURVE SMOOTH",
"38 313 OFFCURVE",
"14 289 OFFCURVE",
"14 257 CURVE SMOOTH",
"14 224 OFFCURVE",
"39 206 OFFCURVE",
"65 206 CURVE SMOOTH",
"78 206 OFFCURVE",
"91 209 OFFCURVE",
"104 215 CURVE",
"125 204 OFFCURVE",
"135 140 OFFCURVE",
"135 81 CURVE SMOOTH",
"135 52 OFFCURVE",
"133 15 OFFCURVE",
"128 -29 CURVE SMOOTH",
"123 -74 OFFCURVE",
"120 -105 OFFCURVE",
"120 -122 CURVE SMOOTH",
"120 -191 OFFCURVE",
"171 -230 OFFCURVE",
"228 -230 CURVE SMOOTH",
"251 -230 OFFCURVE",
"265 -214 OFFCURVE",
"265 -193 CURVE SMOOTH",
"265 -173 OFFCURVE",
"248 -157 OFFCURVE",
"228 -157 CURVE SMOOTH"
);
}
);
width = 307;
}
);
note = braceleft;
unicode = 007B;
},
{
glyphname = bar;
lastChange = "2017-06-04 10:41:35 +0000";
layers = (
{
layerId = "016D93B1-224C-4BB2-94F2-5498F6B5D728";
paths = (
{
closed = 1;
nodes = (
"144 783 OFFCURVE",
"133 800 OFFCURVE",
"110 800 CURVE SMOOTH",
"87 800 OFFCURVE",
"76 783 OFFCURVE",
"76 750 CURVE SMOOTH",
"80 255 LINE SMOOTH",
"80 98 OFFCURVE",
"79 -33 OFFCURVE",
"76 -139 CURVE SMOOTH",
"75 -184 OFFCURVE",
"75 -211 OFFCURVE",
"75 -220 CURVE SMOOTH",
"75 -253 OFFCURVE",
"87 -270 OFFCURVE",
"110 -270 CURVE SMOOTH",
"133 -270 OFFCURVE",
"145 -253 OFFCURVE",
"145 -220 CURVE SMOOTH",
"145 -211 OFFCURVE",
"144 -169 OFFCURVE",
"143 -93 CURVE SMOOTH",
"141 -18 OFFCURVE",
"140 98 OFFCURVE",
"140 255 CURVE SMOOTH",
"144 750 LINE SMOOTH"
);
}
);
width = 220;
}
);
note = bar;
unicode = 007C;
},
{
glyphname = braceright;
lastChange = "2017-06-04 10:41:35 +0000";
layers = (
{
layerId = "016D93B1-224C-4BB2-94F2-5498F6B5D728";
paths = (
{
closed = 1;
nodes = (
"223 313 OFFCURVE",
"211 311 OFFCURVE",
"203 307 CURVE",
"187 327 OFFCURVE",
"171 397 OFFCURVE",
"171 451 CURVE SMOOTH",
"171 478 OFFCURVE",
"174 513 OFFCURVE",
"179 558 CURVE SMOOTH",
"184 602 OFFCURVE",
"186 633 OFFCURVE",
"186 650 CURVE SMOOTH",
"186 719 OFFCURVE",
"135 760 OFFCURVE",
"78 760 CURVE SMOOTH",
"55 760 OFFCURVE",
"41 744 OFFCURVE",
"41 724 CURVE SMOOTH",
"41 703 OFFCURVE",
"58 687 OFFCURVE",
"78 687 CURVE SMOOTH",
"103 687 OFFCURVE",
"116 671 OFFCURVE",
"116 640 CURVE SMOOTH",
"116 630 OFFCURVE",
"114 604 OFFCURVE",
"109 562 CURVE SMOOTH",
"104 520 OFFCURVE",
"101 482 OFFCURVE",
"101 448 CURVE SMOOTH",
"101 371 OFFCURVE",
"117 312 OFFCURVE",
"150 269 CURVE",
"139 254 OFFCURVE",
"130 242 OFFCURVE",
"125 233 CURVE SMOOTH",
"114 213 OFFCURVE",
"102 159 OFFCURVE",
"102 85 CURVE SMOOTH",
"102 48 OFFCURVE",
"105 8 OFFCURVE",
"110 -34 CURVE SMOOTH",
"115 -76 OFFCURVE",
"117 -102 OFFCURVE",
"117 -112 CURVE SMOOTH",
"117 -142 OFFCURVE",
"104 -157 OFFCURVE",
"79 -157 CURVE SMOOTH",
"59 -157 OFFCURVE",
"42 -173 OFFCURVE",
"42 -193 CURVE SMOOTH",
"42 -214 OFFCURVE",
"56 -230 OFFCURVE",
"79 -230 CURVE SMOOTH",
"136 -230 OFFCURVE",
"187 -191 OFFCURVE",
"187 -122 CURVE SMOOTH",
"187 -105 OFFCURVE",
"185 -74 OFFCURVE",
"180 -29 CURVE SMOOTH",
"175 15 OFFCURVE",
"172 52 OFFCURVE",
"172 81 CURVE SMOOTH",
"172 140 OFFCURVE",
"182 204 OFFCURVE",
"203 215 CURVE",
"216 209 OFFCURVE",
"230 206 OFFCURVE",
"243 206 CURVE SMOOTH",
"269 206 OFFCURVE",
"293 224 OFFCURVE",
"293 257 CURVE SMOOTH",
"293 289 OFFCURVE",
"269 313 OFFCURVE",
"238 313 CURVE SMOOTH"
);
}
);
width = 307;
}
);
note = braceright;
unicode = 007D;
},
{
glyphname = asciitilde;
lastChange = "2017-06-04 10:41:35 +0000";
layers = (
{
layerId = "016D93B1-224C-4BB2-94F2-5498F6B5D728";
paths = (
{
closed = 1;
nodes = (
"494 311 OFFCURVE",
"486 320 OFFCURVE",
"471 320 CURVE SMOOTH",
"464 320 OFFCURVE",
"456 316 OFFCURVE",
"448 308 CURVE SMOOTH",
"432 291 OFFCURVE",
"410 270 OFFCURVE",
"379 270 CURVE SMOOTH",
"363 270 OFFCURVE",
"337 280 OFFCURVE",
"301 299 CURVE SMOOTH",
"264 318 OFFCURVE",
"229 328 OFFCURVE",
"196 328 CURVE SMOOTH",
"128 328 OFFCURVE",
"59 281 OFFCURVE",
"59 238 CURVE SMOOTH",
"59 219 OFFCURVE",
"73 205 OFFCURVE",
"98 205 CURVE SMOOTH",
"110 205 OFFCURVE",
"127 215 OFFCURVE",
"148 236 CURVE SMOOTH",
"169 256 OFFCURVE",
"189 266 OFFCURVE",
"209 266 CURVE SMOOTH",
"228 266 OFFCURVE",
"256 256 OFFCURVE",
"292 237 CURVE SMOOTH",
"327 218 OFFCURVE",
"358 208 OFFCURVE",
"384 208 CURVE SMOOTH",
"435 208 OFFCURVE",
"494 259 OFFCURVE",
"494 294 CURVE SMOOTH"
);
}
);
width = 552;
}
);
note = asciitilde;
unicode = 007E;
},
{
glyphname = exclamdown;
lastChange = "2017-06-04 10:41:35 +0000";
layers = (
{
layerId = "016D93B1-224C-4BB2-94F2-5498F6B5D728";
paths = (
{
closed = 1;
nodes = (
"86 545 OFFCURVE",
"64 515 OFFCURVE",
"64 484 CURVE SMOOTH",
"64 452 OFFCURVE",
"79 430 OFFCURVE",
"107 430 CURVE SMOOTH",
"134 430 OFFCURVE",
"156 461 OFFCURVE",
"156 491 CURVE SMOOTH",
"156 521 OFFCURVE",
"141 545 OFFCURVE",
"114 545 CURVE SMOOTH"
);
},
{
closed = 1;
nodes = (
"146 307 OFFCURVE",
"134 324 OFFCURVE",
"110 324 CURVE SMOOTH",
"86 324 OFFCURVE",
"74 307 OFFCURVE",
"74 274 CURVE SMOOTH",
"77 62 LINE SMOOTH",
"77 23 OFFCURVE",
"76 -26 OFFCURVE",
"74 -85 CURVE SMOOTH",
"71 -144 OFFCURVE",
"70 -176 OFFCURVE",
"70 -180 CURVE SMOOTH",
"70 -213 OFFCURVE",
"83 -230 OFFCURVE",
"110 -230 CURVE SMOOTH",
"137 -230 OFFCURVE",
"150 -213 OFFCURVE",
"150 -180 CURVE SMOOTH",
"150 -176 OFFCURVE",
"149 -144 OFFCURVE",
"147 -85 CURVE SMOOTH",
"144 -26 OFFCURVE",
"143 23 OFFCURVE",
"143 62 CURVE SMOOTH",
"146 274 LINE SMOOTH"
);
}
);
width = 220;
}
);
note = exclamdown;
unicode = 00A1;
},
{
glyphname = cent;
lastChange = "2017-06-04 10:41:35 +0000";
layers = (
{
layerId = "016D93B1-224C-4BB2-94F2-5498F6B5D728";
paths = (
{
closed = 1;
nodes = (
"326 628 OFFCURVE",
"315 645 OFFCURVE",
"292 645 CURVE SMOOTH",
"269 645 OFFCURVE",
"258 630 OFFCURVE",
"258 599 CURVE SMOOTH",
"258 568 OFFCURVE",
"258 538 OFFCURVE",
"259 510 CURVE",
"135 486 OFFCURVE",
"57 378 OFFCURVE",
"57 249 CURVE SMOOTH",
"57 120 OFFCURVE",
"139 10 OFFCURVE",
"258 -11 CURVE",
"257 -35 OFFCURVE",
"257 -59 OFFCURVE",
"257 -84 CURVE SMOOTH",
"257 -118 OFFCURVE",
"269 -135 OFFCURVE",
"292 -135 CURVE SMOOTH",
"315 -135 OFFCURVE",
"327 -118 OFFCURVE",
"327 -84 CURVE",
"325 -14 LINE",
"404 -6 OFFCURVE",
"482 45 OFFCURVE",
"482 78 CURVE SMOOTH",
"482 95 OFFCURVE",
"474 103 OFFCURVE",
"457 103 CURVE SMOOTH",
"452 103 OFFCURVE",
"435 95 OFFCURVE",
"408 78 CURVE SMOOTH",
"381 61 OFFCURVE",
"353 52 OFFCURVE",
"324 50 CURVE",
"323 125 OFFCURVE",
"322 201 OFFCURVE",
"322 280 CURVE SMOOTH",
"322 358 OFFCURVE",
"322 414 OFFCURVE",
"323 449 CURVE",
"348 446 OFFCURVE",
"371 435 OFFCURVE",
"394 418 CURVE",
"416 400 OFFCURVE",
"431 391 OFFCURVE",
"440 391 CURVE SMOOTH",
"457 391 OFFCURVE",
"473 407 OFFCURVE",
"473 428 CURVE SMOOTH",
"473 465 OFFCURVE",
"404 510 OFFCURVE",
"324 514 CURVE",
"326 594 LINE SMOOTH"
);
},
{
closed = 1;
nodes = (
"184 83 OFFCURVE",
"132 161 OFFCURVE",
"132 252 CURVE SMOOTH",
"132 343 OFFCURVE",
"188 420 OFFCURVE",
"261 443 CURVE",
"261 428 OFFCURVE",
"261 400 OFFCURVE",
"262 359 CURVE SMOOTH",
"262 318 OFFCURVE",
"262 276 OFFCURVE",
"262 233 CURVE SMOOTH",
"262 190 OFFCURVE",
"261 131 OFFCURVE",
"260 58 CURVE"
);
}
);
width = 534;
}
);
note = cent;
unicode = 00A2;
},
{
glyphname = sterling;
lastChange = "2017-06-04 10:41:35 +0000";
layers = (
{
layerId = "016D93B1-224C-4BB2-94F2-5498F6B5D728";
paths = (
{
closed = 1;
nodes = (
"389 321 OFFCURVE",
"406 334 OFFCURVE",
"406 354 CURVE SMOOTH",
"406 374 OFFCURVE",
"389 387 OFFCURVE",
"365 387 CURVE SMOOTH",
"206 384 LINE",
"189 467 OFFCURVE",
"181 524 OFFCURVE",
"181 553 CURVE SMOOTH",
"181 612 OFFCURVE",
"227 649 OFFCURVE",
"288 649 CURVE SMOOTH",
"319 649 OFFCURVE",
"347 641 OFFCURVE",
"372 624 CURVE SMOOTH",
"397 607 OFFCURVE",
"415 598 OFFCURVE",
"426 598 CURVE SMOOTH",
"446 598 OFFCURVE",
"457 614 OFFCURVE",
"457 629 CURVE",
"456 669 OFFCURVE",
"373 715 OFFCURVE",
"301 715 CURVE SMOOTH",
"180 715 OFFCURVE",
"109 642 OFFCURVE",
"109 549 CURVE SMOOTH",
"109 526 OFFCURVE",
"115 489 OFFCURVE",
"126 440 CURVE SMOOTH",
"132 413 OFFCURVE",
"136 395 OFFCURVE",
"138 386 CURVE",
"131 386 OFFCURVE",
"124 386 OFFCURVE",
"116 387 CURVE",
"107 387 OFFCURVE",
"100 387 OFFCURVE",
"93 387 CURVE SMOOTH",
"80 387 OFFCURVE",
"60 374 OFFCURVE",
"60 354 CURVE SMOOTH",
"60 334 OFFCURVE",
"77 321 OFFCURVE",
"101 321 CURVE SMOOTH",
"148 322 LINE",
"149 298 OFFCURVE",
"150 274 OFFCURVE",
"150 249 CURVE SMOOTH",
"149 200 OFFCURVE",
"116 135 OFFCURVE",
"90 95 CURVE SMOOTH",
"77 74 OFFCURVE",
"70 57 OFFCURVE",
"70 43 CURVE SMOOTH",
"70 14 OFFCURVE",
"90 -5 OFFCURVE",
"121 -5 CURVE SMOOTH",
"283 0 LINE",
"434 -5 LINE SMOOTH",
"465 -5 OFFCURVE",
"484 9 OFFCURVE",
"484 33 CURVE SMOOTH",
"484 57 OFFCURVE",
"462 71 OFFCURVE",
"443 71 CURVE SMOOTH",
"433 71 OFFCURVE",
"410 70 OFFCURVE",
"375 68 CURVE SMOOTH",
"339 65 OFFCURVE",
"299 64 OFFCURVE",
"254 64 CURVE SMOOTH",
"209 64 OFFCURVE",
"175 64 OFFCURVE",
"153 65 CURVE",
"181 116 OFFCURVE",
"192 135 OFFCURVE",
"206 185 CURVE SMOOTH",
"220 235 OFFCURVE",
"218 271 OFFCURVE",
"215 324 CURVE",
"365 321 LINE SMOOTH"
);
}
);
width = 536;
}
);
note = sterling;
unicode = 00A3;
},
{
glyphname = currency;
lastChange = "2017-06-04 10:41:35 +0000";
layers = (
{
layerId = "016D93B1-224C-4BB2-94F2-5498F6B5D728";
paths = (
{
closed = 1;
nodes = (
"519 432 OFFCURVE",
"539 452 OFFCURVE",
"558 471 CURVE",
"571 483 OFFCURVE",
"578 495 OFFCURVE",
"578 506 CURVE SMOOTH",
"578 528 OFFCURVE",
"562 543 OFFCURVE",
"542 543 CURVE SMOOTH",
"532 543 OFFCURVE",
"520 537 OFFCURVE",
"505 524 CURVE",
"452 468 LINE",
"414 499 OFFCURVE",
"370 515 OFFCURVE",
"321 515 CURVE SMOOTH",
"271 515 OFFCURVE",
"227 499 OFFCURVE",
"190 467 CURVE",
"135 524 LINE SMOOTH",
"123 537 OFFCURVE",
"112 544 OFFCURVE",
"101 544 CURVE SMOOTH",
"79 544 OFFCURVE",
"62 527 OFFCURVE",
"62 508 CURVE SMOOTH",
"62 498 OFFCURVE",
"69 486 OFFCURVE",
"82 471 CURVE",
"86 466 OFFCURVE",
"107 446 OFFCURVE",
"144 410 CURVE",
"124 374 OFFCURVE",
"114 334 OFFCURVE",
"114 291 CURVE SMOOTH",
"114 248 OFFCURVE",
"124 209 OFFCURVE",
"143 174 CURVE",
"82 115 LINE SMOOTH",
"69 103 OFFCURVE",
"62 92 OFFCURVE",
"62 81 CURVE SMOOTH",
"62 59 OFFCURVE",
"78 43 OFFCURVE",
"98 43 CURVE SMOOTH",
"108 43 OFFCURVE",
"120 49 OFFCURVE",
"135 62 CURVE",
"188 117 LINE",
"225 84 OFFCURVE",
"269 68 OFFCURVE",
"320 68 CURVE SMOOTH",
"371 68 OFFCURVE",
"416 84 OFFCURVE",
"453 116 CURVE",
"481 86 OFFCURVE",
"500 66 OFFCURVE",
"511 57 CURVE",
"522 47 OFFCURVE",
"532 42 OFFCURVE",
"542 42 CURVE SMOOTH",
"561 42 OFFCURVE",
"578 59 OFFCURVE",
"578 81 CURVE SMOOTH",
"578 92 OFFCURVE",
"571 103 OFFCURVE",
"558 115 CURVE SMOOTH",
"498 172 LINE",
"519 208 OFFCURVE",
"529 248 OFFCURVE",
"529 293 CURVE SMOOTH",
"529 337 OFFCURVE",
"519 377 OFFCURVE",
"498 413 CURVE"
);
},
{
closed = 1;
nodes = (
"243 134 OFFCURVE",
"183 203 OFFCURVE",
"183 291 CURVE SMOOTH",
"183 378 OFFCURVE",
"247 450 OFFCURVE",
"324 450 CURVE SMOOTH",
"401 450 OFFCURVE",
"461 381 OFFCURVE",
"461 294 CURVE SMOOTH",
"461 206 OFFCURVE",
"397 134 OFFCURVE",
"320 134 CURVE SMOOTH"
);
}
);
width = 641;
}
);
note = currency;
unicode = 00A4;
},
{
glyphname = yen;
lastChange = "2017-06-04 10:41:35 +0000";
layers = (
{
layerId = "016D93B1-224C-4BB2-94F2-5498F6B5D728";
paths = (
{
closed = 1;
nodes = (
"390 302 OFFCURVE",
"433 301 OFFCURVE",
"456 301 CURVE SMOOTH",
"479 301 OFFCURVE",
"494 304 OFFCURVE",
"502 310 CURVE SMOOTH",
"509 315 OFFCURVE",
"513 323 OFFCURVE",
"513 333 CURVE SMOOTH",
"513 353 OFFCURVE",
"499 365 OFFCURVE",
"463 365 CURVE SMOOTH",
"444 365 OFFCURVE",
"408 364 OFFCURVE",
"354 362 CURVE",
"443 519 LINE SMOOTH",
"452 534 OFFCURVE",
"460 550 OFFCURVE",
"469 565 CURVE SMOOTH",
"478 580 OFFCURVE",
"485 591 OFFCURVE",
"490 600 CURVE SMOOTH",
"495 609 OFFCURVE",
"500 617 OFFCURVE",
"505 626 CURVE",
"510 634 OFFCURVE",
"513 640 OFFCURVE",
"516 645 CURVE",
"520 653 OFFCURVE",
"526 663 OFFCURVE",
"527 668 CURVE SMOOTH",
"528 673 OFFCURVE",
"529 676 OFFCURVE",
"529 688 CURVE SMOOTH",
"529 699 OFFCURVE",
"514 715 OFFCURVE",
"492 715 CURVE SMOOTH",
"481 715 OFFCURVE",
"471 710 OFFCURVE",
"464 700 CURVE",
"457 689 OFFCURVE",
"431 639 OFFCURVE",
"386 548 CURVE SMOOTH",
"341 457 OFFCURVE",
"310 399 OFFCURVE",
"293 373 CURVE",
"273 404 OFFCURVE",
"249 448 OFFCURVE",
"221 505 CURVE SMOOTH",
"193 561 OFFCURVE",
"176 596 OFFCURVE",
"169 610 CURVE SMOOTH",
"162 624 OFFCURVE",
"156 635 OFFCURVE",
"153 642 CURVE SMOOTH",
"150 649 OFFCURVE",
"145 658 OFFCURVE",
"140 667 CURVE SMOOTH",
"129 686 OFFCURVE",
"124 693 OFFCURVE",
"116 703 CURVE",
"107 713 OFFCURVE",
"100 715 OFFCURVE",
"85 715 CURVE SMOOTH",
"69 715 OFFCURVE",
"53 701 OFFCURVE",
"53 682 CURVE SMOOTH",
"53 662 OFFCURVE",
"67 638 OFFCURVE",
"87 606 CURVE",
"96 589 OFFCURVE",
"115 556 OFFCURVE",
"144 507 CURVE SMOOTH",
"226 362 LINE",
"176 364 OFFCURVE",
"138 365 OFFCURVE",
"113 365 CURVE SMOOTH",
"96 365 OFFCURVE",
"77 353 OFFCURVE",
"77 333 CURVE SMOOTH",
"77 313 OFFCURVE",
"90 301 OFFCURVE",
"131 301 CURVE SMOOTH",
"152 301 OFFCURVE",
"193 302 OFFCURVE",
"255 304 CURVE",
"255 225 LINE",
"118 228 LINE SMOOTH",
"94 228 OFFCURVE",
"77 216 OFFCURVE",
"77 196 CURVE SMOOTH",
"77 176 OFFCURVE",
"90 164 OFFCURVE",
"131 164 CURVE SMOOTH",
"152 164 OFFCURVE",
"193 165 OFFCURVE",
"255 167 CURVE",
"251 40 LINE SMOOTH",
"251 7 OFFCURVE",
"264 -10 OFFCURVE",
"290 -10 CURVE SMOOTH",
"316 -10 OFFCURVE",
"329 7 OFFCURVE",
"329 40 CURVE",
"326 167 LINE",
"392 165 OFFCURVE",
"436 164 OFFCURVE",
"458 164 CURVE SMOOTH",
"501 164 OFFCURVE",
"513 176 OFFCURVE",
"513 196 CURVE SMOOTH",
"513 216 OFFCURVE",
"496 228 OFFCURVE",
"472 228 CURVE SMOOTH",
"326 225 LINE",
"326 304 LINE"
);
}
);
width = 585;
}
);
note = yen;
unicode = 00A5;
},
{
glyphname = brokenbar;
lastChange = "2017-06-04 10:41:35 +0000";
layers = (
{
layerId = "016D93B1-224C-4BB2-94F2-5498F6B5D728";
paths = (
{
closed = 1;
nodes = (
"150 713 OFFCURVE",
"138 727 OFFCURVE",
"115 727 CURVE SMOOTH",
"93 727 OFFCURVE",
"82 713 OFFCURVE",
"82 684 CURVE SMOOTH",
"85 583 OFFCURVE",
"86 533 OFFCURVE",
"86 533 CURVE",
"81 385 LINE SMOOTH",
"81 354 OFFCURVE",
"92 339 OFFCURVE",
"115 339 CURVE SMOOTH",
"138 339 OFFCURVE",
"151 357 OFFCURVE",
"151 385 CURVE",
"146 533 LINE",
"150 684 LINE SMOOTH"
);
},
{
closed = 1;
nodes = (
"150 144 OFFCURVE",
"138 158 OFFCURVE",
"115 158 CURVE SMOOTH",
"93 158 OFFCURVE",
"82 144 OFFCURVE",
"82 115 CURVE SMOOTH",
"86 -36 LINE",
"81 -184 LINE SMOOTH",
"81 -215 OFFCURVE",
"92 -230 OFFCURVE",
"115 -230 CURVE SMOOTH",
"138 -230 OFFCURVE",
"151 -212 OFFCURVE",
"151 -184 CURVE",
"146 -36 LINE",
"150 115 LINE SMOOTH"
);
}
);
width = 232;
}
);
note = brokenbar;
unicode = 00A6;
},
{
glyphname = section;
lastChange = "2017-06-04 10:41:35 +0000";
layers = (
{
layerId = "016D93B1-224C-4BB2-94F2-5498F6B5D728";
paths = (
{
closed = 1;
nodes = (
"348 435 OFFCURVE",
"318 455 OFFCURVE",
"289 474 CURVE SMOOTH",
"229 512 OFFCURVE",
"181 557 OFFCURVE",
"181 609 CURVE SMOOTH",
"181 661 OFFCURVE",
"227 699 OFFCURVE",
"292 699 CURVE SMOOTH",
"324 699 OFFCURVE",
"356 689 OFFCURVE",
"388 670 CURVE SMOOTH",
"399 663 OFFCURVE",
"408 660 OFFCURVE",
"416 660 CURVE SMOOTH",
"432 660 OFFCURVE",
"444 672 OFFCURVE",
"444 688 CURVE SMOOTH",
"444 729 OFFCURVE",
"372 765 OFFCURVE",
"277 765 CURVE SMOOTH",
"182 765 OFFCURVE",
"101 694 OFFCURVE",
"101 601 CURVE SMOOTH",
"101 554 OFFCURVE",
"134 504 OFFCURVE",
"201 451 CURVE",
"118 432 OFFCURVE",
"65 372 OFFCURVE",
"65 305 CURVE SMOOTH",
"65 271 OFFCURVE",
"76 241 OFFCURVE",
"97 215 CURVE SMOOTH",
"139 163 OFFCURVE",
"202 127 OFFCURVE",
"262 89 CURVE SMOOTH",
"321 51 OFFCURVE",
"369 2 OFFCURVE",
"369 -47 CURVE SMOOTH",
"369 -119 OFFCURVE",
"311 -169 OFFCURVE",
"236 -169 CURVE SMOOTH",
"192 -169 OFFCURVE",
"154 -153 OFFCURVE",
"138 -137 CURVE",
"121 -122 OFFCURVE",
"101 -106 OFFCURVE",
"84 -106 CURVE SMOOTH",
"67 -106 OFFCURVE",
"54 -117 OFFCURVE",
"54 -136 CURVE SMOOTH",
"54 -180 OFFCURVE",
"149 -235 OFFCURVE",
"236 -235 CURVE SMOOTH",
"359 -235 OFFCURVE",
"449 -148 OFFCURVE",
"449 -48 CURVE SMOOTH",
"449 2 OFFCURVE",
"427 47 OFFCURVE",
"383 88 CURVE",
"444 121 OFFCURVE",
"485 184 OFFCURVE",
"485 252 CURVE SMOOTH",
"485 319 OFFCURVE",
"437 375 OFFCURVE",
"378 415 CURVE SMOOTH"
);
},
{
closed = 1;
nodes = (
"312 139 OFFCURVE",
"290 154 OFFCURVE",
"258 175 CURVE SMOOTH",
"193 218 OFFCURVE",
"139 254 OFFCURVE",
"139 302 CURVE SMOOTH",
"139 354 OFFCURVE",
"187 391 OFFCURVE",
"252 391 CURVE SMOOTH",
"317 391 OFFCURVE",
"411 316 OFFCURVE",
"411 256 CURVE SMOOTH",
"411 196 OFFCURVE",
"377 149 OFFCURVE",
"325 130 CURVE"
);
}
);
width = 536;
}
);
note = section;
unicode = 00A7;
},
{
glyphname = dieresis;
lastChange = "2017-06-04 10:41:35 +0000";
layers = (
{
layerId = "016D93B1-224C-4BB2-94F2-5498F6B5D728";
paths = (
{
closed = 1;
nodes = (
"92 725 OFFCURVE",
"70 698 OFFCURVE",
"70 667 CURVE SMOOTH",
"70 636 OFFCURVE",
"84 616 OFFCURVE",
"112 616 CURVE SMOOTH",
"140 616 OFFCURVE",
"161 650 OFFCURVE",
"161 678 CURVE SMOOTH",
"161 705 OFFCURVE",
"148 725 OFFCURVE",
"120 725 CURVE SMOOTH"
);
},
{
closed = 1;
nodes = (
"252 725 OFFCURVE",
"230 698 OFFCURVE",
"230 667 CURVE SMOOTH",
"230 636 OFFCURVE",
"244 616 OFFCURVE",
"272 616 CURVE SMOOTH",
"300 616 OFFCURVE",
"321 650 OFFCURVE",
"321 678 CURVE SMOOTH",
"321 705 OFFCURVE",
"308 725 OFFCURVE",
"280 725 CURVE SMOOTH"
);
}
);
width = 391;
}
);
note = dieresis;
unicode = 00A8;
},
{
glyphname = copyright;
lastChange = "2017-06-04 10:41:35 +0000";
layers = (
{
layerId = "016D93B1-224C-4BB2-94F2-5498F6B5D728";
paths = (
{
closed = 1;
nodes = (
"278 635 OFFCURVE",
"204 549 OFFCURVE",
"204 442 CURVE SMOOTH",
"204 335 OFFCURVE",
"282 248 OFFCURVE",
"383 248 CURVE SMOOTH",
"417 248 OFFCURVE",
"446 255 OFFCURVE",
"469 269 CURVE SMOOTH",
"492 282 OFFCURVE",
"504 294 OFFCURVE",
"504 305 CURVE SMOOTH",
"504 320 OFFCURVE",
"497 328 OFFCURVE",
"482 328 CURVE SMOOTH",
"478 328 OFFCURVE",
"466 324 OFFCURVE",
"446 316 CURVE",
"426 307 OFFCURVE",
"407 303 OFFCURVE",
"388 303 CURVE SMOOTH",
"319 303 OFFCURVE",
"265 364 OFFCURVE",
"265 440 CURVE SMOOTH",
"265 516 OFFCURVE",
"311 580 OFFCURVE",
"388 580 CURVE SMOOTH",
"403 580 OFFCURVE",
"419 575 OFFCURVE",
"436 566 CURVE SMOOTH",
"452 557 OFFCURVE",
"463 552 OFFCURVE",
"468 552 CURVE SMOOTH",
"486 552 OFFCURVE",
"495 561 OFFCURVE",
"495 580 CURVE SMOOTH",
"495 609 OFFCURVE",
"439 635 OFFCURVE",
"383 635 CURVE SMOOTH"
);
},
{
closed = 1;
nodes = (
"539 729 OFFCURVE",
"465 760 OFFCURVE",
"378 760 CURVE SMOOTH",
"205 760 OFFCURVE",
"64 618 OFFCURVE",
"64 442 CURVE SMOOTH",
"64 266 OFFCURVE",
"205 124 OFFCURVE",
"378 124 CURVE SMOOTH",
"551 124 OFFCURVE",
"692 266 OFFCURVE",
"692 442 CURVE SMOOTH",
"692 530 OFFCURVE",
"661 605 OFFCURVE",
"600 667 CURVE SMOOTH"
);
},
{
closed = 1;
nodes = (
"507 203 OFFCURVE",
"447 177 OFFCURVE",
"377 177 CURVE SMOOTH",
"237 177 OFFCURVE",
"124 295 OFFCURVE",
"124 442 CURVE SMOOTH",
"124 589 OFFCURVE",
"237 707 OFFCURVE",
"377 707 CURVE SMOOTH",
"517 707 OFFCURVE",
"631 589 OFFCURVE",
"631 442 CURVE SMOOTH",
"631 369 OFFCURVE",
"606 306 OFFCURVE",
"557 255 CURVE SMOOTH"
);
}
);
width = 756;
}
);
note = copyright;
unicode = 00A9;
},
{
glyphname = ordfeminine;
lastChange = "2017-06-04 10:41:35 +0000";
layers = (
{
layerId = "016D93B1-224C-4BB2-94F2-5498F6B5D728";
paths = (
{
closed = 1;
nodes = (
"326 611 OFFCURVE",
"330 647 OFFCURVE",
"330 653 CURVE SMOOTH",
"330 691 OFFCURVE",
"319 710 OFFCURVE",
"297 710 CURVE SMOOTH",
"278 710 OFFCURVE",
"267 699 OFFCURVE",
"264 678 CURVE",
"243 699 OFFCURVE",
"217 710 OFFCURVE",
"188 710 CURVE SMOOTH",
"107 710 OFFCURVE",
"47 632 OFFCURVE",
"47 549 CURVE SMOOTH",
"47 465 OFFCURVE",
"90 392 OFFCURVE",
"162 392 CURVE SMOOTH",
"209 392 OFFCURVE",
"252 428 OFFCURVE",
"269 472 CURVE",
"274 419 OFFCURVE",
"290 392 OFFCURVE",
"316 392 CURVE SMOOTH",
"344 392 OFFCURVE",
"362 411 OFFCURVE",
"362 439 CURVE SMOOTH",
"362 442 OFFCURVE",
"360 443 OFFCURVE",
"355 444 CURVE",
"353 445 OFFCURVE",
"351 445 OFFCURVE",
"348 446 CURVE",
"324 451 OFFCURVE",
"318 517 OFFCURVE",
"318 546 CURVE"
);
},
{
closed = 1;
nodes = (
"249 494 OFFCURVE",
"205 445 OFFCURVE",
"167 445 CURVE SMOOTH",
"129 445 OFFCURVE",
"105 488 OFFCURVE",
"105 548 CURVE SMOOTH",
"105 607 OFFCURVE",
"142 655 OFFCURVE",
"193 655 CURVE SMOOTH",
"218 655 OFFCURVE",
"242 644 OFFCURVE",
"263 623 CURVE",
"266 550 LINE"
);
}
);
width = 410;
}
);
note = ordfeminine;
unicode = 00AA;
},
{
glyphname = guillemotleft;
lastChange = "2017-06-04 10:41:35 +0000";
layers = (
{
layerId = "016D93B1-224C-4BB2-94F2-5498F6B5D728";
paths = (
{
closed = 1;
nodes = (
"72 303 OFFCURVE",
"81 295 OFFCURVE",
"93 284 CURVE SMOOTH",
"117 262 OFFCURVE",
"129 249 OFFCURVE",
"149 228 CURVE",
"158 217 OFFCURVE",
"165 210 OFFCURVE",
"170 206 CURVE",
"178 197 OFFCURVE",
"191 188 OFFCURVE",
"207 188 CURVE SMOOTH",
"222 188 OFFCURVE",
"236 203 OFFCURVE",
"236 221 CURVE SMOOTH",
"236 239 OFFCURVE",
"224 249 OFFCURVE",
"197 269 CURVE",
"183 278 OFFCURVE",
"173 286 OFFCURVE",
"166 292 CURVE SMOOTH",
"134 321 OFFCURVE",
"118 340 OFFCURVE",
"118 349 CURVE SMOOTH",
"118 358 OFFCURVE",
"134 377 OFFCURVE",
"166 406 CURVE SMOOTH",
"173 412 OFFCURVE",
"183 420 OFFCURVE",
"197 430 CURVE SMOOTH",
"224 449 OFFCURVE",
"236 460 OFFCURVE",
"236 478 CURVE SMOOTH",
"236 496 OFFCURVE",
"223 510 OFFCURVE",
"203 510 CURVE SMOOTH",
"182 510 OFFCURVE",
"168 491 OFFCURVE",
"149 470 CURVE SMOOTH",
"129 449 OFFCURVE",
"121 440 OFFCURVE",
"86 409 CURVE SMOOTH",
"69 393 OFFCURVE",
"57 381 OFFCURVE",
"52 374 CURVE SMOOTH",
"47 367 OFFCURVE",
"44 359 OFFCURVE",
"44 351 CURVE SMOOTH",
"44 334 OFFCURVE",
"55 319 OFFCURVE",
"67 308 CURVE"
);
},
{
closed = 1;
nodes = (
"281 303 OFFCURVE",
"290 295 OFFCURVE",
"302 284 CURVE SMOOTH",
"326 262 OFFCURVE",
"338 249 OFFCURVE",
"358 228 CURVE",
"367 217 OFFCURVE",
"374 210 OFFCURVE",
"379 206 CURVE",
"387 197 OFFCURVE",
"400 188 OFFCURVE",
"416 188 CURVE SMOOTH",
"431 188 OFFCURVE",
"445 203 OFFCURVE",
"445 221 CURVE SMOOTH",
"445 239 OFFCURVE",
"433 249 OFFCURVE",
"406 269 CURVE",
"392 278 OFFCURVE",
"382 286 OFFCURVE",
"375 292 CURVE SMOOTH",
"343 321 OFFCURVE",
"327 340 OFFCURVE",
"327 349 CURVE SMOOTH",
"327 358 OFFCURVE",
"343 377 OFFCURVE",
"375 406 CURVE SMOOTH",
"382 412 OFFCURVE",
"392 420 OFFCURVE",
"406 430 CURVE SMOOTH",
"433 449 OFFCURVE",
"445 460 OFFCURVE",
"445 478 CURVE SMOOTH",
"445 496 OFFCURVE",
"432 510 OFFCURVE",
"412 510 CURVE SMOOTH",
"391 510 OFFCURVE",
"377 491 OFFCURVE",
"358 470 CURVE SMOOTH",
"338 449 OFFCURVE",
"330 440 OFFCURVE",
"295 409 CURVE SMOOTH",
"278 393 OFFCURVE",
"266 381 OFFCURVE",
"261 374 CURVE SMOOTH",
"256 367 OFFCURVE",
"253 359 OFFCURVE",
"253 351 CURVE SMOOTH",
"253 334 OFFCURVE",
"264 319 OFFCURVE",
"276 308 CURVE"
);
}
);
width = 507;
}
);
note = guillemotleft;
unicode = 00AB;
},
{
glyphname = logicalnot;
lastChange = "2017-06-04 10:41:35 +0000";
layers = (
{
layerId = "016D93B1-224C-4BB2-94F2-5498F6B5D728";
paths = (
{
closed = 1;
nodes = (
"556 280 OFFCURVE",
"542 294 OFFCURVE",
"513 294 CURVE SMOOTH",
"316 291 LINE",
"119 294 LINE SMOOTH",
"94 294 OFFCURVE",
"78 281 OFFCURVE",
"78 261 CURVE SMOOTH",
"78 241 OFFCURVE",
"94 228 OFFCURVE",
"119 228 CURVE SMOOTH",
"316 231 LINE SMOOTH",
"379 231 OFFCURVE",
"437 230 OFFCURVE",
"489 229 CURVE",
"489 191 LINE",
"486 131 LINE",
"486 107 OFFCURVE",
"501 90 OFFCURVE",
"521 90 CURVE SMOOTH",
"541 90 OFFCURVE",
"556 107 OFFCURVE",
"556 131 CURVE",
"554 191 LINE",
"556 251 LINE SMOOTH"
);
}
);
width = 634;
}
);
note = logicalnot;
unicode = 00AC;
},
{
glyphname = uni00AD;
lastChange = "2017-06-04 10:41:35 +0000";
layers = (
{
layerId = "016D93B1-224C-4BB2-94F2-5498F6B5D728";
paths = (
{
closed = 1;
nodes = (
"83 294 OFFCURVE",
"66 281 OFFCURVE",
"66 261 CURVE SMOOTH",
"66 241 OFFCURVE",
"83 228 OFFCURVE",
"107 228 CURVE SMOOTH",
"214 231 LINE",
"321 228 LINE SMOOTH",
"345 228 OFFCURVE",
"362 241 OFFCURVE",
"362 261 CURVE SMOOTH",
"362 281 OFFCURVE",
"345 294 OFFCURVE",
"321 294 CURVE SMOOTH",
"214 291 LINE",
"107 294 LINE SMOOTH"
);
}
);
width = 428;
}
);
note = uni00AD;
unicode = 00AD;
},
{
glyphname = registered;
lastChange = "2017-06-04 10:41:35 +0000";
layers = (
{
layerId = "016D93B1-224C-4BB2-94F2-5498F6B5D728";
paths = (
{
closed = 1;
nodes = (
"539 729 OFFCURVE",
"465 760 OFFCURVE",
"378 760 CURVE SMOOTH",
"205 760 OFFCURVE",
"64 618 OFFCURVE",
"64 442 CURVE SMOOTH",
"64 266 OFFCURVE",
"205 124 OFFCURVE",
"378 124 CURVE SMOOTH",
"551 124 OFFCURVE",
"692 266 OFFCURVE",
"692 442 CURVE SMOOTH",
"692 530 OFFCURVE",
"661 605 OFFCURVE",
"600 667 CURVE SMOOTH"
);
},
{
closed = 1;
nodes = (
"507 203 OFFCURVE",
"447 177 OFFCURVE",
"377 177 CURVE SMOOTH",
"237 177 OFFCURVE",
"124 295 OFFCURVE",
"124 442 CURVE SMOOTH",
"124 589 OFFCURVE",
"237 707 OFFCURVE",
"377 707 CURVE SMOOTH",
"517 707 OFFCURVE",
"631 589 OFFCURVE",
"631 442 CURVE SMOOTH",
"631 369 OFFCURVE",
"606 306 OFFCURVE",
"557 255 CURVE SMOOTH"
);
},
{
closed = 1;
nodes = (
"242 276 OFFCURVE",
"252 263 OFFCURVE",
"272 263 CURVE SMOOTH",
"291 263 OFFCURVE",
"304 279 OFFCURVE",
"304 309 CURVE SMOOTH",
"304 324 OFFCURVE",
"303 355 OFFCURVE",
"301 403 CURVE",
"317 400 OFFCURVE",
"329 399 OFFCURVE",
"338 399 CURVE SMOOTH",
"346 399 OFFCURVE",
"358 400 OFFCURVE",
"374 403 CURVE",
"382 390 OFFCURVE",
"392 374 OFFCURVE",
"403 354 CURVE SMOOTH",
"414 333 OFFCURVE",
"423 318 OFFCURVE",
"430 307 CURVE",
"442 286 OFFCURVE",
"463 264 OFFCURVE",
"485 264 CURVE SMOOTH",
"507 264 OFFCURVE",
"526 285 OFFCURVE",
"526 310 CURVE SMOOTH",
"526 313 OFFCURVE",
"524 315 OFFCURVE",
"519 315 CURVE SMOOTH",
"486 315 OFFCURVE",
"471 345 OFFCURVE",
"448 384 CURVE",
"443 395 OFFCURVE",
"437 405 OFFCURVE",
"430 416 CURVE",
"484 441 OFFCURVE",
"511 478 OFFCURVE",
"511 526 CURVE SMOOTH",
"511 586 OFFCURVE",
"460 643 OFFCURVE",
"364 643 CURVE SMOOTH",
"282 643 OFFCURVE",
"241 627 OFFCURVE",
"241 596 CURVE",
"246 459 LINE",
"242 301 LINE SMOOTH"
);
},
{
closed = 1;
nodes = (
"375 468 OFFCURVE",
"356 472 OFFCURVE",
"341 472 CURVE SMOOTH",
"326 472 OFFCURVE",
"311 469 OFFCURVE",
"298 463 CURVE",
"298 478 OFFCURVE",
"299 500 OFFCURVE",
"300 527 CURVE SMOOTH",
"301 554 OFFCURVE",
"301 572 OFFCURVE",
"301 580 CURVE",
"320 586 OFFCURVE",
"344 589 OFFCURVE",
"371 589 CURVE SMOOTH",
"425 589 OFFCURVE",
"452 560 OFFCURVE",
"452 525 CURVE SMOOTH",
"452 490 OFFCURVE",
"421 461 OFFCURVE",
"396 461 CURVE"
);
}
);
width = 756;
}
);
note = registered;
unicode = 00AE;
},
{
glyphname = macron;
lastChange = "2017-06-04 10:41:35 +0000";
layers = (
{
layerId = "016D93B1-224C-4BB2-94F2-5498F6B5D728";
paths = (
{
closed = 1;
nodes = (
"67 703 OFFCURVE",
"50 690 OFFCURVE",
"50 670 CURVE SMOOTH",
"50 650 OFFCURVE",
"67 637 OFFCURVE",
"91 637 CURVE SMOOTH",
"218 640 LINE",
"345 637 LINE SMOOTH",
"369 637 OFFCURVE",
"386 650 OFFCURVE",
"386 670 CURVE SMOOTH",
"386 690 OFFCURVE",
"369 703 OFFCURVE",
"345 703 CURVE SMOOTH",
"218 700 LINE",
"91 703 LINE SMOOTH"
);
}
);
width = 436;
}
);
note = macron;
unicode = 00AF;
},
{
glyphname = degree;
lastChange = "2017-06-04 10:41:35 +0000";
layers = (
{
layerId = "016D93B1-224C-4BB2-94F2-5498F6B5D728";
paths = (
{
closed = 1;
nodes = (
"231 701 OFFCURVE",
"202 715 OFFCURVE",
"167 715 CURVE SMOOTH",
"96 715 OFFCURVE",
"49 652 OFFCURVE",
"49 569 CURVE SMOOTH",
"49 486 OFFCURVE",
"96 423 OFFCURVE",
"167 423 CURVE SMOOTH",
"238 423 OFFCURVE",
"285 486 OFFCURVE",
"285 569 CURVE SMOOTH",
"285 610 OFFCURVE",
"274 645 OFFCURVE",
"253 673 CURVE SMOOTH"
);
},
{
closed = 1;
nodes = (
"200 487 OFFCURVE",
"186 478 OFFCURVE",
"168 478 CURVE SMOOTH",
"131 478 OFFCURVE",
"109 517 OFFCURVE",
"109 569 CURVE SMOOTH",
"109 621 OFFCURVE",
"131 660 OFFCURVE",
"168 660 CURVE SMOOTH",
"204 660 OFFCURVE",
"225 622 OFFCURVE",
"225 569 CURVE SMOOTH",
"225 542 OFFCURVE",
"220 521 OFFCURVE",
"210 504 CURVE SMOOTH"
);
}
);
width = 334;
}
);
note = degree;
unicode = 00B0;
},
{
glyphname = plusminus;
lastChange = "2017-06-04 10:41:35 +0000";
layers = (
{
layerId = "016D93B1-224C-4BB2-94F2-5498F6B5D728";
paths = (
{
closed = 1;
nodes = (
"167 62 OFFCURVE",
"108 63 OFFCURVE",
"108 63 CURVE SMOOTH",
"84 63 OFFCURVE",
"67 50 OFFCURVE",
"67 30 CURVE SMOOTH",
"67 10 OFFCURVE",
"84 -3 OFFCURVE",
"108 -3 CURVE SMOOTH",
"285 0 LINE",
"462 -3 LINE SMOOTH",
"486 -3 OFFCURVE",
"503 10 OFFCURVE",
"503 30 CURVE SMOOTH",
"503 50 OFFCURVE",
"486 63 OFFCURVE",
"462 63 CURVE SMOOTH",
"285 60 LINE SMOOTH"
);
},
{
closed = 1;
nodes = (
"319 428 OFFCURVE",
"320 468 OFFCURVE",
"320 476 CURVE SMOOTH",
"320 492 OFFCURVE",
"306 510 OFFCURVE",
"285 510 CURVE SMOOTH",
"263 510 OFFCURVE",
"252 496 OFFCURVE",
"252 469 CURVE SMOOTH",
"252 466 OFFCURVE",
"253 428 OFFCURVE",
"256 356 CURVE",
"108 359 LINE SMOOTH",
"84 359 OFFCURVE",
"67 346 OFFCURVE",
"67 326 CURVE SMOOTH",
"67 306 OFFCURVE",
"79 293 OFFCURVE",
"122 293 CURVE SMOOTH",
"143 293 OFFCURVE",
"188 294 OFFCURVE",
"256 296 CURVE",
"253 213 OFFCURVE",
"252 171 OFFCURVE",
"252 169 CURVE SMOOTH",
"252 142 OFFCURVE",
"263 128 OFFCURVE",
"285 128 CURVE SMOOTH",
"306 128 OFFCURVE",
"320 144 OFFCURVE",
"320 169 CURVE",
"316 296 LINE",
"380 294 OFFCURVE",
"429 293 OFFCURVE",
"462 293 CURVE SMOOTH",
"486 293 OFFCURVE",
"503 306 OFFCURVE",
"503 326 CURVE SMOOTH",
"503 346 OFFCURVE",
"486 359 OFFCURVE",
"462 359 CURVE SMOOTH",
"316 356 LINE"
);
}
);
width = 570;
}
);
note = plusminus;
unicode = 00B1;
},
{
glyphname = twosuperior;
lastChange = "2017-06-04 10:41:35 +0000";
layers = (
{
layerId = "016D93B1-224C-4BB2-94F2-5498F6B5D728";
paths = (
{
closed = 1;
nodes = (
"135 400 OFFCURVE",
"148 417 OFFCURVE",
"169 442 CURVE SMOOTH",
"190 467 OFFCURVE",
"203 484 OFFCURVE",
"209 493 CURVE",
"215 501 OFFCURVE",
"222 511 OFFCURVE",
"231 522 CURVE",
"239 533 OFFCURVE",
"245 540 OFFCURVE",
"248 544 CURVE SMOOTH",
"254 552 OFFCURVE",
"272 578 OFFCURVE",
"278 591 CURVE SMOOTH",
"281 597 OFFCURVE",
"285 606 OFFCURVE",
"291 619 CURVE SMOOTH",
"297 631 OFFCURVE",
"300 646 OFFCURVE",
"300 664 CURVE SMOOTH",
"300 716 OFFCURVE",
"256 765 OFFCURVE",
"185 765 CURVE SMOOTH",
"114 765 OFFCURVE",
"62 719 OFFCURVE",
"62 690 CURVE SMOOTH",
"62 673 OFFCURVE",
"72 661 OFFCURVE",
"91 661 CURVE SMOOTH",
"100 661 OFFCURVE",
"113 669 OFFCURVE",
"129 684 CURVE SMOOTH",
"144 699 OFFCURVE",
"161 706 OFFCURVE",
"179 706 CURVE SMOOTH",
"215 706 OFFCURVE",
"235 685 OFFCURVE",
"235 656 CURVE SMOOTH",
"235 623 OFFCURVE",
"183 547 OFFCURVE",
"78 430 CURVE SMOOTH",
"62 411 OFFCURVE",
"49 390 OFFCURVE",
"49 369 CURVE SMOOTH",
"49 348 OFFCURVE",
"68 334 OFFCURVE",
"89 334 CURVE",
"151 337 OFFCURVE",
"182 338 OFFCURVE",
"182 338 CURVE",
"284 334 LINE",
"312 334 OFFCURVE",
"326 345 OFFCURVE",
"326 366 CURVE SMOOTH",
"326 387 OFFCURVE",
"312 398 OFFCURVE",
"284 398 CURVE",
"181 393 LINE",
"130 393 LINE"
);
}
);
width = 374;
}
);
note = twosuperior;
unicode = 00B2;
},
{
glyphname = threesuperior;
lastChange = "2017-06-04 10:41:35 +0000";
layers = (
{
layerId = "016D93B1-224C-4BB2-94F2-5498F6B5D728";
paths = (
{
closed = 1;
nodes = (
"71 765 OFFCURVE",
"56 752 OFFCURVE",
"56 733 CURVE SMOOTH",
"56 714 OFFCURVE",
"69 704 OFFCURVE",
"95 704 CURVE",
"166 707 LINE",
"175 707 OFFCURVE",
"195 706 OFFCURVE",
"225 704 CURVE",
"195 670 OFFCURVE",
"167 640 OFFCURVE",
"142 613 CURVE",
"102 605 OFFCURVE",
"82 585 OFFCURVE",
"82 566 CURVE SMOOTH",
"82 543 OFFCURVE",
"94 532 OFFCURVE",
"118 532 CURVE SMOOTH",
"133 532 OFFCURVE",
"152 543 OFFCURVE",
"173 565 CURVE",
"222 562 OFFCURVE",
"261 526 OFFCURVE",
"261 477 CURVE SMOOTH",
"261 428 OFFCURVE",
"230 394 OFFCURVE",
"177 394 CURVE SMOOTH",
"150 394 OFFCURVE",
"124 407 OFFCURVE",
"97 432 CURVE",
"88 441 OFFCURVE",
"80 445 OFFCURVE",
"72 445 CURVE SMOOTH",
"56 445 OFFCURVE",
"48 437 OFFCURVE",
"48 420 CURVE SMOOTH",
"48 386 OFFCURVE",
"112 334 OFFCURVE",
"176 334 CURVE SMOOTH",
"267 334 OFFCURVE",
"324 403 OFFCURVE",
"324 472 CURVE SMOOTH",
"324 541 OFFCURVE",
"280 593 OFFCURVE",
"207 609 CURVE",
"222 627 OFFCURVE",
"238 645 OFFCURVE",
"256 663 CURVE SMOOTH",
"273 681 OFFCURVE",
"286 694 OFFCURVE",
"293 703 CURVE SMOOTH",
"300 712 OFFCURVE",
"303 720 OFFCURVE",
"303 728 CURVE SMOOTH",
"303 753 OFFCURVE",
"285 765 OFFCURVE",
"249 765 CURVE SMOOTH",
"176 763 LINE",
"95 765 LINE SMOOTH"
);
}
);
width = 370;
}
);
note = threesuperior;
unicode = 00B3;
},
{
glyphname = acute;
lastChange = "2017-06-04 10:41:35 +0000";
layers = (
{
layerId = "016D93B1-224C-4BB2-94F2-5498F6B5D728";
paths = (
{
closed = 1;
nodes = (
"215 742 OFFCURVE",
"203 760 OFFCURVE",
"179 760 CURVE SMOOTH",
"155 760 OFFCURVE",
"142 741 OFFCURVE",
"128 707 CURVE SMOOTH",
"114 673 OFFCURVE",
"107 668 OFFCURVE",
"86 644 CURVE SMOOTH",
"75 632 OFFCURVE",
"70 622 OFFCURVE",
"70 614 CURVE SMOOTH",
"70 600 OFFCURVE",
"79 593 OFFCURVE",
"97 593 CURVE SMOOTH",
"133 593 OFFCURVE",
"215 665 OFFCURVE",
"215 722 CURVE SMOOTH"
);
}
);
width = 285;
}
);
note = acute;
unicode = 00B4;
},
{
glyphname = mu;
lastChange = "2017-06-04 10:41:35 +0000";
layers = (
{
layerId = "016D93B1-224C-4BB2-94F2-5498F6B5D728";
paths = (
{
closed = 1;
nodes = (
"196 7 OFFCURVE",
"232 -10 OFFCURVE",
"270 -10 CURVE SMOOTH",
"345 -10 OFFCURVE",
"409 54 OFFCURVE",
"446 118 CURVE",
"446 33 OFFCURVE",
"467 -10 OFFCURVE",
"509 -10 CURVE SMOOTH",
"542 -10 OFFCURVE",
"567 15 OFFCURVE",
"567 51 CURVE SMOOTH",
"567 59 OFFCURVE",
"563 61 OFFCURVE",
"552 62 CURVE",
"546 63 OFFCURVE",
"541 64 OFFCURVE",
"537 66 CURVE",
"527 70 OFFCURVE",
"518 88 OFFCURVE",
"511 120 CURVE SMOOTH",
"504 151 OFFCURVE",
"500 192 OFFCURVE",
"500 242 CURVE",
"513 327 OFFCURVE",
"520 393 OFFCURVE",
"520 440 CURVE SMOOTH",
"520 487 OFFCURVE",
"505 510 OFFCURVE",
"474 510 CURVE SMOOTH",
"449 510 OFFCURVE",
"436 493 OFFCURVE",
"436 459 CURVE SMOOTH",
"439 242 LINE",
"414 146 OFFCURVE",
"341 56 OFFCURVE",
"274 56 CURVE SMOOTH",
"207 56 OFFCURVE",
"164 110 OFFCURVE",
"164 189 CURVE SMOOTH",
"164 286 OFFCURVE",
"165 359 OFFCURVE",
"168 407 CURVE SMOOTH",
"169 428 OFFCURVE",
"169 441 OFFCURVE",
"169 448 CURVE SMOOTH",
"169 489 OFFCURVE",
"156 509 OFFCURVE",
"129 509 CURVE SMOOTH",
"98 509 OFFCURVE",
"83 484 OFFCURVE",
"83 434 CURVE SMOOTH",
"83 395 OFFCURVE",
"88 307 OFFCURVE",
"98 170 CURVE",
"92 -179 LINE SMOOTH",
"92 -210 OFFCURVE",
"107 -230 OFFCURVE",
"131 -230 CURVE SMOOTH",
"155 -230 OFFCURVE",
"170 -210 OFFCURVE",
"170 -179 CURVE",
"163 40 LINE"
);
}
);
width = 611;
}
);
note = mu;
unicode = 00B5;
},
{
glyphname = paragraph;
lastChange = "2017-06-04 10:41:35 +0000";
layers = (
{
layerId = "016D93B1-224C-4BB2-94F2-5498F6B5D728";
paths = (
{
closed = 1;
nodes = (
"526 740 OFFCURVE",
"507 760 OFFCURVE",
"478 760 CURVE SMOOTH",
"391 757 LINE",
"290 760 LINE",
"137 757 OFFCURVE",
"44 674 OFFCURVE",
"44 533 CURVE SMOOTH",
"44 421 OFFCURVE",
"134 333 OFFCURVE",
"261 328 CURVE",
"261 265 LINE SMOOTH",
"261 145 OFFCURVE",
"259 22 OFFCURVE",
"256 -104 CURVE SMOOTH",
"255 -146 OFFCURVE",
"255 -171 OFFCURVE",
"255 -179 CURVE SMOOTH",
"255 -213 OFFCURVE",
"268 -230 OFFCURVE",
"294 -230 CURVE SMOOTH",
"320 -230 OFFCURVE",
"333 -213 OFFCURVE",
"333 -179 CURVE SMOOTH",
"333 -171 OFFCURVE",
"333 -146 OFFCURVE",
"332 -104 CURVE SMOOTH",
"330 -20 OFFCURVE",
"327 120 OFFCURVE",
"327 289 CURVE SMOOTH",
"327 373 OFFCURVE",
"329 508 OFFCURVE",
"332 695 CURVE",
"355 696 OFFCURVE",
"374 697 OFFCURVE",
"391 697 CURVE SMOOTH",
"408 697 OFFCURVE",
"427 696 OFFCURVE",
"450 695 CURVE",
"455 265 LINE SMOOTH",
"455 145 OFFCURVE",
"453 22 OFFCURVE",
"450 -104 CURVE SMOOTH",
"449 -146 OFFCURVE",
"449 -173 OFFCURVE",
"449 -184 CURVE SMOOTH",
"449 -208 OFFCURVE",
"464 -230 OFFCURVE",
"488 -230 CURVE SMOOTH",
"512 -230 OFFCURVE",
"527 -208 OFFCURVE",
"527 -184 CURVE SMOOTH",
"527 -173 OFFCURVE",
"526 -125 OFFCURVE",
"524 -41 CURVE SMOOTH",
"522 43 OFFCURVE",
"521 145 OFFCURVE",
"521 265 CURVE SMOOTH",
"526 709 LINE SMOOTH"
);
}
);
width = 628;
}
);
note = paragraph;
unicode = 00B6;
},
{
glyphname = periodcentered;
lastChange = "2017-06-04 10:41:35 +0000";
layers = (
{
layerId = "016D93B1-224C-4BB2-94F2-5498F6B5D728";
paths = (
{
closed = 1;
nodes = (
"86 315 OFFCURVE",
"64 285 OFFCURVE",
"64 254 CURVE SMOOTH",
"64 222 OFFCURVE",
"80 198 OFFCURVE",
"108 198 CURVE SMOOTH",
"136 198 OFFCURVE",
"158 229 OFFCURVE",
"158 261 CURVE SMOOTH",
"158 292 OFFCURVE",
"143 315 OFFCURVE",
"115 315 CURVE SMOOTH"
);
}
);
width = 222;
}
);
note = periodcentered;
unicode = 00B7;
},
{
glyphname = cedilla;
lastChange = "2017-06-04 10:41:35 +0000";
layers = (
{
layerId = "016D93B1-224C-4BB2-94F2-5498F6B5D728";
paths = (
{
closed = 1;
nodes = (
"271 -108 OFFCURVE",
"245 -83 OFFCURVE",
"218 -68 CURVE SMOOTH",
"183 -49 OFFCURVE",
"166 -30 OFFCURVE",
"166 -10 CURVE SMOOTH",
"166 12 LINE",
"102 12 LINE",
"102 -26 LINE SMOOTH",
"102 -54 OFFCURVE",
"126 -79 OFFCURVE",
"150 -91 CURVE SMOOTH",
"174 -104 OFFCURVE",
"198 -120 OFFCURVE",
"198 -136 CURVE SMOOTH",
"198 -152 OFFCURVE",
"175 -166 OFFCURVE",
"145 -166 CURVE SMOOTH",
"130 -166 OFFCURVE",
"113 -162 OFFCURVE",
"96 -153 CURVE",
"78 -145 OFFCURVE",
"66 -141 OFFCURVE",
"61 -141 CURVE SMOOTH",
"50 -141 OFFCURVE",
"43 -151 OFFCURVE",
"43 -160 CURVE SMOOTH",
"43 -192 OFFCURVE",
"87 -230 OFFCURVE",
"152 -230 CURVE SMOOTH",
"217 -230 OFFCURVE",
"271 -190 OFFCURVE",
"271 -137 CURVE SMOOTH"
);
}
);
width = 331;
}
);
note = cedilla;
unicode = 00B8;
},
{
glyphname = onesuperior;
lastChange = "2017-06-04 10:41:35 +0000";
layers = (
{
layerId = "016D93B1-224C-4BB2-94F2-5498F6B5D728";
paths = (
{
closed = 1;
nodes = (
"229 748 OFFCURVE",
"217 765 OFFCURVE",
"193 765 CURVE SMOOTH",
"182 765 OFFCURVE",
"172 761 OFFCURVE",
"164 754 CURVE SMOOTH",
"155 746 OFFCURVE",
"141 730 OFFCURVE",
"122 707 CURVE SMOOTH",
"103 684 OFFCURVE",
"82 661 OFFCURVE",
"60 639 CURVE SMOOTH",
"37 617 OFFCURVE",
"26 600 OFFCURVE",
"26 589 CURVE SMOOTH",
"26 569 OFFCURVE",
"36 559 OFFCURVE",
"57 559 CURVE SMOOTH",
"70 559 OFFCURVE",
"89 575 OFFCURVE",
"113 606 CURVE SMOOTH",
"126 622 OFFCURVE",
"133 632 OFFCURVE",
"136 635 CURVE",
"167 670 LINE",
"167 550 LINE SMOOTH",
"165 435 OFFCURVE",
"164 378 OFFCURVE",
"164 378 CURVE",
"164 354 OFFCURVE",
"177 338 OFFCURVE",
"197 338 CURVE SMOOTH",
"216 338 OFFCURVE",
"229 354 OFFCURVE",
"229 378 CURVE",
"226 550 LINE",
"229 714 LINE SMOOTH"
);
}
);
width = 297;
}
);
note = onesuperior;
unicode = 00B9;
},
{
glyphname = ordmasculine;
lastChange = "2017-06-04 10:41:35 +0000";
layers = (
{
layerId = "016D93B1-224C-4BB2-94F2-5498F6B5D728";
paths = (
{
closed = 1;
nodes = (
"102 715 OFFCURVE",
"48 646 OFFCURVE",
"48 553 CURVE SMOOTH",
"48 460 OFFCURVE",
"102 393 OFFCURVE",
"179 393 CURVE SMOOTH",
"256 393 OFFCURVE",
"310 460 OFFCURVE",
"310 553 CURVE SMOOTH",
"310 646 OFFCURVE",
"256 715 OFFCURVE",
"179 715 CURVE SMOOTH"
);
},
{
closed = 1;
nodes = (
"135 448 OFFCURVE",
"108 489 OFFCURVE",
"108 553 CURVE SMOOTH",
"108 616 OFFCURVE",
"135 660 OFFCURVE",
"179 660 CURVE SMOOTH",
"223 660 OFFCURVE",
"250 617 OFFCURVE",
"250 553 CURVE SMOOTH",
"250 489 OFFCURVE",
"224 448 OFFCURVE",
"180 448 CURVE SMOOTH"
);
}
);
width = 358;
}
);
note = ordmasculine;
unicode = 00BA;
},
{
glyphname = guillemotright;
lastChange = "2017-06-04 10:41:35 +0000";
layers = (
{
layerId = "016D93B1-224C-4BB2-94F2-5498F6B5D728";
paths = (
{
closed = 1;
nodes = (
"435 395 OFFCURVE",
"426 404 OFFCURVE",
"414 415 CURVE SMOOTH",
"390 437 OFFCURVE",
"378 449 OFFCURVE",
"359 470 CURVE SMOOTH",
"349 481 OFFCURVE",
"342 488 OFFCURVE",
"338 493 CURVE",
"329 501 OFFCURVE",
"316 510 OFFCURVE",
"301 510 CURVE SMOOTH",
"285 510 OFFCURVE",
"271 496 OFFCURVE",
"271 478 CURVE SMOOTH",
"271 460 OFFCURVE",
"283 449 OFFCURVE",
"311 430 CURVE",
"324 420 OFFCURVE",
"334 412 OFFCURVE",
"341 406 CURVE SMOOTH",
"373 377 OFFCURVE",
"389 358 OFFCURVE",
"389 349 CURVE SMOOTH",
"389 340 OFFCURVE",
"373 321 OFFCURVE",
"341 292 CURVE SMOOTH",
"334 286 OFFCURVE",
"324 278 OFFCURVE",
"311 269 CURVE SMOOTH",
"283 249 OFFCURVE",
"271 239 OFFCURVE",
"271 221 CURVE SMOOTH",
"271 203 OFFCURVE",
"284 188 OFFCURVE",
"305 188 CURVE SMOOTH",
"325 188 OFFCURVE",
"339 207 OFFCURVE",
"359 228 CURVE SMOOTH",
"378 249 OFFCURVE",
"386 258 OFFCURVE",
"421 290 CURVE SMOOTH",
"438 305 OFFCURVE",
"450 317 OFFCURVE",
"455 324 CURVE SMOOTH",
"460 331 OFFCURVE",
"463 339 OFFCURVE",
"463 348 CURVE SMOOTH",
"463 364 OFFCURVE",
"452 379 OFFCURVE",
"441 390 CURVE"
);
},
{
closed = 1;
nodes = (
"226 395 OFFCURVE",
"217 404 OFFCURVE",
"205 415 CURVE SMOOTH",
"181 437 OFFCURVE",
"169 449 OFFCURVE",
"150 470 CURVE SMOOTH",
"140 481 OFFCURVE",
"133 488 OFFCURVE",
"129 493 CURVE",
"120 501 OFFCURVE",
"107 510 OFFCURVE",
"92 510 CURVE SMOOTH",
"76 510 OFFCURVE",
"62 496 OFFCURVE",
"62 478 CURVE SMOOTH",
"62 460 OFFCURVE",
"74 449 OFFCURVE",
"102 430 CURVE",
"115 420 OFFCURVE",
"125 412 OFFCURVE",
"132 406 CURVE SMOOTH",
"164 377 OFFCURVE",
"180 358 OFFCURVE",
"180 349 CURVE SMOOTH",
"180 340 OFFCURVE",
"164 321 OFFCURVE",
"132 292 CURVE SMOOTH",
"125 286 OFFCURVE",
"115 278 OFFCURVE",
"102 269 CURVE SMOOTH",
"74 249 OFFCURVE",
"62 239 OFFCURVE",
"62 221 CURVE SMOOTH",
"62 203 OFFCURVE",
"75 188 OFFCURVE",
"96 188 CURVE SMOOTH",
"116 188 OFFCURVE",
"130 207 OFFCURVE",
"150 228 CURVE SMOOTH",
"169 249 OFFCURVE",
"177 258 OFFCURVE",
"212 290 CURVE SMOOTH",
"229 305 OFFCURVE",
"241 317 OFFCURVE",
"246 324 CURVE SMOOTH",
"251 331 OFFCURVE",
"254 339 OFFCURVE",
"254 348 CURVE SMOOTH",
"254 364 OFFCURVE",
"243 379 OFFCURVE",
"232 390 CURVE"
);
}
);
width = 506;
}
);
note = guillemotright;
unicode = 00BB;
},
{
glyphname = onequarter;
lastChange = "2017-06-04 10:41:35 +0000";
layers = (
{
layerId = "016D93B1-224C-4BB2-94F2-5498F6B5D728";
paths = (
{
closed = 1;
nodes = (
"244 748 OFFCURVE",
"232 765 OFFCURVE",
"208 765 CURVE SMOOTH",
"197 765 OFFCURVE",
"187 761 OFFCURVE",
"179 754 CURVE SMOOTH",
"170 746 OFFCURVE",
"156 730 OFFCURVE",
"137 707 CURVE SMOOTH",
"118 684 OFFCURVE",
"97 661 OFFCURVE",
"75 639 CURVE SMOOTH",
"52 617 OFFCURVE",
"41 600 OFFCURVE",
"41 589 CURVE SMOOTH",
"41 569 OFFCURVE",
"51 559 OFFCURVE",
"72 559 CURVE SMOOTH",
"85 559 OFFCURVE",
"104 575 OFFCURVE",
"128 606 CURVE SMOOTH",
"141 622 OFFCURVE",
"148 632 OFFCURVE",
"151 635 CURVE",
"182 670 LINE",
"182 550 LINE SMOOTH",
"180 435 OFFCURVE",
"179 378 OFFCURVE",
"179 378 CURVE",
"179 354 OFFCURVE",
"192 338 OFFCURVE",
"212 338 CURVE SMOOTH",
"231 338 OFFCURVE",
"244 354 OFFCURVE",
"244 378 CURVE",
"241 550 LINE",
"244 714 LINE SMOOTH"
);
},
{
closed = 1;
nodes = (
"560 701 OFFCURVE",
"565 721 OFFCURVE",
"565 733 CURVE SMOOTH",
"565 756 OFFCURVE",
"548 766 OFFCURVE",
"535 766 CURVE SMOOTH",
"514 766 OFFCURVE",
"499 752 OFFCURVE",
"490 724 CURVE",
"485 711 OFFCURVE",
"478 690 OFFCURVE",
"467 659 CURVE SMOOTH",
"456 628 OFFCURVE",
"442 586 OFFCURVE",
"425 535 CURVE SMOOTH",
"389 431 OFFCURVE",
"353 321 OFFCURVE",
"306 206 CURVE SMOOTH",
"283 148 OFFCURVE",
"266 105 OFFCURVE",
"256 78 CURVE SMOOTH",
"245 51 OFFCURVE",
"240 31 OFFCURVE",
"240 20 CURVE SMOOTH",
"240 -4 OFFCURVE",
"256 -14 OFFCURVE",
"273 -14 CURVE SMOOTH",
"282 -14 OFFCURVE",
"290 -10 OFFCURVE",
"298 -3 CURVE",
"305 4 OFFCURVE",
"314 21 OFFCURVE",
"323 48 CURVE SMOOTH",
"332 75 OFFCURVE",
"350 131 OFFCURVE",
"378 218 CURVE SMOOTH",
"413 322 OFFCURVE",
"451 434 OFFCURVE",
"498 548 CURVE SMOOTH",
"521 605 OFFCURVE",
"538 647 OFFCURVE",
"549 674 CURVE SMOOTH"
);
},
{
closed = 1;
nodes = (
"745 129 OFFCURVE",
"755 129 OFFCURVE",
"766 129 CURVE SMOOTH",
"786 129 OFFCURVE",
"798 144 OFFCURVE",
"798 157 CURVE SMOOTH",
"798 170 OFFCURVE",
"784 184 OFFCURVE",
"773 184 CURVE SMOOTH",
"767 184 OFFCURVE",
"754 183 OFFCURVE",
"734 182 CURVE",
"737 375 LINE SMOOTH",
"737 407 OFFCURVE",
"722 432 OFFCURVE",
"692 432 CURVE SMOOTH",
"677 432 OFFCURVE",
"658 418 OFFCURVE",
"637 391 CURVE SMOOTH",
"562 294 LINE SMOOTH",
"525 246 OFFCURVE",
"502 214 OFFCURVE",
"492 199 CURVE SMOOTH",
"481 183 OFFCURVE",
"476 171 OFFCURVE",
"476 162 CURVE SMOOTH",
"476 144 OFFCURVE",
"486 130 OFFCURVE",
"509 130 CURVE SMOOTH",
"640 133 LINE",
"679 132 LINE",
"676 33 LINE SMOOTH",
"676 4 OFFCURVE",
"686 -10 OFFCURVE",
"707 -10 CURVE SMOOTH",
"727 -10 OFFCURVE",
"737 4 OFFCURVE",
"737 33 CURVE",
"734 130 LINE"
);
},
{
closed = 1;
nodes = (
"622 285 OFFCURVE",
"666 343 OFFCURVE",
"678 356 CURVE",
"679 278 LINE SMOOTH",
"679 240 OFFCURVE",
"679 208 OFFCURVE",
"678 182 CURVE",
"547 182 LINE"
);
}
);
width = 844;
}
);
note = onequarter;
unicode = 00BC;
},
{
glyphname = onehalf;
lastChange = "2017-06-04 10:41:35 +0000";
layers = (
{
layerId = "016D93B1-224C-4BB2-94F2-5498F6B5D728";
paths = (
{
closed = 1;
nodes = (
"244 748 OFFCURVE",
"232 765 OFFCURVE",
"208 765 CURVE SMOOTH",
"197 765 OFFCURVE",
"187 761 OFFCURVE",
"179 754 CURVE SMOOTH",
"170 746 OFFCURVE",
"156 730 OFFCURVE",
"137 707 CURVE SMOOTH",
"118 684 OFFCURVE",
"97 661 OFFCURVE",
"75 639 CURVE SMOOTH",
"52 617 OFFCURVE",
"41 600 OFFCURVE",
"41 589 CURVE SMOOTH",
"41 569 OFFCURVE",
"51 559 OFFCURVE",
"72 559 CURVE SMOOTH",
"85 559 OFFCURVE",
"104 575 OFFCURVE",
"128 606 CURVE SMOOTH",
"141 622 OFFCURVE",
"148 632 OFFCURVE",
"151 635 CURVE",
"182 670 LINE",
"182 550 LINE SMOOTH",
"180 435 OFFCURVE",
"179 378 OFFCURVE",
"179 378 CURVE",
"179 354 OFFCURVE",
"192 338 OFFCURVE",
"212 338 CURVE SMOOTH",
"231 338 OFFCURVE",
"244 354 OFFCURVE",
"244 378 CURVE",
"241 550 LINE",
"244 714 LINE SMOOTH"
);
},
{
closed = 1;
nodes = (
"612 63 OFFCURVE",
"625 80 OFFCURVE",
"646 105 CURVE SMOOTH",
"667 130 OFFCURVE",
"680 147 OFFCURVE",
"686 156 CURVE",
"692 164 OFFCURVE",
"699 174 OFFCURVE",
"708 185 CURVE",
"716 196 OFFCURVE",
"722 203 OFFCURVE",
"725 207 CURVE SMOOTH",
"731 215 OFFCURVE",
"749 241 OFFCURVE",
"755 254 CURVE SMOOTH",
"758 260 OFFCURVE",
"762 269 OFFCURVE",
"768 282 CURVE SMOOTH",
"774 294 OFFCURVE",
"777 309 OFFCURVE",
"777 327 CURVE SMOOTH",
"777 379 OFFCURVE",
"733 428 OFFCURVE",
"662 428 CURVE SMOOTH",
"591 428 OFFCURVE",
"539 382 OFFCURVE",
"539 353 CURVE SMOOTH",
"539 336 OFFCURVE",
"549 324 OFFCURVE",
"568 324 CURVE SMOOTH",
"577 324 OFFCURVE",
"590 332 OFFCURVE",
"606 347 CURVE SMOOTH",
"621 362 OFFCURVE",
"638 369 OFFCURVE",
"656 369 CURVE SMOOTH",
"692 369 OFFCURVE",
"712 348 OFFCURVE",
"712 319 CURVE SMOOTH",
"712 286 OFFCURVE",
"660 210 OFFCURVE",
"555 92 CURVE SMOOTH",
"539 75 OFFCURVE",
"526 53 OFFCURVE",
"526 32 CURVE SMOOTH",
"526 11 OFFCURVE",
"545 -3 OFFCURVE",
"566 -3 CURVE",
"659 1 LINE",
"761 -3 LINE",
"789 -3 OFFCURVE",
"803 8 OFFCURVE",
"803 29 CURVE SMOOTH",
"803 50 OFFCURVE",
"789 61 OFFCURVE",
"761 61 CURVE",
"658 56 LINE",
"607 56 LINE"
);
},
{
closed = 1;
nodes = (
"560 701 OFFCURVE",
"565 721 OFFCURVE",
"565 733 CURVE SMOOTH",
"565 756 OFFCURVE",
"548 766 OFFCURVE",
"535 766 CURVE SMOOTH",
"514 766 OFFCURVE",
"499 752 OFFCURVE",
"490 724 CURVE",
"485 711 OFFCURVE",
"478 690 OFFCURVE",
"467 659 CURVE SMOOTH",
"456 628 OFFCURVE",
"442 586 OFFCURVE",
"425 535 CURVE SMOOTH",
"389 431 OFFCURVE",
"353 321 OFFCURVE",
"306 206 CURVE SMOOTH",
"283 148 OFFCURVE",
"266 105 OFFCURVE",
"256 78 CURVE SMOOTH",
"245 51 OFFCURVE",
"240 31 OFFCURVE",
"240 20 CURVE SMOOTH",
"240 -4 OFFCURVE",
"256 -14 OFFCURVE",
"273 -14 CURVE SMOOTH",
"282 -14 OFFCURVE",
"290 -10 OFFCURVE",
"298 -3 CURVE",
"305 4 OFFCURVE",
"314 21 OFFCURVE",
"323 48 CURVE SMOOTH",
"332 75 OFFCURVE",
"350 131 OFFCURVE",
"378 218 CURVE SMOOTH",
"413 322 OFFCURVE",
"451 434 OFFCURVE",
"498 548 CURVE SMOOTH",
"521 605 OFFCURVE",
"538 647 OFFCURVE",
"549 674 CURVE SMOOTH"
);
}
);
width = 854;
}
);
note = onehalf;
unicode = 00BD;
},
{
glyphname = threequarters;
lastChange = "2017-06-04 10:41:35 +0000";
layers = (
{
layerId = "016D93B1-224C-4BB2-94F2-5498F6B5D728";
paths = (
{
closed = 1;
nodes = (
"612 701 OFFCURVE",
"617 721 OFFCURVE",
"617 733 CURVE SMOOTH",
"617 756 OFFCURVE",
"600 766 OFFCURVE",
"587 766 CURVE SMOOTH",
"566 766 OFFCURVE",
"551 752 OFFCURVE",
"542 724 CURVE",
"537 711 OFFCURVE",
"530 690 OFFCURVE",
"519 659 CURVE SMOOTH",
"508 628 OFFCURVE",
"494 586 OFFCURVE",
"477 535 CURVE SMOOTH",
"441 431 OFFCURVE",
"405 321 OFFCURVE",
"358 206 CURVE SMOOTH",
"335 148 OFFCURVE",
"318 105 OFFCURVE",
"308 78 CURVE SMOOTH",
"297 51 OFFCURVE",
"292 31 OFFCURVE",
"292 20 CURVE SMOOTH",
"292 -4 OFFCURVE",
"308 -14 OFFCURVE",
"325 -14 CURVE SMOOTH",
"334 -14 OFFCURVE",
"342 -10 OFFCURVE",
"350 -3 CURVE",
"357 4 OFFCURVE",
"366 21 OFFCURVE",
"375 48 CURVE SMOOTH",
"384 75 OFFCURVE",
"402 131 OFFCURVE",
"430 218 CURVE SMOOTH",
"465 322 OFFCURVE",
"503 434 OFFCURVE",
"550 548 CURVE SMOOTH",
"573 605 OFFCURVE",
"590 647 OFFCURVE",
"601 674 CURVE SMOOTH"
);
},
{
closed = 1;
nodes = (
"797 129 OFFCURVE",
"807 129 OFFCURVE",
"818 129 CURVE SMOOTH",
"838 129 OFFCURVE",
"850 144 OFFCURVE",
"850 157 CURVE SMOOTH",
"850 170 OFFCURVE",
"836 184 OFFCURVE",
"825 184 CURVE SMOOTH",
"819 184 OFFCURVE",
"806 183 OFFCURVE",
"786 182 CURVE",
"789 375 LINE SMOOTH",
"789 407 OFFCURVE",
"774 432 OFFCURVE",
"744 432 CURVE SMOOTH",
"729 432 OFFCURVE",
"710 418 OFFCURVE",
"689 391 CURVE SMOOTH",
"614 294 LINE SMOOTH",
"577 246 OFFCURVE",
"554 214 OFFCURVE",
"544 199 CURVE SMOOTH",
"533 183 OFFCURVE",
"528 171 OFFCURVE",
"528 162 CURVE SMOOTH",
"528 144 OFFCURVE",
"538 130 OFFCURVE",
"561 130 CURVE SMOOTH",
"692 133 LINE",
"731 132 LINE",
"728 33 LINE SMOOTH",
"728 4 OFFCURVE",
"738 -10 OFFCURVE",
"759 -10 CURVE SMOOTH",
"779 -10 OFFCURVE",
"789 4 OFFCURVE",
"789 33 CURVE",
"786 130 LINE"
);
},
{
closed = 1;
nodes = (
"674 285 OFFCURVE",
"718 343 OFFCURVE",
"730 356 CURVE",
"731 278 LINE SMOOTH",
"731 240 OFFCURVE",
"731 208 OFFCURVE",
"730 182 CURVE",
"599 182 LINE"
);
},
{
closed = 1;
nodes = (
"77 765 OFFCURVE",
"62 752 OFFCURVE",
"62 733 CURVE SMOOTH",
"62 714 OFFCURVE",
"75 704 OFFCURVE",
"101 704 CURVE",
"172 707 LINE",
"181 707 OFFCURVE",
"201 706 OFFCURVE",
"231 704 CURVE",
"201 670 OFFCURVE",
"173 640 OFFCURVE",
"148 613 CURVE",
"108 605 OFFCURVE",
"88 585 OFFCURVE",
"88 566 CURVE SMOOTH",
"88 543 OFFCURVE",
"100 532 OFFCURVE",
"124 532 CURVE SMOOTH",
"139 532 OFFCURVE",
"158 543 OFFCURVE",
"179 565 CURVE",
"228 562 OFFCURVE",
"267 526 OFFCURVE",
"267 477 CURVE SMOOTH",
"267 428 OFFCURVE",
"236 394 OFFCURVE",
"183 394 CURVE SMOOTH",
"156 394 OFFCURVE",
"130 407 OFFCURVE",
"103 432 CURVE",
"94 441 OFFCURVE",
"86 445 OFFCURVE",
"78 445 CURVE SMOOTH",
"62 445 OFFCURVE",
"54 437 OFFCURVE",
"54 420 CURVE SMOOTH",
"54 386 OFFCURVE",
"118 334 OFFCURVE",
"182 334 CURVE SMOOTH",
"273 334 OFFCURVE",
"330 403 OFFCURVE",
"330 472 CURVE SMOOTH",
"330 541 OFFCURVE",
"286 593 OFFCURVE",
"213 609 CURVE",
"228 627 OFFCURVE",
"244 645 OFFCURVE",
"262 663 CURVE SMOOTH",
"279 681 OFFCURVE",
"292 694 OFFCURVE",
"299 703 CURVE SMOOTH",
"306 712 OFFCURVE",
"309 720 OFFCURVE",
"309 728 CURVE SMOOTH",
"309 753 OFFCURVE",
"291 765 OFFCURVE",
"255 765 CURVE SMOOTH",
"182 763 LINE",
"101 765 LINE SMOOTH"
);
}
);
width = 894;
}
);
note = threequarters;
unicode = 00BE;
},
{
glyphname = questiondown;
lastChange = "2017-06-04 10:41:35 +0000";
layers = (
{
layerId = "016D93B1-224C-4BB2-94F2-5498F6B5D728";
paths = (
{
closed = 1;
nodes = (
"295 308 OFFCURVE",
"283 327 OFFCURVE",
"258 327 CURVE SMOOTH",
"235 327 OFFCURVE",
"223 308 OFFCURVE",
"223 269 CURVE SMOOTH",
"223 230 OFFCURVE",
"202 189 OFFCURVE",
"161 148 CURVE SMOOTH",
"144 131 OFFCURVE",
"126 113 OFFCURVE",
"109 94 CURVE SMOOTH",
"68 51 OFFCURVE",
"47 2 OFFCURVE",
"47 -51 CURVE SMOOTH",
"47 -152 OFFCURVE",
"122 -230 OFFCURVE",
"233 -230 CURVE SMOOTH",
"317 -230 OFFCURVE",
"399 -169 OFFCURVE",
"399 -122 CURVE SMOOTH",
"399 -105 OFFCURVE",
"388 -90 OFFCURVE",
"365 -90 CURVE SMOOTH",
"354 -90 OFFCURVE",
"339 -103 OFFCURVE",
"320 -128 CURVE SMOOTH",
"305 -147 OFFCURVE",
"273 -166 OFFCURVE",
"225 -166 CURVE SMOOTH",
"176 -166 OFFCURVE",
"119 -115 OFFCURVE",
"119 -51 CURVE SMOOTH",
"119 -10 OFFCURVE",
"140 31 OFFCURVE",
"181 74 CURVE SMOOTH",
"198 91 OFFCURVE",
"216 109 OFFCURVE",
"233 128 CURVE SMOOTH",
"274 173 OFFCURVE",
"295 220 OFFCURVE",
"295 271 CURVE SMOOTH"
);
},
{
closed = 1;
nodes = (
"235 545 OFFCURVE",
"213 515 OFFCURVE",
"213 484 CURVE SMOOTH",
"213 452 OFFCURVE",
"228 430 OFFCURVE",
"256 430 CURVE SMOOTH",
"283 430 OFFCURVE",
"305 461 OFFCURVE",
"305 491 CURVE SMOOTH",
"305 521 OFFCURVE",
"290 545 OFFCURVE",
"263 545 CURVE SMOOTH"
);
}
);
width = 443;
}
);
note = questiondown;
unicode = 00BF;
},
{
glyphname = Agrave;
lastChange = "2017-06-04 10:41:35 +0000";
layers = (
{
layerId = "016D93B1-224C-4BB2-94F2-5498F6B5D728";
paths = (
{
closed = 1;
nodes = (
"486 387 OFFCURVE",
"452 488 OFFCURVE",
"408 622 CURVE SMOOTH",
"394 665 OFFCURVE",
"384 694 OFFCURVE",
"378 709 CURVE SMOOTH",
"366 739 OFFCURVE",
"350 760 OFFCURVE",
"317 760 CURVE SMOOTH",
"292 760 OFFCURVE",
"273 740 OFFCURVE",
"259 700 CURVE SMOOTH",
"174 450 OFFCURVE",
"130 322 OFFCURVE",
"128 317 CURVE",
"116 318 OFFCURVE",
"102 318 OFFCURVE",
"87 318 CURVE SMOOTH",
"55 318 OFFCURVE",
"39 306 OFFCURVE",
"39 281 CURVE SMOOTH",
"39 256 OFFCURVE",
"55 244 OFFCURVE",
"87 244 CURVE SMOOTH",
"105 244 LINE",
"98 220 OFFCURVE",
"88 190 OFFCURVE",
"76 154 CURVE SMOOTH",
"63 118 OFFCURVE",
"54 90 OFFCURVE",
"48 70 CURVE SMOOTH",
"42 49 OFFCURVE",
"39 34 OFFCURVE",
"39 25 CURVE SMOOTH",
"39 5 OFFCURVE",
"52 -10 OFFCURVE",
"72 -10 CURVE SMOOTH",
"89 -10 OFFCURVE",
"102 2 OFFCURVE",
"111 27 CURVE",
"114 34 OFFCURVE",
"136 107 OFFCURVE",
"177 246 CURVE",
"220 248 OFFCURVE",
"258 249 OFFCURVE",
"289 249 CURVE SMOOTH",
"320 249 OFFCURVE",
"376 248 OFFCURVE",
"456 246 CURVE",
"466 215 OFFCURVE",
"478 176 OFFCURVE",
"492 131 CURVE SMOOTH",
"505 86 OFFCURVE",
"517 50 OFFCURVE",
"526 25 CURVE",
"536 2 OFFCURVE",
"551 -10 OFFCURVE",
"570 -10 CURVE SMOOTH",
"591 -10 OFFCURVE",
"604 7 OFFCURVE",
"604 26 CURVE SMOOTH",
"604 35 OFFCURVE",
"595 64 OFFCURVE",
"578 112 CURVE SMOOTH",
"569 135 OFFCURVE",
"563 155 OFFCURVE",
"558 170 CURVE SMOOTH",
"553 185 OFFCURVE",
"545 209 OFFCURVE",
"534 242 CURVE",
"581 242 OFFCURVE",
"604 255 OFFCURVE",
"604 280 CURVE SMOOTH",
"604 303 OFFCURVE",
"583 319 OFFCURVE",
"554 319 CURVE SMOOTH",
"510 318 LINE"
);
},
{
closed = 1;
nodes = (
"279 563 OFFCURVE",
"310 646 OFFCURVE",
"319 646 CURVE SMOOTH",
"327 646 OFFCURVE",
"365 536 OFFCURVE",
"434 315 CURVE",
"399 313 OFFCURVE",
"361 312 OFFCURVE",
"319 312 CURVE SMOOTH",
"276 312 OFFCURVE",
"236 313 OFFCURVE",
"199 315 CURVE",
"226 398 LINE SMOOTH"
);
},
{
closed = 1;
nodes = (
"364 832 OFFCURVE",
"357 844 OFFCURVE",
"344 859 CURVE",
"328 876 OFFCURVE",
"321 883 OFFCURVE",
"307 917 CURVE SMOOTH",
"293 951 OFFCURVE",
"279 970 OFFCURVE",
"255 970 CURVE SMOOTH",
"231 970 OFFCURVE",
"219 952 OFFCURVE",
"219 932 CURVE SMOOTH",
"219 875 OFFCURVE",
"301 803 OFFCURVE",
"337 803 CURVE SMOOTH",
"355 803 OFFCURVE",
"364 810 OFFCURVE",
"364 824 CURVE SMOOTH"
);
}
);
width = 642;
}
);
note = Agrave;
unicode = 00C0;
},
{
glyphname = Aacute;
lastChange = "2017-06-04 10:41:35 +0000";
layers = (
{
layerId = "016D93B1-224C-4BB2-94F2-5498F6B5D728";
paths = (
{
closed = 1;
nodes = (
"486 387 OFFCURVE",
"452 488 OFFCURVE",
"408 622 CURVE SMOOTH",
"394 665 OFFCURVE",
"384 694 OFFCURVE",
"378 709 CURVE SMOOTH",
"366 739 OFFCURVE",
"350 760 OFFCURVE",
"317 760 CURVE SMOOTH",
"292 760 OFFCURVE",
"273 740 OFFCURVE",
"259 700 CURVE SMOOTH",
"174 450 OFFCURVE",
"130 322 OFFCURVE",
"128 317 CURVE",
"116 318 OFFCURVE",
"102 318 OFFCURVE",
"87 318 CURVE SMOOTH",
"55 318 OFFCURVE",
"39 306 OFFCURVE",
"39 281 CURVE SMOOTH",
"39 256 OFFCURVE",
"55 244 OFFCURVE",
"87 244 CURVE SMOOTH",
"105 244 LINE",
"98 220 OFFCURVE",
"88 190 OFFCURVE",
"76 154 CURVE SMOOTH",
"63 118 OFFCURVE",
"54 90 OFFCURVE",
"48 70 CURVE SMOOTH",
"42 49 OFFCURVE",
"39 34 OFFCURVE",
"39 25 CURVE SMOOTH",
"39 5 OFFCURVE",
"52 -10 OFFCURVE",
"72 -10 CURVE SMOOTH",
"89 -10 OFFCURVE",
"102 2 OFFCURVE",
"111 27 CURVE",
"114 34 OFFCURVE",
"136 107 OFFCURVE",
"177 246 CURVE",
"220 248 OFFCURVE",
"258 249 OFFCURVE",
"289 249 CURVE SMOOTH",
"320 249 OFFCURVE",
"376 248 OFFCURVE",
"456 246 CURVE",
"466 215 OFFCURVE",
"478 176 OFFCURVE",
"492 131 CURVE SMOOTH",
"505 86 OFFCURVE",
"517 50 OFFCURVE",
"526 25 CURVE",
"536 2 OFFCURVE",
"551 -10 OFFCURVE",
"570 -10 CURVE SMOOTH",
"591 -10 OFFCURVE",
"604 7 OFFCURVE",
"604 26 CURVE SMOOTH",
"604 35 OFFCURVE",
"595 64 OFFCURVE",
"578 112 CURVE SMOOTH",
"569 135 OFFCURVE",
"563 155 OFFCURVE",
"558 170 CURVE SMOOTH",
"553 185 OFFCURVE",
"545 209 OFFCURVE",
"534 242 CURVE",
"581 242 OFFCURVE",
"604 255 OFFCURVE",
"604 280 CURVE SMOOTH",
"604 303 OFFCURVE",
"583 319 OFFCURVE",
"554 319 CURVE SMOOTH",
"510 318 LINE"
);
},
{
closed = 1;
nodes = (
"279 563 OFFCURVE",
"310 646 OFFCURVE",
"319 646 CURVE SMOOTH",
"327 646 OFFCURVE",
"365 536 OFFCURVE",
"434 315 CURVE",
"399 313 OFFCURVE",
"361 312 OFFCURVE",
"319 312 CURVE SMOOTH",
"276 312 OFFCURVE",
"236 313 OFFCURVE",
"199 315 CURVE",
"226 398 LINE SMOOTH"
);
},
{
closed = 1;
nodes = (
"414 952 OFFCURVE",
"402 970 OFFCURVE",
"378 970 CURVE SMOOTH",
"354 970 OFFCURVE",
"341 951 OFFCURVE",
"327 917 CURVE SMOOTH",
"313 883 OFFCURVE",
"306 878 OFFCURVE",
"285 854 CURVE SMOOTH",
"274 842 OFFCURVE",
"269 832 OFFCURVE",
"269 824 CURVE SMOOTH",
"269 810 OFFCURVE",
"278 803 OFFCURVE",
"296 803 CURVE SMOOTH",
"332 803 OFFCURVE",
"414 875 OFFCURVE",
"414 932 CURVE SMOOTH"
);
}
);
width = 642;
}
);
note = Aacute;
unicode = 00C1;
},
{
glyphname = Acircumflex;
lastChange = "2017-06-04 10:41:35 +0000";
layers = (
{
layerId = "016D93B1-224C-4BB2-94F2-5498F6B5D728";
paths = (
{
closed = 1;
nodes = (
"486 387 OFFCURVE",
"452 488 OFFCURVE",
"408 622 CURVE SMOOTH",
"394 665 OFFCURVE",
"384 694 OFFCURVE",
"378 709 CURVE SMOOTH",
"366 739 OFFCURVE",
"350 760 OFFCURVE",
"317 760 CURVE SMOOTH",
"292 760 OFFCURVE",
"273 740 OFFCURVE",
"259 700 CURVE SMOOTH",
"174 450 OFFCURVE",
"130 322 OFFCURVE",
"128 317 CURVE",
"116 318 OFFCURVE",
"102 318 OFFCURVE",
"87 318 CURVE SMOOTH",
"55 318 OFFCURVE",
"39 306 OFFCURVE",
"39 281 CURVE SMOOTH",
"39 256 OFFCURVE",
"55 244 OFFCURVE",
"87 244 CURVE SMOOTH",
"105 244 LINE",
"98 220 OFFCURVE",
"88 190 OFFCURVE",
"76 154 CURVE SMOOTH",
"63 118 OFFCURVE",
"54 90 OFFCURVE",
"48 70 CURVE SMOOTH",
"42 49 OFFCURVE",
"39 34 OFFCURVE",
"39 25 CURVE SMOOTH",
"39 5 OFFCURVE",
"52 -10 OFFCURVE",
"72 -10 CURVE SMOOTH",
"89 -10 OFFCURVE",
"102 2 OFFCURVE",
"111 27 CURVE",
"114 34 OFFCURVE",
"136 107 OFFCURVE",
"177 246 CURVE",
"220 248 OFFCURVE",
"258 249 OFFCURVE",
"289 249 CURVE SMOOTH",
"320 249 OFFCURVE",
"376 248 OFFCURVE",
"456 246 CURVE",
"466 215 OFFCURVE",
"478 176 OFFCURVE",
"492 131 CURVE SMOOTH",
"505 86 OFFCURVE",
"517 50 OFFCURVE",
"526 25 CURVE",
"536 2 OFFCURVE",
"551 -10 OFFCURVE",
"570 -10 CURVE SMOOTH",
"591 -10 OFFCURVE",
"604 7 OFFCURVE",
"604 26 CURVE SMOOTH",
"604 35 OFFCURVE",
"595 64 OFFCURVE",
"578 112 CURVE SMOOTH",
"569 135 OFFCURVE",
"563 155 OFFCURVE",
"558 170 CURVE SMOOTH",
"553 185 OFFCURVE",
"545 209 OFFCURVE",
"534 242 CURVE",
"581 242 OFFCURVE",
"604 255 OFFCURVE",
"604 280 CURVE SMOOTH",
"604 303 OFFCURVE",
"583 319 OFFCURVE",
"554 319 CURVE SMOOTH",
"510 318 LINE"
);
},
{
closed = 1;
nodes = (
"279 563 OFFCURVE",
"310 646 OFFCURVE",
"319 646 CURVE SMOOTH",
"327 646 OFFCURVE",
"365 536 OFFCURVE",
"434 315 CURVE",
"399 313 OFFCURVE",
"361 312 OFFCURVE",
"319 312 CURVE SMOOTH",
"276 312 OFFCURVE",
"236 313 OFFCURVE",
"199 315 CURVE",
"226 398 LINE SMOOTH"
);
},
{
closed = 1;
nodes = (
"451 873 OFFCURVE",
"445 878 OFFCURVE",
"436 886 CURVE SMOOTH",
"419 901 OFFCURVE",
"405 912 OFFCURVE",
"381 943 CURVE SMOOTH",
"357 974 OFFCURVE",
"345 984 OFFCURVE",
"321 984 CURVE SMOOTH",
"297 984 OFFCURVE",
"286 974 OFFCURVE",
"263 943 CURVE SMOOTH",
"239 912 OFFCURVE",
"226 901 OFFCURVE",
"208 886 CURVE SMOOTH",
"199 878 OFFCURVE",
"193 873 OFFCURVE",
"190 870 CURVE SMOOTH",
"184 864 OFFCURVE",
"176 854 OFFCURVE",
"176 840 CURVE SMOOTH",
"176 826 OFFCURVE",
"188 812 OFFCURVE",
"211 812 CURVE SMOOTH",
"222 812 OFFCURVE",
"236 823 OFFCURVE",
"252 844 CURVE",
"259 854 OFFCURVE",
"263 860 OFFCURVE",
"266 862 CURVE",
"293 894 OFFCURVE",
"311 910 OFFCURVE",
"322 910 CURVE SMOOTH",
"332 910 OFFCURVE",
"350 894 OFFCURVE",
"377 862 CURVE",
"380 860 OFFCURVE",
"385 854 OFFCURVE",
"392 845 CURVE",
"406 825 OFFCURVE",
"420 812 OFFCURVE",
"437 812 CURVE SMOOTH",
"453 812 OFFCURVE",
"467 826 OFFCURVE",
"467 840 CURVE SMOOTH",
"467 854 OFFCURVE",
"461 864 OFFCURVE",
"454 870 CURVE"
);
}
);
width = 642;
}
);
note = Acircumflex;
unicode = 00C2;
},
{
glyphname = Atilde;
lastChange = "2017-06-04 10:41:35 +0000";
layers = (
{
layerId = "016D93B1-224C-4BB2-94F2-5498F6B5D728";
paths = (
{
closed = 1;
nodes = (
"486 387 OFFCURVE",
"452 488 OFFCURVE",
"408 622 CURVE SMOOTH",
"394 665 OFFCURVE",
"384 694 OFFCURVE",
"378 709 CURVE SMOOTH",
"366 739 OFFCURVE",
"350 760 OFFCURVE",
"317 760 CURVE SMOOTH",
"292 760 OFFCURVE",
"273 740 OFFCURVE",
"259 700 CURVE SMOOTH",
"174 450 OFFCURVE",
"130 322 OFFCURVE",
"128 317 CURVE",
"116 318 OFFCURVE",
"102 318 OFFCURVE",
"87 318 CURVE SMOOTH",
"55 318 OFFCURVE",
"39 306 OFFCURVE",
"39 281 CURVE SMOOTH",
"39 256 OFFCURVE",
"55 244 OFFCURVE",
"87 244 CURVE SMOOTH",
"105 244 LINE",
"98 220 OFFCURVE",
"88 190 OFFCURVE",
"76 154 CURVE SMOOTH",
"63 118 OFFCURVE",
"54 90 OFFCURVE",
"48 70 CURVE SMOOTH",
"42 49 OFFCURVE",
"39 34 OFFCURVE",
"39 25 CURVE SMOOTH",
"39 5 OFFCURVE",
"52 -10 OFFCURVE",
"72 -10 CURVE SMOOTH",
"89 -10 OFFCURVE",
"102 2 OFFCURVE",
"111 27 CURVE",
"114 34 OFFCURVE",
"136 107 OFFCURVE",
"177 246 CURVE",
"220 248 OFFCURVE",
"258 249 OFFCURVE",
"289 249 CURVE SMOOTH",
"320 249 OFFCURVE",
"376 248 OFFCURVE",
"456 246 CURVE",
"466 215 OFFCURVE",
"478 176 OFFCURVE",
"492 131 CURVE SMOOTH",
"505 86 OFFCURVE",
"517 50 OFFCURVE",
"526 25 CURVE",
"536 2 OFFCURVE",
"551 -10 OFFCURVE",
"570 -10 CURVE SMOOTH",
"591 -10 OFFCURVE",
"604 7 OFFCURVE",
"604 26 CURVE SMOOTH",
"604 35 OFFCURVE",
"595 64 OFFCURVE",
"578 112 CURVE SMOOTH",
"569 135 OFFCURVE",
"563 155 OFFCURVE",
"558 170 CURVE SMOOTH",
"553 185 OFFCURVE",
"545 209 OFFCURVE",
"534 242 CURVE",
"581 242 OFFCURVE",
"604 255 OFFCURVE",
"604 280 CURVE SMOOTH",
"604 303 OFFCURVE",
"583 319 OFFCURVE",
"554 319 CURVE SMOOTH",
"510 318 LINE"
);
},
{
closed = 1;
nodes = (
"279 563 OFFCURVE",
"310 646 OFFCURVE",
"319 646 CURVE SMOOTH",
"327 646 OFFCURVE",
"365 536 OFFCURVE",
"434 315 CURVE",
"399 313 OFFCURVE",
"361 312 OFFCURVE",
"319 312 CURVE SMOOTH",
"276 312 OFFCURVE",
"236 313 OFFCURVE",
"199 315 CURVE",
"226 398 LINE SMOOTH"
);
},
{
closed = 1;
nodes = (
"500 927 OFFCURVE",
"491 940 OFFCURVE",
"479 940 CURVE SMOOTH",
"473 940 OFFCURVE",
"464 932 OFFCURVE",
"453 915 CURVE SMOOTH",
"442 898 OFFCURVE",
"429 889 OFFCURVE",
"415 889 CURVE SMOOTH",
"400 889 OFFCURVE",
"376 898 OFFCURVE",
"342 917 CURVE SMOOTH",
"307 936 OFFCURVE",
"276 945 OFFCURVE",
"249 945 CURVE SMOOTH",
"193 945 OFFCURVE",
"143 904 OFFCURVE",
"143 857 CURVE SMOOTH",
"143 838 OFFCURVE",
"158 821 OFFCURVE",
"178 821 CURVE SMOOTH",
"187 821 OFFCURVE",
"196 826 OFFCURVE",
"204 837 CURVE",
"220 857 OFFCURVE",
"236 882 OFFCURVE",
"264 882 CURVE SMOOTH",
"277 882 OFFCURVE",
"300 873 OFFCURVE",
"332 855 CURVE SMOOTH",
"364 836 OFFCURVE",
"392 827 OFFCURVE",
"415 827 CURVE SMOOTH",
"461 827 OFFCURVE",
"500 867 OFFCURVE",
"500 912 CURVE SMOOTH"
);
}
);
width = 642;
}
);
note = Atilde;
unicode = 00C3;
},
{
glyphname = Adieresis;
lastChange = "2017-06-04 10:41:35 +0000";
layers = (
{
layerId = "016D93B1-224C-4BB2-94F2-5498F6B5D728";
paths = (
{
closed = 1;
nodes = (
"486 387 OFFCURVE",
"452 488 OFFCURVE",
"408 622 CURVE SMOOTH",
"394 665 OFFCURVE",
"384 694 OFFCURVE",
"378 709 CURVE SMOOTH",
"366 739 OFFCURVE",
"350 760 OFFCURVE",
"317 760 CURVE SMOOTH",
"292 760 OFFCURVE",
"273 740 OFFCURVE",
"259 700 CURVE SMOOTH",
"174 450 OFFCURVE",
"130 322 OFFCURVE",
"128 317 CURVE",
"116 318 OFFCURVE",
"102 318 OFFCURVE",
"87 318 CURVE SMOOTH",
"55 318 OFFCURVE",
"39 306 OFFCURVE",
"39 281 CURVE SMOOTH",
"39 256 OFFCURVE",
"55 244 OFFCURVE",
"87 244 CURVE SMOOTH",
"105 244 LINE",
"98 220 OFFCURVE",
"88 190 OFFCURVE",
"76 154 CURVE SMOOTH",
"63 118 OFFCURVE",
"54 90 OFFCURVE",
"48 70 CURVE SMOOTH",
"42 49 OFFCURVE",
"39 34 OFFCURVE",
"39 25 CURVE SMOOTH",
"39 5 OFFCURVE",
"52 -10 OFFCURVE",
"72 -10 CURVE SMOOTH",
"89 -10 OFFCURVE",
"102 2 OFFCURVE",
"111 27 CURVE",
"114 34 OFFCURVE",
"136 107 OFFCURVE",
"177 246 CURVE",
"220 248 OFFCURVE",
"258 249 OFFCURVE",
"289 249 CURVE SMOOTH",
"320 249 OFFCURVE",
"376 248 OFFCURVE",
"456 246 CURVE",
"466 215 OFFCURVE",
"478 176 OFFCURVE",
"492 131 CURVE SMOOTH",
"505 86 OFFCURVE",
"517 50 OFFCURVE",
"526 25 CURVE",
"536 2 OFFCURVE",
"551 -10 OFFCURVE",
"570 -10 CURVE SMOOTH",
"591 -10 OFFCURVE",
"604 7 OFFCURVE",
"604 26 CURVE SMOOTH",
"604 35 OFFCURVE",
"595 64 OFFCURVE",
"578 112 CURVE SMOOTH",
"569 135 OFFCURVE",
"563 155 OFFCURVE",
"558 170 CURVE SMOOTH",
"553 185 OFFCURVE",
"545 209 OFFCURVE",
"534 242 CURVE",
"581 242 OFFCURVE",
"604 255 OFFCURVE",
"604 280 CURVE SMOOTH",
"604 303 OFFCURVE",
"583 319 OFFCURVE",
"554 319 CURVE SMOOTH",
"510 318 LINE"
);
},
{
closed = 1;
nodes = (
"279 563 OFFCURVE",
"310 646 OFFCURVE",
"319 646 CURVE SMOOTH",
"327 646 OFFCURVE",
"365 536 OFFCURVE",
"434 315 CURVE",
"399 313 OFFCURVE",
"361 312 OFFCURVE",
"319 312 CURVE SMOOTH",
"276 312 OFFCURVE",
"236 313 OFFCURVE",
"199 315 CURVE",
"226 398 LINE SMOOTH"
);
},
{
closed = 1;
nodes = (
"223 955 OFFCURVE",
"201 928 OFFCURVE",
"201 897 CURVE SMOOTH",
"201 866 OFFCURVE",
"215 846 OFFCURVE",
"243 846 CURVE SMOOTH",
"271 846 OFFCURVE",
"292 880 OFFCURVE",
"292 908 CURVE SMOOTH",
"292 935 OFFCURVE",
"279 955 OFFCURVE",
"251 955 CURVE SMOOTH"
);
},
{
closed = 1;
nodes = (
"383 955 OFFCURVE",
"361 928 OFFCURVE",
"361 897 CURVE SMOOTH",
"361 866 OFFCURVE",
"375 846 OFFCURVE",
"403 846 CURVE SMOOTH",
"431 846 OFFCURVE",
"452 880 OFFCURVE",
"452 908 CURVE SMOOTH",
"452 935 OFFCURVE",
"439 955 OFFCURVE",
"411 955 CURVE SMOOTH"
);
}
);
width = 642;
}
);
note = Adieresis;
unicode = 00C4;
},
